%FSLAX45Y45*%
G04 Gerber Fmt 4.5, Leading zero omitted, Abs format (unit mm)*
G04 Created by KiCad (PCBNEW (5.1.6)-1) date 2020-10-24 16:48:19*
%MOMM*%
%LPD*%
G01*
G04 APERTURE LIST*
%TA.AperFunction,Profile*%
%ADD10C,0.050000*%
%TD*%
%ADD11C,0.200000*%
%ADD12C,0.300000*%
G04 APERTURE END LIST*
D10*
X39449375Y-20081875D02*
G75*
G02*
X39131875Y-20399375I-317500J0D01*
G01*
X2619375Y-20399375D02*
X11544300Y-20399375D01*
X39131875Y-7302500D02*
G75*
G02*
X39449375Y-7620000I0J-317500D01*
G01*
X39131875Y-20399375D02*
X27860625Y-20399375D01*
X27860625Y-20399375D02*
X21113750Y-21828125D01*
X18256250Y-21828125D02*
X21113750Y-21828125D01*
X11544300Y-20399375D02*
X18256250Y-21828125D01*
X2301875Y-7620000D02*
G75*
G02*
X2619375Y-7302500I317500J0D01*
G01*
X2619375Y-7302500D02*
X39131875Y-7302500D01*
X2301875Y-7620000D02*
X2301875Y-20081875D01*
X39449375Y-7620000D02*
X39449375Y-20081875D01*
X2619375Y-20399375D02*
G75*
G02*
X2301875Y-20081875I0J317500D01*
G01*
D11*
X38863125Y-9415000D02*
X39083125Y-9635000D01*
X39083125Y-9415000D02*
X38863125Y-9635000D01*
X23067500Y-9415000D02*
X23287500Y-9635000D01*
X23287500Y-9415000D02*
X23067500Y-9635000D01*
X3779375Y-18066875D02*
X3999375Y-18286875D01*
X3999375Y-18066875D02*
X3779375Y-18286875D01*
X16082500Y-9415000D02*
X16302500Y-9635000D01*
X16302500Y-9415000D02*
X16082500Y-9635000D01*
X19575000Y-20368750D02*
X19795000Y-20588750D01*
X19795000Y-20368750D02*
X19575000Y-20588750D01*
X2668125Y-9415000D02*
X2888125Y-9635000D01*
X2888125Y-9415000D02*
X2668125Y-9635000D01*
X12590000Y-17987500D02*
X12810000Y-18207500D01*
X12810000Y-17987500D02*
X12590000Y-18207500D01*
X26560000Y-17987500D02*
X26780000Y-18207500D01*
X26780000Y-17987500D02*
X26560000Y-18207500D01*
X37751875Y-17987500D02*
X37971875Y-18207500D01*
X37971875Y-17987500D02*
X37751875Y-18207500D01*
X2668125Y-7589375D02*
X2888125Y-7809375D01*
X2888125Y-7589375D02*
X2668125Y-7809375D01*
X38863125Y-7589375D02*
X39083125Y-7809375D01*
X39083125Y-7589375D02*
X38863125Y-7809375D01*
X7755625Y-10318750D02*
G75*
G03*
X7755625Y-10318750I-215000J0D01*
G01*
X34425625Y-10318750D02*
G75*
G03*
X34425625Y-10318750I-215000J0D01*
G01*
D12*
X2585803Y-22296339D02*
X2585803Y-21996339D01*
X2657232Y-21996339D01*
X2700089Y-22010625D01*
X2728661Y-22039197D01*
X2742946Y-22067768D01*
X2757232Y-22124911D01*
X2757232Y-22167768D01*
X2742946Y-22224911D01*
X2728661Y-22253482D01*
X2700089Y-22282054D01*
X2657232Y-22296339D01*
X2585803Y-22296339D01*
X2885803Y-22296339D02*
X2885803Y-22096339D01*
X2885803Y-22153482D02*
X2900089Y-22124911D01*
X2914375Y-22110625D01*
X2942946Y-22096339D01*
X2971518Y-22096339D01*
X3071518Y-22296339D02*
X3071518Y-22096339D01*
X3071518Y-21996339D02*
X3057232Y-22010625D01*
X3071518Y-22024911D01*
X3085803Y-22010625D01*
X3071518Y-21996339D01*
X3071518Y-22024911D01*
X3257232Y-22296339D02*
X3228661Y-22282054D01*
X3214375Y-22253482D01*
X3214375Y-21996339D01*
X3414375Y-22296339D02*
X3385803Y-22282054D01*
X3371518Y-22253482D01*
X3371518Y-21996339D01*
X3757232Y-22296339D02*
X3757232Y-21996339D01*
X3857232Y-22210625D01*
X3957232Y-21996339D01*
X3957232Y-22296339D01*
X4228661Y-22296339D02*
X4228661Y-22139197D01*
X4214375Y-22110625D01*
X4185803Y-22096339D01*
X4128661Y-22096339D01*
X4100089Y-22110625D01*
X4228661Y-22282054D02*
X4200089Y-22296339D01*
X4128661Y-22296339D01*
X4100089Y-22282054D01*
X4085803Y-22253482D01*
X4085803Y-22224911D01*
X4100089Y-22196339D01*
X4128661Y-22182054D01*
X4200089Y-22182054D01*
X4228661Y-22167768D01*
X4371518Y-22096339D02*
X4371518Y-22396339D01*
X4371518Y-22110625D02*
X4400089Y-22096339D01*
X4457232Y-22096339D01*
X4485803Y-22110625D01*
X4500089Y-22124911D01*
X4514375Y-22153482D01*
X4514375Y-22239197D01*
X4500089Y-22267768D01*
X4485803Y-22282054D01*
X4457232Y-22296339D01*
X4400089Y-22296339D01*
X4371518Y-22282054D01*
X4642946Y-22267768D02*
X4657232Y-22282054D01*
X4642946Y-22296339D01*
X4628661Y-22282054D01*
X4642946Y-22267768D01*
X4642946Y-22296339D01*
X4642946Y-22110625D02*
X4657232Y-22124911D01*
X4642946Y-22139197D01*
X4628661Y-22124911D01*
X4642946Y-22110625D01*
X4642946Y-22139197D01*
X2079375Y-22680625D02*
X2299375Y-22900625D01*
X2299375Y-22680625D02*
X2079375Y-22900625D01*
X2571518Y-22654911D02*
X2585803Y-22640625D01*
X2614375Y-22626339D01*
X2685803Y-22626339D01*
X2714375Y-22640625D01*
X2728661Y-22654911D01*
X2742946Y-22683482D01*
X2742946Y-22712054D01*
X2728661Y-22754911D01*
X2557232Y-22926339D01*
X2742946Y-22926339D01*
X2871518Y-22897768D02*
X2885803Y-22912054D01*
X2871518Y-22926339D01*
X2857232Y-22912054D01*
X2871518Y-22897768D01*
X2871518Y-22926339D01*
X3000089Y-22654911D02*
X3014375Y-22640625D01*
X3042946Y-22626339D01*
X3114375Y-22626339D01*
X3142946Y-22640625D01*
X3157232Y-22654911D01*
X3171518Y-22683482D01*
X3171518Y-22712054D01*
X3157232Y-22754911D01*
X2985803Y-22926339D01*
X3171518Y-22926339D01*
X3357232Y-22626339D02*
X3385803Y-22626339D01*
X3414375Y-22640625D01*
X3428661Y-22654911D01*
X3442946Y-22683482D01*
X3457232Y-22740625D01*
X3457232Y-22812054D01*
X3442946Y-22869196D01*
X3428661Y-22897768D01*
X3414375Y-22912054D01*
X3385803Y-22926339D01*
X3357232Y-22926339D01*
X3328661Y-22912054D01*
X3314375Y-22897768D01*
X3300089Y-22869196D01*
X3285803Y-22812054D01*
X3285803Y-22740625D01*
X3300089Y-22683482D01*
X3314375Y-22654911D01*
X3328661Y-22640625D01*
X3357232Y-22626339D01*
X3585803Y-22926339D02*
X3585803Y-22726339D01*
X3585803Y-22754911D02*
X3600089Y-22740625D01*
X3628661Y-22726339D01*
X3671518Y-22726339D01*
X3700089Y-22740625D01*
X3714375Y-22769196D01*
X3714375Y-22926339D01*
X3714375Y-22769196D02*
X3728661Y-22740625D01*
X3757232Y-22726339D01*
X3800089Y-22726339D01*
X3828661Y-22740625D01*
X3842946Y-22769196D01*
X3842946Y-22926339D01*
X3985803Y-22926339D02*
X3985803Y-22726339D01*
X3985803Y-22754911D02*
X4000089Y-22740625D01*
X4028661Y-22726339D01*
X4071518Y-22726339D01*
X4100089Y-22740625D01*
X4114375Y-22769196D01*
X4114375Y-22926339D01*
X4114375Y-22769196D02*
X4128661Y-22740625D01*
X4157232Y-22726339D01*
X4200089Y-22726339D01*
X4228661Y-22740625D01*
X4242946Y-22769196D01*
X4242946Y-22926339D01*
X4828661Y-22612054D02*
X4571518Y-22997768D01*
X5214375Y-22626339D02*
X5242946Y-22626339D01*
X5271518Y-22640625D01*
X5285803Y-22654911D01*
X5300089Y-22683482D01*
X5314375Y-22740625D01*
X5314375Y-22812054D01*
X5300089Y-22869196D01*
X5285803Y-22897768D01*
X5271518Y-22912054D01*
X5242946Y-22926339D01*
X5214375Y-22926339D01*
X5185803Y-22912054D01*
X5171518Y-22897768D01*
X5157232Y-22869196D01*
X5142946Y-22812054D01*
X5142946Y-22740625D01*
X5157232Y-22683482D01*
X5171518Y-22654911D01*
X5185803Y-22640625D01*
X5214375Y-22626339D01*
X5442946Y-22897768D02*
X5457232Y-22912054D01*
X5442946Y-22926339D01*
X5428661Y-22912054D01*
X5442946Y-22897768D01*
X5442946Y-22926339D01*
X5642946Y-22626339D02*
X5671518Y-22626339D01*
X5700089Y-22640625D01*
X5714375Y-22654911D01*
X5728661Y-22683482D01*
X5742946Y-22740625D01*
X5742946Y-22812054D01*
X5728661Y-22869196D01*
X5714375Y-22897768D01*
X5700089Y-22912054D01*
X5671518Y-22926339D01*
X5642946Y-22926339D01*
X5614375Y-22912054D01*
X5600089Y-22897768D01*
X5585803Y-22869196D01*
X5571518Y-22812054D01*
X5571518Y-22740625D01*
X5585803Y-22683482D01*
X5600089Y-22654911D01*
X5614375Y-22640625D01*
X5642946Y-22626339D01*
X5914375Y-22754911D02*
X5885803Y-22740625D01*
X5871518Y-22726339D01*
X5857232Y-22697768D01*
X5857232Y-22683482D01*
X5871518Y-22654911D01*
X5885803Y-22640625D01*
X5914375Y-22626339D01*
X5971518Y-22626339D01*
X6000089Y-22640625D01*
X6014375Y-22654911D01*
X6028661Y-22683482D01*
X6028661Y-22697768D01*
X6014375Y-22726339D01*
X6000089Y-22740625D01*
X5971518Y-22754911D01*
X5914375Y-22754911D01*
X5885803Y-22769196D01*
X5871518Y-22783482D01*
X5857232Y-22812054D01*
X5857232Y-22869196D01*
X5871518Y-22897768D01*
X5885803Y-22912054D01*
X5914375Y-22926339D01*
X5971518Y-22926339D01*
X6000089Y-22912054D01*
X6014375Y-22897768D01*
X6028661Y-22869196D01*
X6028661Y-22812054D01*
X6014375Y-22783482D01*
X6000089Y-22769196D01*
X5971518Y-22754911D01*
X6128661Y-22626339D02*
X6328661Y-22626339D01*
X6200089Y-22926339D01*
X6428661Y-22626339D02*
X6428661Y-22683482D01*
X6542946Y-22626339D02*
X6542946Y-22683482D01*
X6985803Y-23040625D02*
X6971518Y-23026339D01*
X6942946Y-22983482D01*
X6928661Y-22954911D01*
X6914375Y-22912054D01*
X6900089Y-22840625D01*
X6900089Y-22783482D01*
X6914375Y-22712054D01*
X6928661Y-22669196D01*
X6942946Y-22640625D01*
X6971518Y-22597768D01*
X6985803Y-22583482D01*
X7257232Y-22926339D02*
X7085803Y-22926339D01*
X7171518Y-22926339D02*
X7171518Y-22626339D01*
X7142946Y-22669196D01*
X7114375Y-22697768D01*
X7085803Y-22712054D01*
X7542946Y-22926339D02*
X7371518Y-22926339D01*
X7457232Y-22926339D02*
X7457232Y-22626339D01*
X7428661Y-22669196D01*
X7400089Y-22697768D01*
X7371518Y-22712054D01*
X7900089Y-22926339D02*
X7900089Y-22626339D01*
X8028661Y-22926339D02*
X8028661Y-22769196D01*
X8014375Y-22740625D01*
X7985803Y-22726339D01*
X7942946Y-22726339D01*
X7914375Y-22740625D01*
X7900089Y-22754911D01*
X8214375Y-22926339D02*
X8185803Y-22912054D01*
X8171518Y-22897768D01*
X8157232Y-22869196D01*
X8157232Y-22783482D01*
X8171518Y-22754911D01*
X8185803Y-22740625D01*
X8214375Y-22726339D01*
X8257232Y-22726339D01*
X8285803Y-22740625D01*
X8300089Y-22754911D01*
X8314375Y-22783482D01*
X8314375Y-22869196D01*
X8300089Y-22897768D01*
X8285803Y-22912054D01*
X8257232Y-22926339D01*
X8214375Y-22926339D01*
X8485803Y-22926339D02*
X8457232Y-22912054D01*
X8442946Y-22883482D01*
X8442946Y-22626339D01*
X8714375Y-22912054D02*
X8685803Y-22926339D01*
X8628661Y-22926339D01*
X8600089Y-22912054D01*
X8585803Y-22883482D01*
X8585803Y-22769196D01*
X8600089Y-22740625D01*
X8628661Y-22726339D01*
X8685803Y-22726339D01*
X8714375Y-22740625D01*
X8728661Y-22769196D01*
X8728661Y-22797768D01*
X8585803Y-22826339D01*
X8842946Y-22912054D02*
X8871518Y-22926339D01*
X8928661Y-22926339D01*
X8957232Y-22912054D01*
X8971518Y-22883482D01*
X8971518Y-22869196D01*
X8957232Y-22840625D01*
X8928661Y-22826339D01*
X8885803Y-22826339D01*
X8857232Y-22812054D01*
X8842946Y-22783482D01*
X8842946Y-22769196D01*
X8857232Y-22740625D01*
X8885803Y-22726339D01*
X8928661Y-22726339D01*
X8957232Y-22740625D01*
X9071518Y-23040625D02*
X9085803Y-23026339D01*
X9114375Y-22983482D01*
X9128661Y-22954911D01*
X9142946Y-22912054D01*
X9157232Y-22840625D01*
X9157232Y-22783482D01*
X9142946Y-22712054D01*
X9128661Y-22669196D01*
X9114375Y-22640625D01*
X9085803Y-22597768D01*
X9071518Y-22583482D01*
X2299375Y-23186625D02*
G75*
G03*
X2299375Y-23186625I-215000J0D01*
G01*
X2714375Y-23122339D02*
X2714375Y-23322339D01*
X2642946Y-23008054D02*
X2571518Y-23222339D01*
X2757232Y-23222339D01*
X2871518Y-23293768D02*
X2885803Y-23308054D01*
X2871518Y-23322339D01*
X2857232Y-23308054D01*
X2871518Y-23293768D01*
X2871518Y-23322339D01*
X2985803Y-23022339D02*
X3171518Y-23022339D01*
X3071518Y-23136625D01*
X3114375Y-23136625D01*
X3142946Y-23150911D01*
X3157232Y-23165196D01*
X3171518Y-23193768D01*
X3171518Y-23265196D01*
X3157232Y-23293768D01*
X3142946Y-23308054D01*
X3114375Y-23322339D01*
X3028661Y-23322339D01*
X3000089Y-23308054D01*
X2985803Y-23293768D01*
X3357232Y-23022339D02*
X3385803Y-23022339D01*
X3414375Y-23036625D01*
X3428661Y-23050911D01*
X3442946Y-23079482D01*
X3457232Y-23136625D01*
X3457232Y-23208054D01*
X3442946Y-23265196D01*
X3428661Y-23293768D01*
X3414375Y-23308054D01*
X3385803Y-23322339D01*
X3357232Y-23322339D01*
X3328661Y-23308054D01*
X3314375Y-23293768D01*
X3300089Y-23265196D01*
X3285803Y-23208054D01*
X3285803Y-23136625D01*
X3300089Y-23079482D01*
X3314375Y-23050911D01*
X3328661Y-23036625D01*
X3357232Y-23022339D01*
X3585803Y-23322339D02*
X3585803Y-23122339D01*
X3585803Y-23150911D02*
X3600089Y-23136625D01*
X3628661Y-23122339D01*
X3671518Y-23122339D01*
X3700089Y-23136625D01*
X3714375Y-23165196D01*
X3714375Y-23322339D01*
X3714375Y-23165196D02*
X3728661Y-23136625D01*
X3757232Y-23122339D01*
X3800089Y-23122339D01*
X3828661Y-23136625D01*
X3842946Y-23165196D01*
X3842946Y-23322339D01*
X3985803Y-23322339D02*
X3985803Y-23122339D01*
X3985803Y-23150911D02*
X4000089Y-23136625D01*
X4028661Y-23122339D01*
X4071518Y-23122339D01*
X4100089Y-23136625D01*
X4114375Y-23165196D01*
X4114375Y-23322339D01*
X4114375Y-23165196D02*
X4128661Y-23136625D01*
X4157232Y-23122339D01*
X4200089Y-23122339D01*
X4228661Y-23136625D01*
X4242946Y-23165196D01*
X4242946Y-23322339D01*
X4828661Y-23008054D02*
X4571518Y-23393768D01*
X5214375Y-23022339D02*
X5242946Y-23022339D01*
X5271518Y-23036625D01*
X5285803Y-23050911D01*
X5300089Y-23079482D01*
X5314375Y-23136625D01*
X5314375Y-23208054D01*
X5300089Y-23265196D01*
X5285803Y-23293768D01*
X5271518Y-23308054D01*
X5242946Y-23322339D01*
X5214375Y-23322339D01*
X5185803Y-23308054D01*
X5171518Y-23293768D01*
X5157232Y-23265196D01*
X5142946Y-23208054D01*
X5142946Y-23136625D01*
X5157232Y-23079482D01*
X5171518Y-23050911D01*
X5185803Y-23036625D01*
X5214375Y-23022339D01*
X5442946Y-23293768D02*
X5457232Y-23308054D01*
X5442946Y-23322339D01*
X5428661Y-23308054D01*
X5442946Y-23293768D01*
X5442946Y-23322339D01*
X5742946Y-23322339D02*
X5571518Y-23322339D01*
X5657232Y-23322339D02*
X5657232Y-23022339D01*
X5628661Y-23065196D01*
X5600089Y-23093768D01*
X5571518Y-23108054D01*
X6000089Y-23022339D02*
X5942946Y-23022339D01*
X5914375Y-23036625D01*
X5900089Y-23050911D01*
X5871518Y-23093768D01*
X5857232Y-23150911D01*
X5857232Y-23265196D01*
X5871518Y-23293768D01*
X5885803Y-23308054D01*
X5914375Y-23322339D01*
X5971518Y-23322339D01*
X6000089Y-23308054D01*
X6014375Y-23293768D01*
X6028661Y-23265196D01*
X6028661Y-23193768D01*
X6014375Y-23165196D01*
X6000089Y-23150911D01*
X5971518Y-23136625D01*
X5914375Y-23136625D01*
X5885803Y-23150911D01*
X5871518Y-23165196D01*
X5857232Y-23193768D01*
X6171518Y-23322339D02*
X6228661Y-23322339D01*
X6257232Y-23308054D01*
X6271518Y-23293768D01*
X6300089Y-23250911D01*
X6314375Y-23193768D01*
X6314375Y-23079482D01*
X6300089Y-23050911D01*
X6285803Y-23036625D01*
X6257232Y-23022339D01*
X6200089Y-23022339D01*
X6171518Y-23036625D01*
X6157232Y-23050911D01*
X6142946Y-23079482D01*
X6142946Y-23150911D01*
X6157232Y-23179482D01*
X6171518Y-23193768D01*
X6200089Y-23208054D01*
X6257232Y-23208054D01*
X6285803Y-23193768D01*
X6300089Y-23179482D01*
X6314375Y-23150911D01*
X6428661Y-23022339D02*
X6428661Y-23079482D01*
X6542946Y-23022339D02*
X6542946Y-23079482D01*
X6985803Y-23436625D02*
X6971518Y-23422339D01*
X6942946Y-23379482D01*
X6928661Y-23350911D01*
X6914375Y-23308054D01*
X6900089Y-23236625D01*
X6900089Y-23179482D01*
X6914375Y-23108054D01*
X6928661Y-23065196D01*
X6942946Y-23036625D01*
X6971518Y-22993768D01*
X6985803Y-22979482D01*
X7085803Y-23050911D02*
X7100089Y-23036625D01*
X7128661Y-23022339D01*
X7200089Y-23022339D01*
X7228661Y-23036625D01*
X7242946Y-23050911D01*
X7257232Y-23079482D01*
X7257232Y-23108054D01*
X7242946Y-23150911D01*
X7071518Y-23322339D01*
X7257232Y-23322339D01*
X7614375Y-23322339D02*
X7614375Y-23022339D01*
X7742946Y-23322339D02*
X7742946Y-23165196D01*
X7728661Y-23136625D01*
X7700089Y-23122339D01*
X7657232Y-23122339D01*
X7628661Y-23136625D01*
X7614375Y-23150911D01*
X7928661Y-23322339D02*
X7900089Y-23308054D01*
X7885803Y-23293768D01*
X7871518Y-23265196D01*
X7871518Y-23179482D01*
X7885803Y-23150911D01*
X7900089Y-23136625D01*
X7928661Y-23122339D01*
X7971518Y-23122339D01*
X8000089Y-23136625D01*
X8014375Y-23150911D01*
X8028661Y-23179482D01*
X8028661Y-23265196D01*
X8014375Y-23293768D01*
X8000089Y-23308054D01*
X7971518Y-23322339D01*
X7928661Y-23322339D01*
X8200089Y-23322339D02*
X8171518Y-23308054D01*
X8157232Y-23279482D01*
X8157232Y-23022339D01*
X8428661Y-23308054D02*
X8400089Y-23322339D01*
X8342946Y-23322339D01*
X8314375Y-23308054D01*
X8300089Y-23279482D01*
X8300089Y-23165196D01*
X8314375Y-23136625D01*
X8342946Y-23122339D01*
X8400089Y-23122339D01*
X8428661Y-23136625D01*
X8442946Y-23165196D01*
X8442946Y-23193768D01*
X8300089Y-23222339D01*
X8557232Y-23308054D02*
X8585803Y-23322339D01*
X8642946Y-23322339D01*
X8671518Y-23308054D01*
X8685803Y-23279482D01*
X8685803Y-23265196D01*
X8671518Y-23236625D01*
X8642946Y-23222339D01*
X8600089Y-23222339D01*
X8571518Y-23208054D01*
X8557232Y-23179482D01*
X8557232Y-23165196D01*
X8571518Y-23136625D01*
X8600089Y-23122339D01*
X8642946Y-23122339D01*
X8671518Y-23136625D01*
X8785803Y-23436625D02*
X8800089Y-23422339D01*
X8828661Y-23379482D01*
X8842946Y-23350911D01*
X8857232Y-23308054D01*
X8871518Y-23236625D01*
X8871518Y-23179482D01*
X8857232Y-23108054D01*
X8842946Y-23065196D01*
X8828661Y-23036625D01*
X8800089Y-22993768D01*
X8785803Y-22979482D01*
M02*
