G04 #@! TF.GenerationSoftware,KiCad,Pcbnew,(5.1.6)-1*
G04 #@! TF.CreationDate,2020-10-24T16:48:20-05:00*
G04 #@! TF.ProjectId,basketweave_bottom,6261736b-6574-4776-9561-76655f626f74,rev?*
G04 #@! TF.SameCoordinates,Original*
G04 #@! TF.FileFunction,Soldermask,Bot*
G04 #@! TF.FilePolarity,Negative*
%FSLAX46Y46*%
G04 Gerber Fmt 4.6, Leading zero omitted, Abs format (unit mm)*
G04 Created by KiCad (PCBNEW (5.1.6)-1) date 2020-10-24 16:48:20*
%MOMM*%
%LPD*%
G01*
G04 APERTURE LIST*
%ADD10C,0.010000*%
%ADD11C,0.100000*%
G04 APERTURE END LIST*
D10*
G36*
X92106750Y-128360961D02*
G01*
X85566250Y-128428750D01*
X85491739Y-130264477D01*
X85417228Y-132100205D01*
X90063739Y-132169477D01*
X94710250Y-132238750D01*
X94784331Y-134201479D01*
X94858411Y-136164208D01*
X90212331Y-136233479D01*
X85566250Y-136302750D01*
X85491739Y-138138477D01*
X85417228Y-139974205D01*
X90063739Y-140043477D01*
X94710250Y-140112750D01*
X94779892Y-144367250D01*
X94849533Y-148621750D01*
X82137250Y-148621750D01*
X82137250Y-152685750D01*
X90222917Y-152685750D01*
X92201096Y-152680617D01*
X94014582Y-152666068D01*
X95601413Y-152643372D01*
X96899622Y-152613801D01*
X97847245Y-152578626D01*
X98382318Y-152539117D01*
X98477917Y-152516416D01*
X98512004Y-152235808D01*
X98543798Y-151497553D01*
X98572599Y-150352001D01*
X98597708Y-148849502D01*
X98618427Y-147040407D01*
X98634057Y-144975065D01*
X98643897Y-142703827D01*
X98647250Y-140320128D01*
X98647250Y-128293173D01*
X92106750Y-128360961D01*
G37*
X92106750Y-128360961D02*
X85566250Y-128428750D01*
X85491739Y-130264477D01*
X85417228Y-132100205D01*
X90063739Y-132169477D01*
X94710250Y-132238750D01*
X94784331Y-134201479D01*
X94858411Y-136164208D01*
X90212331Y-136233479D01*
X85566250Y-136302750D01*
X85491739Y-138138477D01*
X85417228Y-139974205D01*
X90063739Y-140043477D01*
X94710250Y-140112750D01*
X94779892Y-144367250D01*
X94849533Y-148621750D01*
X82137250Y-148621750D01*
X82137250Y-152685750D01*
X90222917Y-152685750D01*
X92201096Y-152680617D01*
X94014582Y-152666068D01*
X95601413Y-152643372D01*
X96899622Y-152613801D01*
X97847245Y-152578626D01*
X98382318Y-152539117D01*
X98477917Y-152516416D01*
X98512004Y-152235808D01*
X98543798Y-151497553D01*
X98572599Y-150352001D01*
X98597708Y-148849502D01*
X98618427Y-147040407D01*
X98634057Y-144975065D01*
X98643897Y-142703827D01*
X98647250Y-140320128D01*
X98647250Y-128293173D01*
X92106750Y-128360961D01*
G36*
X138779567Y-126814583D02*
G01*
X138438207Y-127462627D01*
X137916917Y-128463215D01*
X137240826Y-129767417D01*
X136435060Y-131326301D01*
X135524746Y-133090937D01*
X134535012Y-135012394D01*
X133490985Y-137041742D01*
X132417791Y-139130049D01*
X131340559Y-141228385D01*
X130284415Y-143287818D01*
X129274487Y-145259419D01*
X128335901Y-147094256D01*
X127493785Y-148743398D01*
X126773267Y-150157915D01*
X126199473Y-151288876D01*
X125797530Y-152087350D01*
X125592566Y-152504406D01*
X125571250Y-152554312D01*
X125805800Y-152613685D01*
X126431735Y-152659104D01*
X127332492Y-152683479D01*
X127732330Y-152685750D01*
X129893409Y-152685750D01*
X131778647Y-148875750D01*
X145779854Y-148875750D01*
X147665092Y-152685750D01*
X149699171Y-152685750D01*
X150643328Y-152660931D01*
X151354509Y-152594973D01*
X151712600Y-152500619D01*
X151733250Y-152469930D01*
X151624866Y-152206372D01*
X151315925Y-151542632D01*
X150830748Y-150527856D01*
X150193655Y-149211192D01*
X149428965Y-147641785D01*
X148560998Y-145868783D01*
X148041697Y-144811750D01*
X143842612Y-144811750D01*
X133722621Y-144811750D01*
X135895689Y-140303250D01*
X136584018Y-138866527D01*
X137209188Y-137545435D01*
X137732157Y-136423765D01*
X138113883Y-135585309D01*
X138315323Y-135113858D01*
X138321851Y-135096250D01*
X138552482Y-134598280D01*
X138740598Y-134400067D01*
X138840225Y-134497262D01*
X139031988Y-134811583D01*
X139334022Y-135379633D01*
X139764463Y-136238014D01*
X140341446Y-137423331D01*
X141083105Y-138972185D01*
X142007577Y-140921181D01*
X142735052Y-142462250D01*
X143842612Y-144811750D01*
X148041697Y-144811750D01*
X147614075Y-143941332D01*
X146612514Y-141908578D01*
X145580637Y-139819668D01*
X144542762Y-137723750D01*
X143523210Y-135669969D01*
X142546300Y-133707472D01*
X141636352Y-131885405D01*
X140817687Y-130252916D01*
X140114624Y-128859151D01*
X139551483Y-127753257D01*
X139152583Y-126984379D01*
X138942245Y-126601666D01*
X138915870Y-126568014D01*
X138779567Y-126814583D01*
G37*
X138779567Y-126814583D02*
X138438207Y-127462627D01*
X137916917Y-128463215D01*
X137240826Y-129767417D01*
X136435060Y-131326301D01*
X135524746Y-133090937D01*
X134535012Y-135012394D01*
X133490985Y-137041742D01*
X132417791Y-139130049D01*
X131340559Y-141228385D01*
X130284415Y-143287818D01*
X129274487Y-145259419D01*
X128335901Y-147094256D01*
X127493785Y-148743398D01*
X126773267Y-150157915D01*
X126199473Y-151288876D01*
X125797530Y-152087350D01*
X125592566Y-152504406D01*
X125571250Y-152554312D01*
X125805800Y-152613685D01*
X126431735Y-152659104D01*
X127332492Y-152683479D01*
X127732330Y-152685750D01*
X129893409Y-152685750D01*
X131778647Y-148875750D01*
X145779854Y-148875750D01*
X147665092Y-152685750D01*
X149699171Y-152685750D01*
X150643328Y-152660931D01*
X151354509Y-152594973D01*
X151712600Y-152500619D01*
X151733250Y-152469930D01*
X151624866Y-152206372D01*
X151315925Y-151542632D01*
X150830748Y-150527856D01*
X150193655Y-149211192D01*
X149428965Y-147641785D01*
X148560998Y-145868783D01*
X148041697Y-144811750D01*
X143842612Y-144811750D01*
X133722621Y-144811750D01*
X135895689Y-140303250D01*
X136584018Y-138866527D01*
X137209188Y-137545435D01*
X137732157Y-136423765D01*
X138113883Y-135585309D01*
X138315323Y-135113858D01*
X138321851Y-135096250D01*
X138552482Y-134598280D01*
X138740598Y-134400067D01*
X138840225Y-134497262D01*
X139031988Y-134811583D01*
X139334022Y-135379633D01*
X139764463Y-136238014D01*
X140341446Y-137423331D01*
X141083105Y-138972185D01*
X142007577Y-140921181D01*
X142735052Y-142462250D01*
X143842612Y-144811750D01*
X148041697Y-144811750D01*
X147614075Y-143941332D01*
X146612514Y-141908578D01*
X145580637Y-139819668D01*
X144542762Y-137723750D01*
X143523210Y-135669969D01*
X142546300Y-133707472D01*
X141636352Y-131885405D01*
X140817687Y-130252916D01*
X140114624Y-128859151D01*
X139551483Y-127753257D01*
X139152583Y-126984379D01*
X138942245Y-126601666D01*
X138915870Y-126568014D01*
X138779567Y-126814583D01*
G36*
X162464750Y-128360961D02*
G01*
X155924250Y-128428750D01*
X155849623Y-130270249D01*
X155774995Y-132111749D01*
X160485123Y-132111749D01*
X165195250Y-132111750D01*
X165195250Y-136164290D01*
X155924250Y-136302750D01*
X155849623Y-138144250D01*
X155774995Y-139985750D01*
X165195250Y-139985750D01*
X165195250Y-148621750D01*
X152495250Y-148621750D01*
X152495250Y-152685750D01*
X160580917Y-152685750D01*
X162559096Y-152680617D01*
X164372582Y-152666068D01*
X165959413Y-152643372D01*
X167257622Y-152613801D01*
X168205245Y-152578626D01*
X168740318Y-152539117D01*
X168835917Y-152516416D01*
X168870004Y-152235808D01*
X168901798Y-151497553D01*
X168930599Y-150352001D01*
X168955708Y-148849502D01*
X168976427Y-147040407D01*
X168992057Y-144975065D01*
X169001897Y-142703827D01*
X169005250Y-140320128D01*
X169005250Y-128293173D01*
X162464750Y-128360961D01*
G37*
X162464750Y-128360961D02*
X155924250Y-128428750D01*
X155849623Y-130270249D01*
X155774995Y-132111749D01*
X160485123Y-132111749D01*
X165195250Y-132111750D01*
X165195250Y-136164290D01*
X155924250Y-136302750D01*
X155849623Y-138144250D01*
X155774995Y-139985750D01*
X165195250Y-139985750D01*
X165195250Y-148621750D01*
X152495250Y-148621750D01*
X152495250Y-152685750D01*
X160580917Y-152685750D01*
X162559096Y-152680617D01*
X164372582Y-152666068D01*
X165959413Y-152643372D01*
X167257622Y-152613801D01*
X168205245Y-152578626D01*
X168740318Y-152539117D01*
X168835917Y-152516416D01*
X168870004Y-152235808D01*
X168901798Y-151497553D01*
X168930599Y-150352001D01*
X168955708Y-148849502D01*
X168976427Y-147040407D01*
X168992057Y-144975065D01*
X169001897Y-142703827D01*
X169005250Y-140320128D01*
X169005250Y-128293173D01*
X162464750Y-128360961D01*
G36*
X205327250Y-132097005D02*
G01*
X208692750Y-132167877D01*
X212058250Y-132238750D01*
X212124632Y-142462250D01*
X212191013Y-152685750D01*
X213923799Y-152685750D01*
X214819276Y-152662574D01*
X215502470Y-152601809D01*
X215825732Y-152516601D01*
X215825917Y-152516416D01*
X215862990Y-152233427D01*
X215897259Y-151497531D01*
X215927818Y-150363814D01*
X215953761Y-148887367D01*
X215974180Y-147123276D01*
X215988169Y-145126631D01*
X215994820Y-142952520D01*
X215995250Y-142229416D01*
X215995250Y-132111750D01*
X222345250Y-132111750D01*
X222345250Y-128301750D01*
X205327250Y-128301750D01*
X205327250Y-132097005D01*
G37*
X205327250Y-132097005D02*
X208692750Y-132167877D01*
X212058250Y-132238750D01*
X212124632Y-142462250D01*
X212191013Y-152685750D01*
X213923799Y-152685750D01*
X214819276Y-152662574D01*
X215502470Y-152601809D01*
X215825732Y-152516601D01*
X215825917Y-152516416D01*
X215862990Y-152233427D01*
X215897259Y-151497531D01*
X215927818Y-150363814D01*
X215953761Y-148887367D01*
X215974180Y-147123276D01*
X215988169Y-145126631D01*
X215994820Y-142952520D01*
X215995250Y-142229416D01*
X215995250Y-132111750D01*
X222345250Y-132111750D01*
X222345250Y-128301750D01*
X205327250Y-128301750D01*
X205327250Y-132097005D01*
G36*
X227425250Y-132111750D02*
G01*
X236569250Y-132111750D01*
X236569250Y-136175750D01*
X227425250Y-136175750D01*
X227425250Y-139985750D01*
X236569250Y-139985750D01*
X236569250Y-148612875D01*
X230282750Y-148680812D01*
X223996250Y-148748750D01*
X223996250Y-152558750D01*
X232014912Y-152625755D01*
X233984785Y-152636890D01*
X235789971Y-152636880D01*
X237368204Y-152626530D01*
X238657219Y-152606643D01*
X239594748Y-152578026D01*
X240118527Y-152541481D01*
X240206412Y-152519922D01*
X240241211Y-152238587D01*
X240273669Y-151499633D01*
X240303071Y-150353440D01*
X240328703Y-148850386D01*
X240349850Y-147040851D01*
X240365800Y-144975213D01*
X240375838Y-142703851D01*
X240379250Y-140324416D01*
X240379250Y-128301750D01*
X227425250Y-128301750D01*
X227425250Y-132111750D01*
G37*
X227425250Y-132111750D02*
X236569250Y-132111750D01*
X236569250Y-136175750D01*
X227425250Y-136175750D01*
X227425250Y-139985750D01*
X236569250Y-139985750D01*
X236569250Y-148612875D01*
X230282750Y-148680812D01*
X223996250Y-148748750D01*
X223996250Y-152558750D01*
X232014912Y-152625755D01*
X233984785Y-152636890D01*
X235789971Y-152636880D01*
X237368204Y-152626530D01*
X238657219Y-152606643D01*
X239594748Y-152578026D01*
X240118527Y-152541481D01*
X240206412Y-152519922D01*
X240241211Y-152238587D01*
X240273669Y-151499633D01*
X240303071Y-150353440D01*
X240328703Y-148850386D01*
X240349850Y-147040851D01*
X240365800Y-144975213D01*
X240375838Y-142703851D01*
X240379250Y-140324416D01*
X240379250Y-128301750D01*
X227425250Y-128301750D01*
X227425250Y-132111750D01*
G36*
X257016250Y-128428750D02*
G01*
X256762250Y-136944932D01*
X252447053Y-132623341D01*
X248131855Y-128301749D01*
X245462053Y-128315050D01*
X242792250Y-128328350D01*
X255238250Y-140505814D01*
X249015250Y-146583645D01*
X242792250Y-152661475D01*
X245462053Y-152673612D01*
X248131855Y-152685750D01*
X252447053Y-148364158D01*
X256762250Y-144042567D01*
X256889250Y-148300658D01*
X257016250Y-152558750D01*
X258857750Y-152633377D01*
X260699250Y-152708005D01*
X260699250Y-128279494D01*
X257016250Y-128428750D01*
G37*
X257016250Y-128428750D02*
X256762250Y-136944932D01*
X252447053Y-132623341D01*
X248131855Y-128301749D01*
X245462053Y-128315050D01*
X242792250Y-128328350D01*
X255238250Y-140505814D01*
X249015250Y-146583645D01*
X242792250Y-152661475D01*
X245462053Y-152673612D01*
X248131855Y-152685750D01*
X252447053Y-148364158D01*
X256762250Y-144042567D01*
X256889250Y-148300658D01*
X257016250Y-152558750D01*
X258857750Y-152633377D01*
X260699250Y-152708005D01*
X260699250Y-128279494D01*
X257016250Y-128428750D01*
G36*
X266541250Y-132062406D02*
G01*
X271094991Y-132150578D01*
X272744425Y-132187191D01*
X273966435Y-132230094D01*
X274841590Y-132288663D01*
X275450455Y-132372278D01*
X275873600Y-132490315D01*
X276191590Y-132652155D01*
X276349476Y-132762204D01*
X277067341Y-133587856D01*
X277391292Y-134619447D01*
X277314516Y-135733958D01*
X276830204Y-136808369D01*
X276590768Y-137120451D01*
X276334006Y-137396734D01*
X276057662Y-137592324D01*
X275669202Y-137726272D01*
X275076094Y-137817627D01*
X274185805Y-137885438D01*
X272905800Y-137948757D01*
X272474589Y-137967853D01*
X270473797Y-138092444D01*
X268890710Y-138286724D01*
X267636920Y-138576638D01*
X266624019Y-138988130D01*
X265763598Y-139547145D01*
X265116420Y-140127212D01*
X264111371Y-141438846D01*
X263503235Y-142988466D01*
X263277564Y-144823117D01*
X263313247Y-145997659D01*
X263639509Y-147906170D01*
X264318937Y-149461551D01*
X265378306Y-150699945D01*
X266844392Y-151657496D01*
X267811250Y-152069289D01*
X268454185Y-152221185D01*
X269454184Y-152355145D01*
X270728294Y-152469229D01*
X272193564Y-152561495D01*
X273767042Y-152630003D01*
X275365774Y-152672812D01*
X276906808Y-152687982D01*
X278307193Y-152673570D01*
X279483976Y-152627638D01*
X280354204Y-152548244D01*
X280834926Y-152433446D01*
X280900239Y-152375523D01*
X280964924Y-151934087D01*
X280987674Y-151164797D01*
X280968825Y-150372996D01*
X280892250Y-148748750D01*
X274923250Y-148621750D01*
X272721813Y-148563892D01*
X270999214Y-148493258D01*
X269726406Y-148407839D01*
X268874340Y-148305628D01*
X268413969Y-148184616D01*
X268385380Y-148169720D01*
X267667063Y-147478338D01*
X267209104Y-146417558D01*
X267049250Y-145082370D01*
X267113978Y-144176872D01*
X267363587Y-143524109D01*
X267747750Y-143024272D01*
X268310927Y-142524137D01*
X269019927Y-142169575D01*
X269962876Y-141939680D01*
X271227898Y-141813547D01*
X272903118Y-141770270D01*
X273035649Y-141769809D01*
X274953463Y-141697896D01*
X276475205Y-141473227D01*
X277697415Y-141067141D01*
X278716633Y-140450973D01*
X279343309Y-139897059D01*
X280248386Y-138734386D01*
X280815243Y-137356437D01*
X281072561Y-135677080D01*
X281093333Y-134641189D01*
X280892706Y-132813156D01*
X280336368Y-131330496D01*
X279399524Y-130153151D01*
X278057381Y-129241062D01*
X277623889Y-129035779D01*
X277116924Y-128832380D01*
X276593189Y-128679473D01*
X275965492Y-128567435D01*
X275146644Y-128486642D01*
X274049452Y-128427472D01*
X272586728Y-128380300D01*
X271430750Y-128352241D01*
X266541250Y-128241538D01*
X266541250Y-132062406D01*
G37*
X266541250Y-132062406D02*
X271094991Y-132150578D01*
X272744425Y-132187191D01*
X273966435Y-132230094D01*
X274841590Y-132288663D01*
X275450455Y-132372278D01*
X275873600Y-132490315D01*
X276191590Y-132652155D01*
X276349476Y-132762204D01*
X277067341Y-133587856D01*
X277391292Y-134619447D01*
X277314516Y-135733958D01*
X276830204Y-136808369D01*
X276590768Y-137120451D01*
X276334006Y-137396734D01*
X276057662Y-137592324D01*
X275669202Y-137726272D01*
X275076094Y-137817627D01*
X274185805Y-137885438D01*
X272905800Y-137948757D01*
X272474589Y-137967853D01*
X270473797Y-138092444D01*
X268890710Y-138286724D01*
X267636920Y-138576638D01*
X266624019Y-138988130D01*
X265763598Y-139547145D01*
X265116420Y-140127212D01*
X264111371Y-141438846D01*
X263503235Y-142988466D01*
X263277564Y-144823117D01*
X263313247Y-145997659D01*
X263639509Y-147906170D01*
X264318937Y-149461551D01*
X265378306Y-150699945D01*
X266844392Y-151657496D01*
X267811250Y-152069289D01*
X268454185Y-152221185D01*
X269454184Y-152355145D01*
X270728294Y-152469229D01*
X272193564Y-152561495D01*
X273767042Y-152630003D01*
X275365774Y-152672812D01*
X276906808Y-152687982D01*
X278307193Y-152673570D01*
X279483976Y-152627638D01*
X280354204Y-152548244D01*
X280834926Y-152433446D01*
X280900239Y-152375523D01*
X280964924Y-151934087D01*
X280987674Y-151164797D01*
X280968825Y-150372996D01*
X280892250Y-148748750D01*
X274923250Y-148621750D01*
X272721813Y-148563892D01*
X270999214Y-148493258D01*
X269726406Y-148407839D01*
X268874340Y-148305628D01*
X268413969Y-148184616D01*
X268385380Y-148169720D01*
X267667063Y-147478338D01*
X267209104Y-146417558D01*
X267049250Y-145082370D01*
X267113978Y-144176872D01*
X267363587Y-143524109D01*
X267747750Y-143024272D01*
X268310927Y-142524137D01*
X269019927Y-142169575D01*
X269962876Y-141939680D01*
X271227898Y-141813547D01*
X272903118Y-141770270D01*
X273035649Y-141769809D01*
X274953463Y-141697896D01*
X276475205Y-141473227D01*
X277697415Y-141067141D01*
X278716633Y-140450973D01*
X279343309Y-139897059D01*
X280248386Y-138734386D01*
X280815243Y-137356437D01*
X281072561Y-135677080D01*
X281093333Y-134641189D01*
X280892706Y-132813156D01*
X280336368Y-131330496D01*
X279399524Y-130153151D01*
X278057381Y-129241062D01*
X277623889Y-129035779D01*
X277116924Y-128832380D01*
X276593189Y-128679473D01*
X275965492Y-128567435D01*
X275146644Y-128486642D01*
X274049452Y-128427472D01*
X272586728Y-128380300D01*
X271430750Y-128352241D01*
X266541250Y-128241538D01*
X266541250Y-132062406D01*
G36*
X290573378Y-135937373D02*
G01*
X289444198Y-138132190D01*
X288315955Y-140325596D01*
X287225837Y-142445265D01*
X286211031Y-144418875D01*
X285308724Y-146174103D01*
X284556101Y-147638624D01*
X283990352Y-148740115D01*
X283892238Y-148931258D01*
X283285217Y-150138462D01*
X282784211Y-151182045D01*
X282425956Y-151981584D01*
X282247188Y-152456657D01*
X282238926Y-152550758D01*
X282539766Y-152614447D01*
X283215917Y-152661950D01*
X284134749Y-152684848D01*
X284365663Y-152685750D01*
X286357409Y-152685750D01*
X288242647Y-148875750D01*
X302243854Y-148875750D01*
X304129092Y-152685750D01*
X306163171Y-152685750D01*
X307234414Y-152663500D01*
X307875468Y-152588158D01*
X308162551Y-152446830D01*
X308197250Y-152341701D01*
X308086889Y-152056282D01*
X307769379Y-151358647D01*
X307265077Y-150290785D01*
X306594344Y-148894686D01*
X305777537Y-147212340D01*
X304835017Y-145285739D01*
X304558697Y-144724366D01*
X300323250Y-144724366D01*
X300082065Y-144751202D01*
X299409757Y-144774700D01*
X298383202Y-144793511D01*
X297079274Y-144806283D01*
X295574846Y-144811663D01*
X295353134Y-144811750D01*
X293650622Y-144810295D01*
X292392089Y-144801232D01*
X291513514Y-144777511D01*
X290950877Y-144732081D01*
X290640157Y-144657892D01*
X290517333Y-144547895D01*
X290518386Y-144395040D01*
X290550859Y-144282926D01*
X290708922Y-143900518D01*
X291053114Y-143138749D01*
X291547362Y-142075082D01*
X292155592Y-140786982D01*
X292841730Y-139351915D01*
X293005216Y-139012426D01*
X295291731Y-134270750D01*
X297807491Y-139453866D01*
X298528823Y-140943680D01*
X299169391Y-142273739D01*
X299697875Y-143378429D01*
X300082955Y-144192134D01*
X300293311Y-144649238D01*
X300323250Y-144724366D01*
X304558697Y-144724366D01*
X303787141Y-143156871D01*
X302654268Y-140867726D01*
X301831732Y-139212824D01*
X295466214Y-126427997D01*
X290573378Y-135937373D01*
G37*
X290573378Y-135937373D02*
X289444198Y-138132190D01*
X288315955Y-140325596D01*
X287225837Y-142445265D01*
X286211031Y-144418875D01*
X285308724Y-146174103D01*
X284556101Y-147638624D01*
X283990352Y-148740115D01*
X283892238Y-148931258D01*
X283285217Y-150138462D01*
X282784211Y-151182045D01*
X282425956Y-151981584D01*
X282247188Y-152456657D01*
X282238926Y-152550758D01*
X282539766Y-152614447D01*
X283215917Y-152661950D01*
X284134749Y-152684848D01*
X284365663Y-152685750D01*
X286357409Y-152685750D01*
X288242647Y-148875750D01*
X302243854Y-148875750D01*
X304129092Y-152685750D01*
X306163171Y-152685750D01*
X307234414Y-152663500D01*
X307875468Y-152588158D01*
X308162551Y-152446830D01*
X308197250Y-152341701D01*
X308086889Y-152056282D01*
X307769379Y-151358647D01*
X307265077Y-150290785D01*
X306594344Y-148894686D01*
X305777537Y-147212340D01*
X304835017Y-145285739D01*
X304558697Y-144724366D01*
X300323250Y-144724366D01*
X300082065Y-144751202D01*
X299409757Y-144774700D01*
X298383202Y-144793511D01*
X297079274Y-144806283D01*
X295574846Y-144811663D01*
X295353134Y-144811750D01*
X293650622Y-144810295D01*
X292392089Y-144801232D01*
X291513514Y-144777511D01*
X290950877Y-144732081D01*
X290640157Y-144657892D01*
X290517333Y-144547895D01*
X290518386Y-144395040D01*
X290550859Y-144282926D01*
X290708922Y-143900518D01*
X291053114Y-143138749D01*
X291547362Y-142075082D01*
X292155592Y-140786982D01*
X292841730Y-139351915D01*
X293005216Y-139012426D01*
X295291731Y-134270750D01*
X297807491Y-139453866D01*
X298528823Y-140943680D01*
X299169391Y-142273739D01*
X299697875Y-143378429D01*
X300082955Y-144192134D01*
X300293311Y-144649238D01*
X300323250Y-144724366D01*
X304558697Y-144724366D01*
X303787141Y-143156871D01*
X302654268Y-140867726D01*
X301831732Y-139212824D01*
X295466214Y-126427997D01*
X290573378Y-135937373D01*
G36*
X322230750Y-128367232D02*
G01*
X319967632Y-128408997D01*
X318149002Y-128460982D01*
X316711348Y-128533286D01*
X315591158Y-128636008D01*
X314724921Y-128779248D01*
X314049125Y-128973107D01*
X313500257Y-129227683D01*
X313014807Y-129553077D01*
X312597473Y-129899137D01*
X311702798Y-130897647D01*
X311187045Y-132045299D01*
X310995515Y-133473958D01*
X310991250Y-133771290D01*
X311067140Y-134945369D01*
X311347764Y-135839679D01*
X311912551Y-136666754D01*
X312189151Y-136976558D01*
X312816982Y-137650367D01*
X312268427Y-137824472D01*
X311493206Y-138245916D01*
X310642200Y-138977098D01*
X309865469Y-139872721D01*
X309405269Y-140596701D01*
X309088589Y-141391107D01*
X308884653Y-142395504D01*
X308766609Y-143748681D01*
X308756541Y-143949551D01*
X308760829Y-145914357D01*
X308998155Y-147511392D01*
X309497742Y-148838206D01*
X310288811Y-149992348D01*
X310698626Y-150432736D01*
X311268815Y-150973218D01*
X311827219Y-151410782D01*
X312434851Y-151757407D01*
X313152721Y-152025068D01*
X314041841Y-152225743D01*
X315163222Y-152371411D01*
X316577876Y-152474047D01*
X318346814Y-152545631D01*
X320531048Y-152598138D01*
X321849750Y-152621854D01*
X329025250Y-152742590D01*
X329025250Y-148621750D01*
X325215250Y-148621750D01*
X320237137Y-148621750D01*
X318440316Y-148614934D01*
X317074716Y-148590790D01*
X316063693Y-148543769D01*
X315330606Y-148468322D01*
X314798812Y-148358902D01*
X314391667Y-148209960D01*
X314362916Y-148196518D01*
X313499249Y-147526227D01*
X312905078Y-146538608D01*
X312582092Y-145348011D01*
X312531983Y-144068784D01*
X312756442Y-142815278D01*
X313257161Y-141701842D01*
X314035829Y-140842824D01*
X314251976Y-140694768D01*
X314602413Y-140497488D01*
X314979347Y-140349099D01*
X315461919Y-140240685D01*
X316129267Y-140163331D01*
X317060531Y-140108122D01*
X318334850Y-140066143D01*
X320031364Y-140028478D01*
X320195349Y-140025234D01*
X325215250Y-139926436D01*
X325215250Y-148621750D01*
X329025250Y-148621750D01*
X329025250Y-132111750D01*
X325215250Y-132111750D01*
X325215250Y-136175750D01*
X320516250Y-136175750D01*
X318850952Y-136172183D01*
X317617805Y-136156552D01*
X316740983Y-136121458D01*
X316144657Y-136059504D01*
X315753001Y-135963291D01*
X315490188Y-135825423D01*
X315309250Y-135667750D01*
X314913840Y-134957605D01*
X314811272Y-134051561D01*
X315025656Y-133184817D01*
X315049889Y-133137768D01*
X315346516Y-132780691D01*
X315843982Y-132511968D01*
X316603483Y-132321157D01*
X317686218Y-132197812D01*
X319153383Y-132131491D01*
X321062153Y-132111750D01*
X325215250Y-132111750D01*
X329025250Y-132111750D01*
X329025250Y-128258741D01*
X322230750Y-128367232D01*
G37*
X322230750Y-128367232D02*
X319967632Y-128408997D01*
X318149002Y-128460982D01*
X316711348Y-128533286D01*
X315591158Y-128636008D01*
X314724921Y-128779248D01*
X314049125Y-128973107D01*
X313500257Y-129227683D01*
X313014807Y-129553077D01*
X312597473Y-129899137D01*
X311702798Y-130897647D01*
X311187045Y-132045299D01*
X310995515Y-133473958D01*
X310991250Y-133771290D01*
X311067140Y-134945369D01*
X311347764Y-135839679D01*
X311912551Y-136666754D01*
X312189151Y-136976558D01*
X312816982Y-137650367D01*
X312268427Y-137824472D01*
X311493206Y-138245916D01*
X310642200Y-138977098D01*
X309865469Y-139872721D01*
X309405269Y-140596701D01*
X309088589Y-141391107D01*
X308884653Y-142395504D01*
X308766609Y-143748681D01*
X308756541Y-143949551D01*
X308760829Y-145914357D01*
X308998155Y-147511392D01*
X309497742Y-148838206D01*
X310288811Y-149992348D01*
X310698626Y-150432736D01*
X311268815Y-150973218D01*
X311827219Y-151410782D01*
X312434851Y-151757407D01*
X313152721Y-152025068D01*
X314041841Y-152225743D01*
X315163222Y-152371411D01*
X316577876Y-152474047D01*
X318346814Y-152545631D01*
X320531048Y-152598138D01*
X321849750Y-152621854D01*
X329025250Y-152742590D01*
X329025250Y-148621750D01*
X325215250Y-148621750D01*
X320237137Y-148621750D01*
X318440316Y-148614934D01*
X317074716Y-148590790D01*
X316063693Y-148543769D01*
X315330606Y-148468322D01*
X314798812Y-148358902D01*
X314391667Y-148209960D01*
X314362916Y-148196518D01*
X313499249Y-147526227D01*
X312905078Y-146538608D01*
X312582092Y-145348011D01*
X312531983Y-144068784D01*
X312756442Y-142815278D01*
X313257161Y-141701842D01*
X314035829Y-140842824D01*
X314251976Y-140694768D01*
X314602413Y-140497488D01*
X314979347Y-140349099D01*
X315461919Y-140240685D01*
X316129267Y-140163331D01*
X317060531Y-140108122D01*
X318334850Y-140066143D01*
X320031364Y-140028478D01*
X320195349Y-140025234D01*
X325215250Y-139926436D01*
X325215250Y-148621750D01*
X329025250Y-148621750D01*
X329025250Y-132111750D01*
X325215250Y-132111750D01*
X325215250Y-136175750D01*
X320516250Y-136175750D01*
X318850952Y-136172183D01*
X317617805Y-136156552D01*
X316740983Y-136121458D01*
X316144657Y-136059504D01*
X315753001Y-135963291D01*
X315490188Y-135825423D01*
X315309250Y-135667750D01*
X314913840Y-134957605D01*
X314811272Y-134051561D01*
X315025656Y-133184817D01*
X315049889Y-133137768D01*
X315346516Y-132780691D01*
X315843982Y-132511968D01*
X316603483Y-132321157D01*
X317686218Y-132197812D01*
X319153383Y-132131491D01*
X321062153Y-132111750D01*
X325215250Y-132111750D01*
X329025250Y-132111750D01*
X329025250Y-128258741D01*
X322230750Y-128367232D01*
G36*
X123555666Y-128323008D02*
G01*
X122727273Y-128395356D01*
X122103622Y-128501151D01*
X121835800Y-128619249D01*
X121674763Y-128913623D01*
X121321056Y-129614173D01*
X120800325Y-130668377D01*
X120138216Y-132023716D01*
X119360377Y-133627668D01*
X118492453Y-135427714D01*
X117560090Y-137371333D01*
X117463732Y-137572750D01*
X116529650Y-139521151D01*
X115660398Y-141325489D01*
X114881091Y-142934297D01*
X114216844Y-144296110D01*
X113692773Y-145359462D01*
X113333991Y-146072888D01*
X113165614Y-146384921D01*
X113159672Y-146392661D01*
X113012648Y-146213799D01*
X112665812Y-145626168D01*
X112143962Y-144676647D01*
X111471899Y-143412113D01*
X110674423Y-141879444D01*
X109776333Y-140125517D01*
X108802430Y-138197210D01*
X108422960Y-137439161D01*
X103859894Y-128301750D01*
X101869948Y-128301749D01*
X100812659Y-128325265D01*
X100198894Y-128402766D01*
X99966045Y-128544687D01*
X99964828Y-128619249D01*
X100090707Y-128897906D01*
X100418219Y-129575097D01*
X100922654Y-130601589D01*
X101579306Y-131928153D01*
X102363463Y-133505556D01*
X103250419Y-135284568D01*
X104215465Y-137215957D01*
X105233891Y-139250491D01*
X106280989Y-141338940D01*
X107332051Y-143432073D01*
X108362367Y-145480658D01*
X109347230Y-147435463D01*
X110261930Y-149247258D01*
X111081758Y-150866811D01*
X111782007Y-152244891D01*
X112337967Y-153332267D01*
X112724930Y-154079707D01*
X112918186Y-154437980D01*
X112935249Y-154462417D01*
X113058254Y-154242180D01*
X113389852Y-153608784D01*
X113909477Y-152602445D01*
X114596565Y-151263381D01*
X115430549Y-149631810D01*
X116390867Y-147747950D01*
X117456952Y-145652016D01*
X118608239Y-143384228D01*
X119538750Y-141548400D01*
X120741576Y-139170852D01*
X121872850Y-136929214D01*
X122912148Y-134864331D01*
X123839045Y-133017048D01*
X124633115Y-131428212D01*
X125273934Y-130138668D01*
X125741077Y-129189260D01*
X126014120Y-128620836D01*
X126079250Y-128468732D01*
X125850592Y-128356969D01*
X125259195Y-128298782D01*
X124446929Y-128289139D01*
X123555666Y-128323008D01*
G37*
X123555666Y-128323008D02*
X122727273Y-128395356D01*
X122103622Y-128501151D01*
X121835800Y-128619249D01*
X121674763Y-128913623D01*
X121321056Y-129614173D01*
X120800325Y-130668377D01*
X120138216Y-132023716D01*
X119360377Y-133627668D01*
X118492453Y-135427714D01*
X117560090Y-137371333D01*
X117463732Y-137572750D01*
X116529650Y-139521151D01*
X115660398Y-141325489D01*
X114881091Y-142934297D01*
X114216844Y-144296110D01*
X113692773Y-145359462D01*
X113333991Y-146072888D01*
X113165614Y-146384921D01*
X113159672Y-146392661D01*
X113012648Y-146213799D01*
X112665812Y-145626168D01*
X112143962Y-144676647D01*
X111471899Y-143412113D01*
X110674423Y-141879444D01*
X109776333Y-140125517D01*
X108802430Y-138197210D01*
X108422960Y-137439161D01*
X103859894Y-128301750D01*
X101869948Y-128301749D01*
X100812659Y-128325265D01*
X100198894Y-128402766D01*
X99966045Y-128544687D01*
X99964828Y-128619249D01*
X100090707Y-128897906D01*
X100418219Y-129575097D01*
X100922654Y-130601589D01*
X101579306Y-131928153D01*
X102363463Y-133505556D01*
X103250419Y-135284568D01*
X104215465Y-137215957D01*
X105233891Y-139250491D01*
X106280989Y-141338940D01*
X107332051Y-143432073D01*
X108362367Y-145480658D01*
X109347230Y-147435463D01*
X110261930Y-149247258D01*
X111081758Y-150866811D01*
X111782007Y-152244891D01*
X112337967Y-153332267D01*
X112724930Y-154079707D01*
X112918186Y-154437980D01*
X112935249Y-154462417D01*
X113058254Y-154242180D01*
X113389852Y-153608784D01*
X113909477Y-152602445D01*
X114596565Y-151263381D01*
X115430549Y-149631810D01*
X116390867Y-147747950D01*
X117456952Y-145652016D01*
X118608239Y-143384228D01*
X119538750Y-141548400D01*
X120741576Y-139170852D01*
X121872850Y-136929214D01*
X122912148Y-134864331D01*
X123839045Y-133017048D01*
X124633115Y-131428212D01*
X125273934Y-130138668D01*
X125741077Y-129189260D01*
X126014120Y-128620836D01*
X126079250Y-128468732D01*
X125850592Y-128356969D01*
X125259195Y-128298782D01*
X124446929Y-128289139D01*
X123555666Y-128323008D01*
G36*
X201819366Y-128344679D02*
G01*
X201170713Y-128453553D01*
X200839723Y-128617023D01*
X200838280Y-128619250D01*
X200686140Y-128913330D01*
X200340031Y-129613146D01*
X199825412Y-130666268D01*
X199167745Y-132020267D01*
X198392488Y-133622713D01*
X197525101Y-135421178D01*
X196591045Y-137363231D01*
X196490423Y-137572750D01*
X195552529Y-139520793D01*
X194679101Y-141325091D01*
X193895407Y-142934189D01*
X193226714Y-144296632D01*
X192698290Y-145360966D01*
X192335400Y-146075736D01*
X192163314Y-146389488D01*
X192156905Y-146397528D01*
X191978024Y-146262393D01*
X191635860Y-145751521D01*
X191182251Y-144949379D01*
X190747380Y-144100824D01*
X189524467Y-141615342D01*
X192726859Y-135214499D01*
X193556366Y-133547744D01*
X194306030Y-132024594D01*
X194946880Y-130705273D01*
X195449945Y-129650003D01*
X195786253Y-128919006D01*
X195926834Y-128572506D01*
X195929250Y-128557703D01*
X195691333Y-128429029D01*
X195040433Y-128339832D01*
X194070832Y-128302221D01*
X193936694Y-128301750D01*
X191944137Y-128301750D01*
X189824863Y-132876718D01*
X189170531Y-134260171D01*
X188578864Y-135456302D01*
X188084645Y-136399203D01*
X187722657Y-137022966D01*
X187527682Y-137261682D01*
X187512536Y-137258218D01*
X187349301Y-136976013D01*
X187011612Y-136307697D01*
X186536315Y-135329128D01*
X185960256Y-134116167D01*
X185321243Y-132746750D01*
X183323002Y-128428750D01*
X181244126Y-128354977D01*
X180289003Y-128336858D01*
X179565264Y-128353165D01*
X179191548Y-128400107D01*
X179165250Y-128421406D01*
X179272262Y-128676885D01*
X179574753Y-129330333D01*
X180044904Y-130323429D01*
X180654899Y-131597850D01*
X181376919Y-133095274D01*
X182183147Y-134757377D01*
X182388911Y-135180118D01*
X185612572Y-141798629D01*
X184381935Y-144257689D01*
X183151298Y-146716750D01*
X178631446Y-137509250D01*
X174111593Y-128301750D01*
X172066422Y-128301750D01*
X171119354Y-128316205D01*
X170404988Y-128354636D01*
X170043148Y-128409642D01*
X170021250Y-128428087D01*
X170131421Y-128687018D01*
X170445405Y-129346856D01*
X170938412Y-130358282D01*
X171585652Y-131671974D01*
X172362335Y-133238612D01*
X173243671Y-135008876D01*
X174204869Y-136933446D01*
X175221140Y-138963001D01*
X176267692Y-141048220D01*
X177319736Y-143139783D01*
X178352481Y-145188370D01*
X179341137Y-147144660D01*
X180260915Y-148959333D01*
X181087023Y-150583068D01*
X181794671Y-151966544D01*
X182359069Y-153060442D01*
X182755428Y-153815441D01*
X182958956Y-154182221D01*
X182980050Y-154209750D01*
X183129475Y-153993385D01*
X183465479Y-153391070D01*
X183950991Y-152472976D01*
X184548940Y-151309272D01*
X185222256Y-149970128D01*
X185261250Y-149891750D01*
X185937572Y-148545125D01*
X186540500Y-147370256D01*
X187032993Y-146437251D01*
X187378006Y-145816217D01*
X187538495Y-145577264D01*
X187541280Y-145576601D01*
X187686107Y-145795985D01*
X188008623Y-146404331D01*
X188472771Y-147329759D01*
X189042491Y-148500387D01*
X189675498Y-149831101D01*
X190317987Y-151187906D01*
X190892195Y-152385124D01*
X191361204Y-153347014D01*
X191688094Y-153997835D01*
X191834498Y-154260313D01*
X191975094Y-154073671D01*
X192323223Y-153473089D01*
X192857904Y-152498329D01*
X193558154Y-151189152D01*
X194402992Y-149585318D01*
X195371435Y-147726590D01*
X196442502Y-145652729D01*
X197595211Y-143403495D01*
X198469250Y-141687313D01*
X199670396Y-139320051D01*
X200802149Y-137084328D01*
X201843569Y-135021865D01*
X202773715Y-133174385D01*
X203571647Y-131583610D01*
X204216422Y-130291261D01*
X204687100Y-129339060D01*
X204962739Y-128768730D01*
X205028375Y-128619249D01*
X204848208Y-128455143D01*
X204300103Y-128345633D01*
X203521181Y-128290719D01*
X202648562Y-128290401D01*
X201819366Y-128344679D01*
G37*
X201819366Y-128344679D02*
X201170713Y-128453553D01*
X200839723Y-128617023D01*
X200838280Y-128619250D01*
X200686140Y-128913330D01*
X200340031Y-129613146D01*
X199825412Y-130666268D01*
X199167745Y-132020267D01*
X198392488Y-133622713D01*
X197525101Y-135421178D01*
X196591045Y-137363231D01*
X196490423Y-137572750D01*
X195552529Y-139520793D01*
X194679101Y-141325091D01*
X193895407Y-142934189D01*
X193226714Y-144296632D01*
X192698290Y-145360966D01*
X192335400Y-146075736D01*
X192163314Y-146389488D01*
X192156905Y-146397528D01*
X191978024Y-146262393D01*
X191635860Y-145751521D01*
X191182251Y-144949379D01*
X190747380Y-144100824D01*
X189524467Y-141615342D01*
X192726859Y-135214499D01*
X193556366Y-133547744D01*
X194306030Y-132024594D01*
X194946880Y-130705273D01*
X195449945Y-129650003D01*
X195786253Y-128919006D01*
X195926834Y-128572506D01*
X195929250Y-128557703D01*
X195691333Y-128429029D01*
X195040433Y-128339832D01*
X194070832Y-128302221D01*
X193936694Y-128301750D01*
X191944137Y-128301750D01*
X189824863Y-132876718D01*
X189170531Y-134260171D01*
X188578864Y-135456302D01*
X188084645Y-136399203D01*
X187722657Y-137022966D01*
X187527682Y-137261682D01*
X187512536Y-137258218D01*
X187349301Y-136976013D01*
X187011612Y-136307697D01*
X186536315Y-135329128D01*
X185960256Y-134116167D01*
X185321243Y-132746750D01*
X183323002Y-128428750D01*
X181244126Y-128354977D01*
X180289003Y-128336858D01*
X179565264Y-128353165D01*
X179191548Y-128400107D01*
X179165250Y-128421406D01*
X179272262Y-128676885D01*
X179574753Y-129330333D01*
X180044904Y-130323429D01*
X180654899Y-131597850D01*
X181376919Y-133095274D01*
X182183147Y-134757377D01*
X182388911Y-135180118D01*
X185612572Y-141798629D01*
X184381935Y-144257689D01*
X183151298Y-146716750D01*
X178631446Y-137509250D01*
X174111593Y-128301750D01*
X172066422Y-128301750D01*
X171119354Y-128316205D01*
X170404988Y-128354636D01*
X170043148Y-128409642D01*
X170021250Y-128428087D01*
X170131421Y-128687018D01*
X170445405Y-129346856D01*
X170938412Y-130358282D01*
X171585652Y-131671974D01*
X172362335Y-133238612D01*
X173243671Y-135008876D01*
X174204869Y-136933446D01*
X175221140Y-138963001D01*
X176267692Y-141048220D01*
X177319736Y-143139783D01*
X178352481Y-145188370D01*
X179341137Y-147144660D01*
X180260915Y-148959333D01*
X181087023Y-150583068D01*
X181794671Y-151966544D01*
X182359069Y-153060442D01*
X182755428Y-153815441D01*
X182958956Y-154182221D01*
X182980050Y-154209750D01*
X183129475Y-153993385D01*
X183465479Y-153391070D01*
X183950991Y-152472976D01*
X184548940Y-151309272D01*
X185222256Y-149970128D01*
X185261250Y-149891750D01*
X185937572Y-148545125D01*
X186540500Y-147370256D01*
X187032993Y-146437251D01*
X187378006Y-145816217D01*
X187538495Y-145577264D01*
X187541280Y-145576601D01*
X187686107Y-145795985D01*
X188008623Y-146404331D01*
X188472771Y-147329759D01*
X189042491Y-148500387D01*
X189675498Y-149831101D01*
X190317987Y-151187906D01*
X190892195Y-152385124D01*
X191361204Y-153347014D01*
X191688094Y-153997835D01*
X191834498Y-154260313D01*
X191975094Y-154073671D01*
X192323223Y-153473089D01*
X192857904Y-152498329D01*
X193558154Y-151189152D01*
X194402992Y-149585318D01*
X195371435Y-147726590D01*
X196442502Y-145652729D01*
X197595211Y-143403495D01*
X198469250Y-141687313D01*
X199670396Y-139320051D01*
X200802149Y-137084328D01*
X201843569Y-135021865D01*
X202773715Y-133174385D01*
X203571647Y-131583610D01*
X204216422Y-130291261D01*
X204687100Y-129339060D01*
X204962739Y-128768730D01*
X205028375Y-128619249D01*
X204848208Y-128455143D01*
X204300103Y-128345633D01*
X203521181Y-128290719D01*
X202648562Y-128290401D01*
X201819366Y-128344679D01*
D11*
G36*
X197125880Y-202547276D02*
G01*
X197506593Y-202623004D01*
X197916249Y-202792689D01*
X198284929Y-203039034D01*
X198598466Y-203352571D01*
X198844811Y-203721251D01*
X199014496Y-204130907D01*
X199101000Y-204565796D01*
X199101000Y-205009204D01*
X199014496Y-205444093D01*
X198844811Y-205853749D01*
X198598466Y-206222429D01*
X198284929Y-206535966D01*
X197916249Y-206782311D01*
X197506593Y-206951996D01*
X197125880Y-207027724D01*
X197071705Y-207038500D01*
X196628295Y-207038500D01*
X196574120Y-207027724D01*
X196193407Y-206951996D01*
X195783751Y-206782311D01*
X195415071Y-206535966D01*
X195101534Y-206222429D01*
X194855189Y-205853749D01*
X194685504Y-205444093D01*
X194599000Y-205009204D01*
X194599000Y-204565796D01*
X194685504Y-204130907D01*
X194855189Y-203721251D01*
X195101534Y-203352571D01*
X195415071Y-203039034D01*
X195783751Y-202792689D01*
X196193407Y-202623004D01*
X196574120Y-202547276D01*
X196628295Y-202536500D01*
X197071705Y-202536500D01*
X197125880Y-202547276D01*
G37*
G36*
X39169630Y-179528526D02*
G01*
X39550343Y-179604254D01*
X39959999Y-179773939D01*
X40328679Y-180020284D01*
X40642216Y-180333821D01*
X40888561Y-180702501D01*
X41058246Y-181112157D01*
X41144750Y-181547046D01*
X41144750Y-181990454D01*
X41058246Y-182425343D01*
X40888561Y-182834999D01*
X40642216Y-183203679D01*
X40328679Y-183517216D01*
X39959999Y-183763561D01*
X39550343Y-183933246D01*
X39169630Y-184008974D01*
X39115455Y-184019750D01*
X38672045Y-184019750D01*
X38617870Y-184008974D01*
X38237157Y-183933246D01*
X37827501Y-183763561D01*
X37458821Y-183517216D01*
X37145284Y-183203679D01*
X36898939Y-182834999D01*
X36729254Y-182425343D01*
X36642750Y-181990454D01*
X36642750Y-181547046D01*
X36729254Y-181112157D01*
X36898939Y-180702501D01*
X37145284Y-180333821D01*
X37458821Y-180020284D01*
X37827501Y-179773939D01*
X38237157Y-179604254D01*
X38617870Y-179528526D01*
X38672045Y-179517750D01*
X39115455Y-179517750D01*
X39169630Y-179528526D01*
G37*
G36*
X378894630Y-178734776D02*
G01*
X379275343Y-178810504D01*
X379684999Y-178980189D01*
X380053679Y-179226534D01*
X380367216Y-179540071D01*
X380613561Y-179908751D01*
X380783246Y-180318407D01*
X380869750Y-180753296D01*
X380869750Y-181196704D01*
X380783246Y-181631593D01*
X380613561Y-182041249D01*
X380367216Y-182409929D01*
X380053679Y-182723466D01*
X379684999Y-182969811D01*
X379275343Y-183139496D01*
X378894630Y-183215224D01*
X378840455Y-183226000D01*
X378397045Y-183226000D01*
X378342870Y-183215224D01*
X377962157Y-183139496D01*
X377552501Y-182969811D01*
X377183821Y-182723466D01*
X376870284Y-182409929D01*
X376623939Y-182041249D01*
X376454254Y-181631593D01*
X376367750Y-181196704D01*
X376367750Y-180753296D01*
X376454254Y-180318407D01*
X376623939Y-179908751D01*
X376870284Y-179540071D01*
X377183821Y-179226534D01*
X377552501Y-178980189D01*
X377962157Y-178810504D01*
X378342870Y-178734776D01*
X378397045Y-178724000D01*
X378840455Y-178724000D01*
X378894630Y-178734776D01*
G37*
G36*
X127275880Y-178734776D02*
G01*
X127656593Y-178810504D01*
X128066249Y-178980189D01*
X128434929Y-179226534D01*
X128748466Y-179540071D01*
X128994811Y-179908751D01*
X129164496Y-180318407D01*
X129251000Y-180753296D01*
X129251000Y-181196704D01*
X129164496Y-181631593D01*
X128994811Y-182041249D01*
X128748466Y-182409929D01*
X128434929Y-182723466D01*
X128066249Y-182969811D01*
X127656593Y-183139496D01*
X127275880Y-183215224D01*
X127221705Y-183226000D01*
X126778295Y-183226000D01*
X126724120Y-183215224D01*
X126343407Y-183139496D01*
X125933751Y-182969811D01*
X125565071Y-182723466D01*
X125251534Y-182409929D01*
X125005189Y-182041249D01*
X124835504Y-181631593D01*
X124749000Y-181196704D01*
X124749000Y-180753296D01*
X124835504Y-180318407D01*
X125005189Y-179908751D01*
X125251534Y-179540071D01*
X125565071Y-179226534D01*
X125933751Y-178980189D01*
X126343407Y-178810504D01*
X126724120Y-178734776D01*
X126778295Y-178724000D01*
X127221705Y-178724000D01*
X127275880Y-178734776D01*
G37*
G36*
X266975880Y-178734776D02*
G01*
X267356593Y-178810504D01*
X267766249Y-178980189D01*
X268134929Y-179226534D01*
X268448466Y-179540071D01*
X268694811Y-179908751D01*
X268864496Y-180318407D01*
X268951000Y-180753296D01*
X268951000Y-181196704D01*
X268864496Y-181631593D01*
X268694811Y-182041249D01*
X268448466Y-182409929D01*
X268134929Y-182723466D01*
X267766249Y-182969811D01*
X267356593Y-183139496D01*
X266975880Y-183215224D01*
X266921705Y-183226000D01*
X266478295Y-183226000D01*
X266424120Y-183215224D01*
X266043407Y-183139496D01*
X265633751Y-182969811D01*
X265265071Y-182723466D01*
X264951534Y-182409929D01*
X264705189Y-182041249D01*
X264535504Y-181631593D01*
X264449000Y-181196704D01*
X264449000Y-180753296D01*
X264535504Y-180318407D01*
X264705189Y-179908751D01*
X264951534Y-179540071D01*
X265265071Y-179226534D01*
X265633751Y-178980189D01*
X266043407Y-178810504D01*
X266424120Y-178734776D01*
X266478295Y-178724000D01*
X266921705Y-178724000D01*
X266975880Y-178734776D01*
G37*
G36*
X342654406Y-98860294D02*
G01*
X343375390Y-99003706D01*
X344167222Y-99331693D01*
X344879851Y-99807857D01*
X345485893Y-100413899D01*
X345962057Y-101126528D01*
X346290044Y-101918360D01*
X346457250Y-102758964D01*
X346457250Y-103616036D01*
X346290044Y-104456640D01*
X345962057Y-105248472D01*
X345485893Y-105961101D01*
X344879851Y-106567143D01*
X344167222Y-107043307D01*
X343375390Y-107371294D01*
X342654406Y-107514706D01*
X342534787Y-107538500D01*
X341677713Y-107538500D01*
X341558094Y-107514706D01*
X340837110Y-107371294D01*
X340045278Y-107043307D01*
X339332649Y-106567143D01*
X338726607Y-105961101D01*
X338250443Y-105248472D01*
X337922456Y-104456640D01*
X337755250Y-103616036D01*
X337755250Y-102758964D01*
X337922456Y-101918360D01*
X338250443Y-101126528D01*
X338726607Y-100413899D01*
X339332649Y-99807857D01*
X340045278Y-99331693D01*
X340837110Y-99003706D01*
X341558094Y-98860294D01*
X341677713Y-98836500D01*
X342534787Y-98836500D01*
X342654406Y-98860294D01*
G37*
G36*
X75954406Y-98860294D02*
G01*
X76675390Y-99003706D01*
X77467222Y-99331693D01*
X78179851Y-99807857D01*
X78785893Y-100413899D01*
X79262057Y-101126528D01*
X79590044Y-101918360D01*
X79757250Y-102758964D01*
X79757250Y-103616036D01*
X79590044Y-104456640D01*
X79262057Y-105248472D01*
X78785893Y-105961101D01*
X78179851Y-106567143D01*
X77467222Y-107043307D01*
X76675390Y-107371294D01*
X75954406Y-107514706D01*
X75834787Y-107538500D01*
X74977713Y-107538500D01*
X74858094Y-107514706D01*
X74137110Y-107371294D01*
X73345278Y-107043307D01*
X72632649Y-106567143D01*
X72026607Y-105961101D01*
X71550443Y-105248472D01*
X71222456Y-104456640D01*
X71055250Y-103616036D01*
X71055250Y-102758964D01*
X71222456Y-101918360D01*
X71550443Y-101126528D01*
X72026607Y-100413899D01*
X72632649Y-99807857D01*
X73345278Y-99331693D01*
X74137110Y-99003706D01*
X74858094Y-98860294D01*
X74977713Y-98836500D01*
X75834787Y-98836500D01*
X75954406Y-98860294D01*
G37*
G36*
X390007130Y-93009776D02*
G01*
X390387843Y-93085504D01*
X390797499Y-93255189D01*
X391166179Y-93501534D01*
X391479716Y-93815071D01*
X391726061Y-94183751D01*
X391895746Y-94593407D01*
X391982250Y-95028296D01*
X391982250Y-95471704D01*
X391895746Y-95906593D01*
X391726061Y-96316249D01*
X391479716Y-96684929D01*
X391166179Y-96998466D01*
X390797499Y-97244811D01*
X390387843Y-97414496D01*
X390007130Y-97490224D01*
X389952955Y-97501000D01*
X389509545Y-97501000D01*
X389455370Y-97490224D01*
X389074657Y-97414496D01*
X388665001Y-97244811D01*
X388296321Y-96998466D01*
X387982784Y-96684929D01*
X387736439Y-96316249D01*
X387566754Y-95906593D01*
X387480250Y-95471704D01*
X387480250Y-95028296D01*
X387566754Y-94593407D01*
X387736439Y-94183751D01*
X387982784Y-93815071D01*
X388296321Y-93501534D01*
X388665001Y-93255189D01*
X389074657Y-93085504D01*
X389455370Y-93009776D01*
X389509545Y-92999000D01*
X389952955Y-92999000D01*
X390007130Y-93009776D01*
G37*
G36*
X28057130Y-93009776D02*
G01*
X28437843Y-93085504D01*
X28847499Y-93255189D01*
X29216179Y-93501534D01*
X29529716Y-93815071D01*
X29776061Y-94183751D01*
X29945746Y-94593407D01*
X30032250Y-95028296D01*
X30032250Y-95471704D01*
X29945746Y-95906593D01*
X29776061Y-96316249D01*
X29529716Y-96684929D01*
X29216179Y-96998466D01*
X28847499Y-97244811D01*
X28437843Y-97414496D01*
X28057130Y-97490224D01*
X28002955Y-97501000D01*
X27559545Y-97501000D01*
X27505370Y-97490224D01*
X27124657Y-97414496D01*
X26715001Y-97244811D01*
X26346321Y-96998466D01*
X26032784Y-96684929D01*
X25786439Y-96316249D01*
X25616754Y-95906593D01*
X25530250Y-95471704D01*
X25530250Y-95028296D01*
X25616754Y-94593407D01*
X25786439Y-94183751D01*
X26032784Y-93815071D01*
X26346321Y-93501534D01*
X26715001Y-93255189D01*
X27124657Y-93085504D01*
X27505370Y-93009776D01*
X27559545Y-92999000D01*
X28002955Y-92999000D01*
X28057130Y-93009776D01*
G37*
G36*
X162200880Y-93009776D02*
G01*
X162581593Y-93085504D01*
X162991249Y-93255189D01*
X163359929Y-93501534D01*
X163673466Y-93815071D01*
X163919811Y-94183751D01*
X164089496Y-94593407D01*
X164176000Y-95028296D01*
X164176000Y-95471704D01*
X164089496Y-95906593D01*
X163919811Y-96316249D01*
X163673466Y-96684929D01*
X163359929Y-96998466D01*
X162991249Y-97244811D01*
X162581593Y-97414496D01*
X162200880Y-97490224D01*
X162146705Y-97501000D01*
X161703295Y-97501000D01*
X161649120Y-97490224D01*
X161268407Y-97414496D01*
X160858751Y-97244811D01*
X160490071Y-96998466D01*
X160176534Y-96684929D01*
X159930189Y-96316249D01*
X159760504Y-95906593D01*
X159674000Y-95471704D01*
X159674000Y-95028296D01*
X159760504Y-94593407D01*
X159930189Y-94183751D01*
X160176534Y-93815071D01*
X160490071Y-93501534D01*
X160858751Y-93255189D01*
X161268407Y-93085504D01*
X161649120Y-93009776D01*
X161703295Y-92999000D01*
X162146705Y-92999000D01*
X162200880Y-93009776D01*
G37*
G36*
X232050880Y-93009776D02*
G01*
X232431593Y-93085504D01*
X232841249Y-93255189D01*
X233209929Y-93501534D01*
X233523466Y-93815071D01*
X233769811Y-94183751D01*
X233939496Y-94593407D01*
X234026000Y-95028296D01*
X234026000Y-95471704D01*
X233939496Y-95906593D01*
X233769811Y-96316249D01*
X233523466Y-96684929D01*
X233209929Y-96998466D01*
X232841249Y-97244811D01*
X232431593Y-97414496D01*
X232050880Y-97490224D01*
X231996705Y-97501000D01*
X231553295Y-97501000D01*
X231499120Y-97490224D01*
X231118407Y-97414496D01*
X230708751Y-97244811D01*
X230340071Y-96998466D01*
X230026534Y-96684929D01*
X229780189Y-96316249D01*
X229610504Y-95906593D01*
X229524000Y-95471704D01*
X229524000Y-95028296D01*
X229610504Y-94593407D01*
X229780189Y-94183751D01*
X230026534Y-93815071D01*
X230340071Y-93501534D01*
X230708751Y-93255189D01*
X231118407Y-93085504D01*
X231499120Y-93009776D01*
X231553295Y-92999000D01*
X231996705Y-92999000D01*
X232050880Y-93009776D01*
G37*
G36*
X28057130Y-74753526D02*
G01*
X28437843Y-74829254D01*
X28847499Y-74998939D01*
X29216179Y-75245284D01*
X29529716Y-75558821D01*
X29776061Y-75927501D01*
X29945746Y-76337157D01*
X30032250Y-76772046D01*
X30032250Y-77215454D01*
X29945746Y-77650343D01*
X29776061Y-78059999D01*
X29529716Y-78428679D01*
X29216179Y-78742216D01*
X28847499Y-78988561D01*
X28437843Y-79158246D01*
X28057130Y-79233974D01*
X28002955Y-79244750D01*
X27559545Y-79244750D01*
X27505370Y-79233974D01*
X27124657Y-79158246D01*
X26715001Y-78988561D01*
X26346321Y-78742216D01*
X26032784Y-78428679D01*
X25786439Y-78059999D01*
X25616754Y-77650343D01*
X25530250Y-77215454D01*
X25530250Y-76772046D01*
X25616754Y-76337157D01*
X25786439Y-75927501D01*
X26032784Y-75558821D01*
X26346321Y-75245284D01*
X26715001Y-74998939D01*
X27124657Y-74829254D01*
X27505370Y-74753526D01*
X27559545Y-74742750D01*
X28002955Y-74742750D01*
X28057130Y-74753526D01*
G37*
G36*
X390007130Y-74753526D02*
G01*
X390387843Y-74829254D01*
X390797499Y-74998939D01*
X391166179Y-75245284D01*
X391479716Y-75558821D01*
X391726061Y-75927501D01*
X391895746Y-76337157D01*
X391982250Y-76772046D01*
X391982250Y-77215454D01*
X391895746Y-77650343D01*
X391726061Y-78059999D01*
X391479716Y-78428679D01*
X391166179Y-78742216D01*
X390797499Y-78988561D01*
X390387843Y-79158246D01*
X390007130Y-79233974D01*
X389952955Y-79244750D01*
X389509545Y-79244750D01*
X389455370Y-79233974D01*
X389074657Y-79158246D01*
X388665001Y-78988561D01*
X388296321Y-78742216D01*
X387982784Y-78428679D01*
X387736439Y-78059999D01*
X387566754Y-77650343D01*
X387480250Y-77215454D01*
X387480250Y-76772046D01*
X387566754Y-76337157D01*
X387736439Y-75927501D01*
X387982784Y-75558821D01*
X388296321Y-75245284D01*
X388665001Y-74998939D01*
X389074657Y-74829254D01*
X389455370Y-74753526D01*
X389509545Y-74742750D01*
X389952955Y-74742750D01*
X390007130Y-74753526D01*
G37*
M02*
