%FSLAX45Y45*%
G04 Gerber Fmt 4.5, Leading zero omitted, Abs format (unit mm)*
G04 Created by KiCad (PCBNEW (5.1.6)-1) date 2020-10-24 16:48:19*
%MOMM*%
%LPD*%
G01*
G04 APERTURE LIST*
%TA.AperFunction,Profile*%
%ADD10C,0.050000*%
%TD*%
%ADD11C,0.200000*%
%ADD12C,0.300000*%
G04 APERTURE END LIST*
D10*
X39449375Y-20081875D02*
G75*
G02*
X39131875Y-20399375I-317500J0D01*
G01*
X2619375Y-20399375D02*
X11544300Y-20399375D01*
X39131875Y-7302500D02*
G75*
G02*
X39449375Y-7620000I0J-317500D01*
G01*
X39131875Y-20399375D02*
X27860625Y-20399375D01*
X27860625Y-20399375D02*
X21113750Y-21828125D01*
X18256250Y-21828125D02*
X21113750Y-21828125D01*
X11544300Y-20399375D02*
X18256250Y-21828125D01*
X2301875Y-7620000D02*
G75*
G02*
X2619375Y-7302500I317500J0D01*
G01*
X2619375Y-7302500D02*
X39131875Y-7302500D01*
X2301875Y-7620000D02*
X2301875Y-20081875D01*
X39449375Y-7620000D02*
X39449375Y-20081875D01*
X2619375Y-20399375D02*
G75*
G02*
X2301875Y-20081875I0J317500D01*
G01*
D11*
D12*
X2585803Y-22296339D02*
X2585803Y-21996339D01*
X2657232Y-21996339D01*
X2700089Y-22010625D01*
X2728661Y-22039197D01*
X2742946Y-22067768D01*
X2757232Y-22124911D01*
X2757232Y-22167768D01*
X2742946Y-22224911D01*
X2728661Y-22253482D01*
X2700089Y-22282054D01*
X2657232Y-22296339D01*
X2585803Y-22296339D01*
X2885803Y-22296339D02*
X2885803Y-22096339D01*
X2885803Y-22153482D02*
X2900089Y-22124911D01*
X2914375Y-22110625D01*
X2942946Y-22096339D01*
X2971518Y-22096339D01*
X3071518Y-22296339D02*
X3071518Y-22096339D01*
X3071518Y-21996339D02*
X3057232Y-22010625D01*
X3071518Y-22024911D01*
X3085803Y-22010625D01*
X3071518Y-21996339D01*
X3071518Y-22024911D01*
X3257232Y-22296339D02*
X3228661Y-22282054D01*
X3214375Y-22253482D01*
X3214375Y-21996339D01*
X3414375Y-22296339D02*
X3385803Y-22282054D01*
X3371518Y-22253482D01*
X3371518Y-21996339D01*
X3757232Y-22296339D02*
X3757232Y-21996339D01*
X3857232Y-22210625D01*
X3957232Y-21996339D01*
X3957232Y-22296339D01*
X4228661Y-22296339D02*
X4228661Y-22139197D01*
X4214375Y-22110625D01*
X4185803Y-22096339D01*
X4128661Y-22096339D01*
X4100089Y-22110625D01*
X4228661Y-22282054D02*
X4200089Y-22296339D01*
X4128661Y-22296339D01*
X4100089Y-22282054D01*
X4085803Y-22253482D01*
X4085803Y-22224911D01*
X4100089Y-22196339D01*
X4128661Y-22182054D01*
X4200089Y-22182054D01*
X4228661Y-22167768D01*
X4371518Y-22096339D02*
X4371518Y-22396339D01*
X4371518Y-22110625D02*
X4400089Y-22096339D01*
X4457232Y-22096339D01*
X4485803Y-22110625D01*
X4500089Y-22124911D01*
X4514375Y-22153482D01*
X4514375Y-22239197D01*
X4500089Y-22267768D01*
X4485803Y-22282054D01*
X4457232Y-22296339D01*
X4400089Y-22296339D01*
X4371518Y-22282054D01*
X4642946Y-22267768D02*
X4657232Y-22282054D01*
X4642946Y-22296339D01*
X4628661Y-22282054D01*
X4642946Y-22267768D01*
X4642946Y-22296339D01*
X4642946Y-22110625D02*
X4657232Y-22124911D01*
X4642946Y-22139197D01*
X4628661Y-22124911D01*
X4642946Y-22110625D01*
X4642946Y-22139197D01*
M02*
