G04 #@! TF.GenerationSoftware,KiCad,Pcbnew,(5.1.6)-1*
G04 #@! TF.CreationDate,2020-10-24T16:48:20-05:00*
G04 #@! TF.ProjectId,basketweave_bottom,6261736b-6574-4776-9561-76655f626f74,rev?*
G04 #@! TF.SameCoordinates,Original*
G04 #@! TF.FileFunction,Copper,L1,Top*
G04 #@! TF.FilePolarity,Positive*
%FSLAX46Y46*%
G04 Gerber Fmt 4.6, Leading zero omitted, Abs format (unit mm)*
G04 Created by KiCad (PCBNEW (5.1.6)-1) date 2020-10-24 16:48:20*
%MOMM*%
%LPD*%
G01*
G04 APERTURE LIST*
G04 #@! TA.AperFunction,ComponentPad*
%ADD10C,4.400000*%
G04 #@! TD*
G04 #@! TA.AperFunction,ComponentPad*
%ADD11C,8.600000*%
G04 #@! TD*
G04 #@! TA.AperFunction,NonConductor*
%ADD12C,0.254000*%
G04 #@! TD*
G04 APERTURE END LIST*
D10*
X378618750Y-180975000D03*
X27781250Y-76993750D03*
D11*
X75406250Y-103187500D03*
D10*
X266700000Y-180975000D03*
X127000000Y-180975000D03*
X27781250Y-95250000D03*
X389731250Y-76993750D03*
X196850000Y-204787500D03*
X161925000Y-95250000D03*
X38893750Y-181768750D03*
X231775000Y-95250000D03*
X389731250Y-95250000D03*
D11*
X342106250Y-103187500D03*
D12*
G36*
X391806634Y-73736002D02*
G01*
X392275938Y-73877694D01*
X392708775Y-74107837D01*
X393088677Y-74417678D01*
X393401153Y-74795397D01*
X393634319Y-75226627D01*
X393779282Y-75694928D01*
X393833750Y-76213153D01*
X393833751Y-200786462D01*
X393782748Y-201306633D01*
X393641057Y-201775936D01*
X393410911Y-202208778D01*
X393101073Y-202588677D01*
X392723350Y-202901156D01*
X392292123Y-203134319D01*
X391823823Y-203279282D01*
X391305597Y-203333750D01*
X278634582Y-203333750D01*
X278598071Y-203330608D01*
X278537550Y-203337323D01*
X278476867Y-203343300D01*
X278441787Y-203353942D01*
X211068389Y-217621250D01*
X182631972Y-217621250D01*
X121030133Y-204508277D01*
X194015000Y-204508277D01*
X194015000Y-205066723D01*
X194123948Y-205614439D01*
X194337656Y-206130376D01*
X194647912Y-206594707D01*
X195042793Y-206989588D01*
X195507124Y-207299844D01*
X196023061Y-207513552D01*
X196570777Y-207622500D01*
X197129223Y-207622500D01*
X197676939Y-207513552D01*
X198192876Y-207299844D01*
X198657207Y-206989588D01*
X199052088Y-206594707D01*
X199362344Y-206130376D01*
X199576052Y-205614439D01*
X199685000Y-205066723D01*
X199685000Y-204508277D01*
X199576052Y-203960561D01*
X199362344Y-203444624D01*
X199052088Y-202980293D01*
X198657207Y-202585412D01*
X198192876Y-202275156D01*
X197676939Y-202061448D01*
X197129223Y-201952500D01*
X196570777Y-201952500D01*
X196023061Y-202061448D01*
X195507124Y-202275156D01*
X195042793Y-202585412D01*
X194647912Y-202980293D01*
X194337656Y-203444624D01*
X194123948Y-203960561D01*
X194015000Y-204508277D01*
X121030133Y-204508277D01*
X115607797Y-203354043D01*
X115572383Y-203343300D01*
X115512046Y-203337357D01*
X115451877Y-203330617D01*
X115415015Y-203333750D01*
X26226028Y-203333750D01*
X25705867Y-203282748D01*
X25236564Y-203141057D01*
X24803722Y-202910911D01*
X24423823Y-202601073D01*
X24111344Y-202223350D01*
X23878181Y-201792123D01*
X23733218Y-201323823D01*
X23678750Y-200805597D01*
X23678750Y-181489527D01*
X36058750Y-181489527D01*
X36058750Y-182047973D01*
X36167698Y-182595689D01*
X36381406Y-183111626D01*
X36691662Y-183575957D01*
X37086543Y-183970838D01*
X37550874Y-184281094D01*
X38066811Y-184494802D01*
X38614527Y-184603750D01*
X39172973Y-184603750D01*
X39720689Y-184494802D01*
X40236626Y-184281094D01*
X40700957Y-183970838D01*
X41095838Y-183575957D01*
X41406094Y-183111626D01*
X41619802Y-182595689D01*
X41728750Y-182047973D01*
X41728750Y-181489527D01*
X41619802Y-180941811D01*
X41517892Y-180695777D01*
X124165000Y-180695777D01*
X124165000Y-181254223D01*
X124273948Y-181801939D01*
X124487656Y-182317876D01*
X124797912Y-182782207D01*
X125192793Y-183177088D01*
X125657124Y-183487344D01*
X126173061Y-183701052D01*
X126720777Y-183810000D01*
X127279223Y-183810000D01*
X127826939Y-183701052D01*
X128342876Y-183487344D01*
X128807207Y-183177088D01*
X129202088Y-182782207D01*
X129512344Y-182317876D01*
X129726052Y-181801939D01*
X129835000Y-181254223D01*
X129835000Y-180695777D01*
X263865000Y-180695777D01*
X263865000Y-181254223D01*
X263973948Y-181801939D01*
X264187656Y-182317876D01*
X264497912Y-182782207D01*
X264892793Y-183177088D01*
X265357124Y-183487344D01*
X265873061Y-183701052D01*
X266420777Y-183810000D01*
X266979223Y-183810000D01*
X267526939Y-183701052D01*
X268042876Y-183487344D01*
X268507207Y-183177088D01*
X268902088Y-182782207D01*
X269212344Y-182317876D01*
X269426052Y-181801939D01*
X269535000Y-181254223D01*
X269535000Y-180695777D01*
X375783750Y-180695777D01*
X375783750Y-181254223D01*
X375892698Y-181801939D01*
X376106406Y-182317876D01*
X376416662Y-182782207D01*
X376811543Y-183177088D01*
X377275874Y-183487344D01*
X377791811Y-183701052D01*
X378339527Y-183810000D01*
X378897973Y-183810000D01*
X379445689Y-183701052D01*
X379961626Y-183487344D01*
X380425957Y-183177088D01*
X380820838Y-182782207D01*
X381131094Y-182317876D01*
X381344802Y-181801939D01*
X381453750Y-181254223D01*
X381453750Y-180695777D01*
X381344802Y-180148061D01*
X381131094Y-179632124D01*
X380820838Y-179167793D01*
X380425957Y-178772912D01*
X379961626Y-178462656D01*
X379445689Y-178248948D01*
X378897973Y-178140000D01*
X378339527Y-178140000D01*
X377791811Y-178248948D01*
X377275874Y-178462656D01*
X376811543Y-178772912D01*
X376416662Y-179167793D01*
X376106406Y-179632124D01*
X375892698Y-180148061D01*
X375783750Y-180695777D01*
X269535000Y-180695777D01*
X269426052Y-180148061D01*
X269212344Y-179632124D01*
X268902088Y-179167793D01*
X268507207Y-178772912D01*
X268042876Y-178462656D01*
X267526939Y-178248948D01*
X266979223Y-178140000D01*
X266420777Y-178140000D01*
X265873061Y-178248948D01*
X265357124Y-178462656D01*
X264892793Y-178772912D01*
X264497912Y-179167793D01*
X264187656Y-179632124D01*
X263973948Y-180148061D01*
X263865000Y-180695777D01*
X129835000Y-180695777D01*
X129726052Y-180148061D01*
X129512344Y-179632124D01*
X129202088Y-179167793D01*
X128807207Y-178772912D01*
X128342876Y-178462656D01*
X127826939Y-178248948D01*
X127279223Y-178140000D01*
X126720777Y-178140000D01*
X126173061Y-178248948D01*
X125657124Y-178462656D01*
X125192793Y-178772912D01*
X124797912Y-179167793D01*
X124487656Y-179632124D01*
X124273948Y-180148061D01*
X124165000Y-180695777D01*
X41517892Y-180695777D01*
X41406094Y-180425874D01*
X41095838Y-179961543D01*
X40700957Y-179566662D01*
X40236626Y-179256406D01*
X39720689Y-179042698D01*
X39172973Y-178933750D01*
X38614527Y-178933750D01*
X38066811Y-179042698D01*
X37550874Y-179256406D01*
X37086543Y-179566662D01*
X36691662Y-179961543D01*
X36381406Y-180425874D01*
X36167698Y-180941811D01*
X36058750Y-181489527D01*
X23678750Y-181489527D01*
X23678750Y-102701445D01*
X70471250Y-102701445D01*
X70471250Y-103673555D01*
X70660900Y-104626986D01*
X71032910Y-105525099D01*
X71572985Y-106333379D01*
X72260371Y-107020765D01*
X73068651Y-107560840D01*
X73966764Y-107932850D01*
X74920195Y-108122500D01*
X75892305Y-108122500D01*
X76845736Y-107932850D01*
X77743849Y-107560840D01*
X78552129Y-107020765D01*
X79239515Y-106333379D01*
X79779590Y-105525099D01*
X80151600Y-104626986D01*
X80341250Y-103673555D01*
X80341250Y-102701445D01*
X337171250Y-102701445D01*
X337171250Y-103673555D01*
X337360900Y-104626986D01*
X337732910Y-105525099D01*
X338272985Y-106333379D01*
X338960371Y-107020765D01*
X339768651Y-107560840D01*
X340666764Y-107932850D01*
X341620195Y-108122500D01*
X342592305Y-108122500D01*
X343545736Y-107932850D01*
X344443849Y-107560840D01*
X345252129Y-107020765D01*
X345939515Y-106333379D01*
X346479590Y-105525099D01*
X346851600Y-104626986D01*
X347041250Y-103673555D01*
X347041250Y-102701445D01*
X346851600Y-101748014D01*
X346479590Y-100849901D01*
X345939515Y-100041621D01*
X345252129Y-99354235D01*
X344443849Y-98814160D01*
X343545736Y-98442150D01*
X342592305Y-98252500D01*
X341620195Y-98252500D01*
X340666764Y-98442150D01*
X339768651Y-98814160D01*
X338960371Y-99354235D01*
X338272985Y-100041621D01*
X337732910Y-100849901D01*
X337360900Y-101748014D01*
X337171250Y-102701445D01*
X80341250Y-102701445D01*
X80151600Y-101748014D01*
X79779590Y-100849901D01*
X79239515Y-100041621D01*
X78552129Y-99354235D01*
X77743849Y-98814160D01*
X76845736Y-98442150D01*
X75892305Y-98252500D01*
X74920195Y-98252500D01*
X73966764Y-98442150D01*
X73068651Y-98814160D01*
X72260371Y-99354235D01*
X71572985Y-100041621D01*
X71032910Y-100849901D01*
X70660900Y-101748014D01*
X70471250Y-102701445D01*
X23678750Y-102701445D01*
X23678750Y-94970777D01*
X24946250Y-94970777D01*
X24946250Y-95529223D01*
X25055198Y-96076939D01*
X25268906Y-96592876D01*
X25579162Y-97057207D01*
X25974043Y-97452088D01*
X26438374Y-97762344D01*
X26954311Y-97976052D01*
X27502027Y-98085000D01*
X28060473Y-98085000D01*
X28608189Y-97976052D01*
X29124126Y-97762344D01*
X29588457Y-97452088D01*
X29983338Y-97057207D01*
X30293594Y-96592876D01*
X30507302Y-96076939D01*
X30616250Y-95529223D01*
X30616250Y-94970777D01*
X159090000Y-94970777D01*
X159090000Y-95529223D01*
X159198948Y-96076939D01*
X159412656Y-96592876D01*
X159722912Y-97057207D01*
X160117793Y-97452088D01*
X160582124Y-97762344D01*
X161098061Y-97976052D01*
X161645777Y-98085000D01*
X162204223Y-98085000D01*
X162751939Y-97976052D01*
X163267876Y-97762344D01*
X163732207Y-97452088D01*
X164127088Y-97057207D01*
X164437344Y-96592876D01*
X164651052Y-96076939D01*
X164760000Y-95529223D01*
X164760000Y-94970777D01*
X228940000Y-94970777D01*
X228940000Y-95529223D01*
X229048948Y-96076939D01*
X229262656Y-96592876D01*
X229572912Y-97057207D01*
X229967793Y-97452088D01*
X230432124Y-97762344D01*
X230948061Y-97976052D01*
X231495777Y-98085000D01*
X232054223Y-98085000D01*
X232601939Y-97976052D01*
X233117876Y-97762344D01*
X233582207Y-97452088D01*
X233977088Y-97057207D01*
X234287344Y-96592876D01*
X234501052Y-96076939D01*
X234610000Y-95529223D01*
X234610000Y-94970777D01*
X386896250Y-94970777D01*
X386896250Y-95529223D01*
X387005198Y-96076939D01*
X387218906Y-96592876D01*
X387529162Y-97057207D01*
X387924043Y-97452088D01*
X388388374Y-97762344D01*
X388904311Y-97976052D01*
X389452027Y-98085000D01*
X390010473Y-98085000D01*
X390558189Y-97976052D01*
X391074126Y-97762344D01*
X391538457Y-97452088D01*
X391933338Y-97057207D01*
X392243594Y-96592876D01*
X392457302Y-96076939D01*
X392566250Y-95529223D01*
X392566250Y-94970777D01*
X392457302Y-94423061D01*
X392243594Y-93907124D01*
X391933338Y-93442793D01*
X391538457Y-93047912D01*
X391074126Y-92737656D01*
X390558189Y-92523948D01*
X390010473Y-92415000D01*
X389452027Y-92415000D01*
X388904311Y-92523948D01*
X388388374Y-92737656D01*
X387924043Y-93047912D01*
X387529162Y-93442793D01*
X387218906Y-93907124D01*
X387005198Y-94423061D01*
X386896250Y-94970777D01*
X234610000Y-94970777D01*
X234501052Y-94423061D01*
X234287344Y-93907124D01*
X233977088Y-93442793D01*
X233582207Y-93047912D01*
X233117876Y-92737656D01*
X232601939Y-92523948D01*
X232054223Y-92415000D01*
X231495777Y-92415000D01*
X230948061Y-92523948D01*
X230432124Y-92737656D01*
X229967793Y-93047912D01*
X229572912Y-93442793D01*
X229262656Y-93907124D01*
X229048948Y-94423061D01*
X228940000Y-94970777D01*
X164760000Y-94970777D01*
X164651052Y-94423061D01*
X164437344Y-93907124D01*
X164127088Y-93442793D01*
X163732207Y-93047912D01*
X163267876Y-92737656D01*
X162751939Y-92523948D01*
X162204223Y-92415000D01*
X161645777Y-92415000D01*
X161098061Y-92523948D01*
X160582124Y-92737656D01*
X160117793Y-93047912D01*
X159722912Y-93442793D01*
X159412656Y-93907124D01*
X159198948Y-94423061D01*
X159090000Y-94970777D01*
X30616250Y-94970777D01*
X30507302Y-94423061D01*
X30293594Y-93907124D01*
X29983338Y-93442793D01*
X29588457Y-93047912D01*
X29124126Y-92737656D01*
X28608189Y-92523948D01*
X28060473Y-92415000D01*
X27502027Y-92415000D01*
X26954311Y-92523948D01*
X26438374Y-92737656D01*
X25974043Y-93047912D01*
X25579162Y-93442793D01*
X25268906Y-93907124D01*
X25055198Y-94423061D01*
X24946250Y-94970777D01*
X23678750Y-94970777D01*
X23678750Y-76714527D01*
X24946250Y-76714527D01*
X24946250Y-77272973D01*
X25055198Y-77820689D01*
X25268906Y-78336626D01*
X25579162Y-78800957D01*
X25974043Y-79195838D01*
X26438374Y-79506094D01*
X26954311Y-79719802D01*
X27502027Y-79828750D01*
X28060473Y-79828750D01*
X28608189Y-79719802D01*
X29124126Y-79506094D01*
X29588457Y-79195838D01*
X29983338Y-78800957D01*
X30293594Y-78336626D01*
X30507302Y-77820689D01*
X30616250Y-77272973D01*
X30616250Y-76714527D01*
X386896250Y-76714527D01*
X386896250Y-77272973D01*
X387005198Y-77820689D01*
X387218906Y-78336626D01*
X387529162Y-78800957D01*
X387924043Y-79195838D01*
X388388374Y-79506094D01*
X388904311Y-79719802D01*
X389452027Y-79828750D01*
X390010473Y-79828750D01*
X390558189Y-79719802D01*
X391074126Y-79506094D01*
X391538457Y-79195838D01*
X391933338Y-78800957D01*
X392243594Y-78336626D01*
X392457302Y-77820689D01*
X392566250Y-77272973D01*
X392566250Y-76714527D01*
X392457302Y-76166811D01*
X392243594Y-75650874D01*
X391933338Y-75186543D01*
X391538457Y-74791662D01*
X391074126Y-74481406D01*
X390558189Y-74267698D01*
X390010473Y-74158750D01*
X389452027Y-74158750D01*
X388904311Y-74267698D01*
X388388374Y-74481406D01*
X387924043Y-74791662D01*
X387529162Y-75186543D01*
X387218906Y-75650874D01*
X387005198Y-76166811D01*
X386896250Y-76714527D01*
X30616250Y-76714527D01*
X30507302Y-76166811D01*
X30293594Y-75650874D01*
X29983338Y-75186543D01*
X29588457Y-74791662D01*
X29124126Y-74481406D01*
X28608189Y-74267698D01*
X28060473Y-74158750D01*
X27502027Y-74158750D01*
X26954311Y-74267698D01*
X26438374Y-74481406D01*
X25974043Y-74791662D01*
X25579162Y-75186543D01*
X25268906Y-75650874D01*
X25055198Y-76166811D01*
X24946250Y-76714527D01*
X23678750Y-76714527D01*
X23678750Y-76232278D01*
X23729752Y-75712116D01*
X23871444Y-75242812D01*
X24101587Y-74809975D01*
X24411428Y-74430073D01*
X24789147Y-74117597D01*
X25220377Y-73884431D01*
X25688678Y-73739468D01*
X26206903Y-73685000D01*
X391286472Y-73685000D01*
X391806634Y-73736002D01*
G37*
X391806634Y-73736002D02*
X392275938Y-73877694D01*
X392708775Y-74107837D01*
X393088677Y-74417678D01*
X393401153Y-74795397D01*
X393634319Y-75226627D01*
X393779282Y-75694928D01*
X393833750Y-76213153D01*
X393833751Y-200786462D01*
X393782748Y-201306633D01*
X393641057Y-201775936D01*
X393410911Y-202208778D01*
X393101073Y-202588677D01*
X392723350Y-202901156D01*
X392292123Y-203134319D01*
X391823823Y-203279282D01*
X391305597Y-203333750D01*
X278634582Y-203333750D01*
X278598071Y-203330608D01*
X278537550Y-203337323D01*
X278476867Y-203343300D01*
X278441787Y-203353942D01*
X211068389Y-217621250D01*
X182631972Y-217621250D01*
X121030133Y-204508277D01*
X194015000Y-204508277D01*
X194015000Y-205066723D01*
X194123948Y-205614439D01*
X194337656Y-206130376D01*
X194647912Y-206594707D01*
X195042793Y-206989588D01*
X195507124Y-207299844D01*
X196023061Y-207513552D01*
X196570777Y-207622500D01*
X197129223Y-207622500D01*
X197676939Y-207513552D01*
X198192876Y-207299844D01*
X198657207Y-206989588D01*
X199052088Y-206594707D01*
X199362344Y-206130376D01*
X199576052Y-205614439D01*
X199685000Y-205066723D01*
X199685000Y-204508277D01*
X199576052Y-203960561D01*
X199362344Y-203444624D01*
X199052088Y-202980293D01*
X198657207Y-202585412D01*
X198192876Y-202275156D01*
X197676939Y-202061448D01*
X197129223Y-201952500D01*
X196570777Y-201952500D01*
X196023061Y-202061448D01*
X195507124Y-202275156D01*
X195042793Y-202585412D01*
X194647912Y-202980293D01*
X194337656Y-203444624D01*
X194123948Y-203960561D01*
X194015000Y-204508277D01*
X121030133Y-204508277D01*
X115607797Y-203354043D01*
X115572383Y-203343300D01*
X115512046Y-203337357D01*
X115451877Y-203330617D01*
X115415015Y-203333750D01*
X26226028Y-203333750D01*
X25705867Y-203282748D01*
X25236564Y-203141057D01*
X24803722Y-202910911D01*
X24423823Y-202601073D01*
X24111344Y-202223350D01*
X23878181Y-201792123D01*
X23733218Y-201323823D01*
X23678750Y-200805597D01*
X23678750Y-181489527D01*
X36058750Y-181489527D01*
X36058750Y-182047973D01*
X36167698Y-182595689D01*
X36381406Y-183111626D01*
X36691662Y-183575957D01*
X37086543Y-183970838D01*
X37550874Y-184281094D01*
X38066811Y-184494802D01*
X38614527Y-184603750D01*
X39172973Y-184603750D01*
X39720689Y-184494802D01*
X40236626Y-184281094D01*
X40700957Y-183970838D01*
X41095838Y-183575957D01*
X41406094Y-183111626D01*
X41619802Y-182595689D01*
X41728750Y-182047973D01*
X41728750Y-181489527D01*
X41619802Y-180941811D01*
X41517892Y-180695777D01*
X124165000Y-180695777D01*
X124165000Y-181254223D01*
X124273948Y-181801939D01*
X124487656Y-182317876D01*
X124797912Y-182782207D01*
X125192793Y-183177088D01*
X125657124Y-183487344D01*
X126173061Y-183701052D01*
X126720777Y-183810000D01*
X127279223Y-183810000D01*
X127826939Y-183701052D01*
X128342876Y-183487344D01*
X128807207Y-183177088D01*
X129202088Y-182782207D01*
X129512344Y-182317876D01*
X129726052Y-181801939D01*
X129835000Y-181254223D01*
X129835000Y-180695777D01*
X263865000Y-180695777D01*
X263865000Y-181254223D01*
X263973948Y-181801939D01*
X264187656Y-182317876D01*
X264497912Y-182782207D01*
X264892793Y-183177088D01*
X265357124Y-183487344D01*
X265873061Y-183701052D01*
X266420777Y-183810000D01*
X266979223Y-183810000D01*
X267526939Y-183701052D01*
X268042876Y-183487344D01*
X268507207Y-183177088D01*
X268902088Y-182782207D01*
X269212344Y-182317876D01*
X269426052Y-181801939D01*
X269535000Y-181254223D01*
X269535000Y-180695777D01*
X375783750Y-180695777D01*
X375783750Y-181254223D01*
X375892698Y-181801939D01*
X376106406Y-182317876D01*
X376416662Y-182782207D01*
X376811543Y-183177088D01*
X377275874Y-183487344D01*
X377791811Y-183701052D01*
X378339527Y-183810000D01*
X378897973Y-183810000D01*
X379445689Y-183701052D01*
X379961626Y-183487344D01*
X380425957Y-183177088D01*
X380820838Y-182782207D01*
X381131094Y-182317876D01*
X381344802Y-181801939D01*
X381453750Y-181254223D01*
X381453750Y-180695777D01*
X381344802Y-180148061D01*
X381131094Y-179632124D01*
X380820838Y-179167793D01*
X380425957Y-178772912D01*
X379961626Y-178462656D01*
X379445689Y-178248948D01*
X378897973Y-178140000D01*
X378339527Y-178140000D01*
X377791811Y-178248948D01*
X377275874Y-178462656D01*
X376811543Y-178772912D01*
X376416662Y-179167793D01*
X376106406Y-179632124D01*
X375892698Y-180148061D01*
X375783750Y-180695777D01*
X269535000Y-180695777D01*
X269426052Y-180148061D01*
X269212344Y-179632124D01*
X268902088Y-179167793D01*
X268507207Y-178772912D01*
X268042876Y-178462656D01*
X267526939Y-178248948D01*
X266979223Y-178140000D01*
X266420777Y-178140000D01*
X265873061Y-178248948D01*
X265357124Y-178462656D01*
X264892793Y-178772912D01*
X264497912Y-179167793D01*
X264187656Y-179632124D01*
X263973948Y-180148061D01*
X263865000Y-180695777D01*
X129835000Y-180695777D01*
X129726052Y-180148061D01*
X129512344Y-179632124D01*
X129202088Y-179167793D01*
X128807207Y-178772912D01*
X128342876Y-178462656D01*
X127826939Y-178248948D01*
X127279223Y-178140000D01*
X126720777Y-178140000D01*
X126173061Y-178248948D01*
X125657124Y-178462656D01*
X125192793Y-178772912D01*
X124797912Y-179167793D01*
X124487656Y-179632124D01*
X124273948Y-180148061D01*
X124165000Y-180695777D01*
X41517892Y-180695777D01*
X41406094Y-180425874D01*
X41095838Y-179961543D01*
X40700957Y-179566662D01*
X40236626Y-179256406D01*
X39720689Y-179042698D01*
X39172973Y-178933750D01*
X38614527Y-178933750D01*
X38066811Y-179042698D01*
X37550874Y-179256406D01*
X37086543Y-179566662D01*
X36691662Y-179961543D01*
X36381406Y-180425874D01*
X36167698Y-180941811D01*
X36058750Y-181489527D01*
X23678750Y-181489527D01*
X23678750Y-102701445D01*
X70471250Y-102701445D01*
X70471250Y-103673555D01*
X70660900Y-104626986D01*
X71032910Y-105525099D01*
X71572985Y-106333379D01*
X72260371Y-107020765D01*
X73068651Y-107560840D01*
X73966764Y-107932850D01*
X74920195Y-108122500D01*
X75892305Y-108122500D01*
X76845736Y-107932850D01*
X77743849Y-107560840D01*
X78552129Y-107020765D01*
X79239515Y-106333379D01*
X79779590Y-105525099D01*
X80151600Y-104626986D01*
X80341250Y-103673555D01*
X80341250Y-102701445D01*
X337171250Y-102701445D01*
X337171250Y-103673555D01*
X337360900Y-104626986D01*
X337732910Y-105525099D01*
X338272985Y-106333379D01*
X338960371Y-107020765D01*
X339768651Y-107560840D01*
X340666764Y-107932850D01*
X341620195Y-108122500D01*
X342592305Y-108122500D01*
X343545736Y-107932850D01*
X344443849Y-107560840D01*
X345252129Y-107020765D01*
X345939515Y-106333379D01*
X346479590Y-105525099D01*
X346851600Y-104626986D01*
X347041250Y-103673555D01*
X347041250Y-102701445D01*
X346851600Y-101748014D01*
X346479590Y-100849901D01*
X345939515Y-100041621D01*
X345252129Y-99354235D01*
X344443849Y-98814160D01*
X343545736Y-98442150D01*
X342592305Y-98252500D01*
X341620195Y-98252500D01*
X340666764Y-98442150D01*
X339768651Y-98814160D01*
X338960371Y-99354235D01*
X338272985Y-100041621D01*
X337732910Y-100849901D01*
X337360900Y-101748014D01*
X337171250Y-102701445D01*
X80341250Y-102701445D01*
X80151600Y-101748014D01*
X79779590Y-100849901D01*
X79239515Y-100041621D01*
X78552129Y-99354235D01*
X77743849Y-98814160D01*
X76845736Y-98442150D01*
X75892305Y-98252500D01*
X74920195Y-98252500D01*
X73966764Y-98442150D01*
X73068651Y-98814160D01*
X72260371Y-99354235D01*
X71572985Y-100041621D01*
X71032910Y-100849901D01*
X70660900Y-101748014D01*
X70471250Y-102701445D01*
X23678750Y-102701445D01*
X23678750Y-94970777D01*
X24946250Y-94970777D01*
X24946250Y-95529223D01*
X25055198Y-96076939D01*
X25268906Y-96592876D01*
X25579162Y-97057207D01*
X25974043Y-97452088D01*
X26438374Y-97762344D01*
X26954311Y-97976052D01*
X27502027Y-98085000D01*
X28060473Y-98085000D01*
X28608189Y-97976052D01*
X29124126Y-97762344D01*
X29588457Y-97452088D01*
X29983338Y-97057207D01*
X30293594Y-96592876D01*
X30507302Y-96076939D01*
X30616250Y-95529223D01*
X30616250Y-94970777D01*
X159090000Y-94970777D01*
X159090000Y-95529223D01*
X159198948Y-96076939D01*
X159412656Y-96592876D01*
X159722912Y-97057207D01*
X160117793Y-97452088D01*
X160582124Y-97762344D01*
X161098061Y-97976052D01*
X161645777Y-98085000D01*
X162204223Y-98085000D01*
X162751939Y-97976052D01*
X163267876Y-97762344D01*
X163732207Y-97452088D01*
X164127088Y-97057207D01*
X164437344Y-96592876D01*
X164651052Y-96076939D01*
X164760000Y-95529223D01*
X164760000Y-94970777D01*
X228940000Y-94970777D01*
X228940000Y-95529223D01*
X229048948Y-96076939D01*
X229262656Y-96592876D01*
X229572912Y-97057207D01*
X229967793Y-97452088D01*
X230432124Y-97762344D01*
X230948061Y-97976052D01*
X231495777Y-98085000D01*
X232054223Y-98085000D01*
X232601939Y-97976052D01*
X233117876Y-97762344D01*
X233582207Y-97452088D01*
X233977088Y-97057207D01*
X234287344Y-96592876D01*
X234501052Y-96076939D01*
X234610000Y-95529223D01*
X234610000Y-94970777D01*
X386896250Y-94970777D01*
X386896250Y-95529223D01*
X387005198Y-96076939D01*
X387218906Y-96592876D01*
X387529162Y-97057207D01*
X387924043Y-97452088D01*
X388388374Y-97762344D01*
X388904311Y-97976052D01*
X389452027Y-98085000D01*
X390010473Y-98085000D01*
X390558189Y-97976052D01*
X391074126Y-97762344D01*
X391538457Y-97452088D01*
X391933338Y-97057207D01*
X392243594Y-96592876D01*
X392457302Y-96076939D01*
X392566250Y-95529223D01*
X392566250Y-94970777D01*
X392457302Y-94423061D01*
X392243594Y-93907124D01*
X391933338Y-93442793D01*
X391538457Y-93047912D01*
X391074126Y-92737656D01*
X390558189Y-92523948D01*
X390010473Y-92415000D01*
X389452027Y-92415000D01*
X388904311Y-92523948D01*
X388388374Y-92737656D01*
X387924043Y-93047912D01*
X387529162Y-93442793D01*
X387218906Y-93907124D01*
X387005198Y-94423061D01*
X386896250Y-94970777D01*
X234610000Y-94970777D01*
X234501052Y-94423061D01*
X234287344Y-93907124D01*
X233977088Y-93442793D01*
X233582207Y-93047912D01*
X233117876Y-92737656D01*
X232601939Y-92523948D01*
X232054223Y-92415000D01*
X231495777Y-92415000D01*
X230948061Y-92523948D01*
X230432124Y-92737656D01*
X229967793Y-93047912D01*
X229572912Y-93442793D01*
X229262656Y-93907124D01*
X229048948Y-94423061D01*
X228940000Y-94970777D01*
X164760000Y-94970777D01*
X164651052Y-94423061D01*
X164437344Y-93907124D01*
X164127088Y-93442793D01*
X163732207Y-93047912D01*
X163267876Y-92737656D01*
X162751939Y-92523948D01*
X162204223Y-92415000D01*
X161645777Y-92415000D01*
X161098061Y-92523948D01*
X160582124Y-92737656D01*
X160117793Y-93047912D01*
X159722912Y-93442793D01*
X159412656Y-93907124D01*
X159198948Y-94423061D01*
X159090000Y-94970777D01*
X30616250Y-94970777D01*
X30507302Y-94423061D01*
X30293594Y-93907124D01*
X29983338Y-93442793D01*
X29588457Y-93047912D01*
X29124126Y-92737656D01*
X28608189Y-92523948D01*
X28060473Y-92415000D01*
X27502027Y-92415000D01*
X26954311Y-92523948D01*
X26438374Y-92737656D01*
X25974043Y-93047912D01*
X25579162Y-93442793D01*
X25268906Y-93907124D01*
X25055198Y-94423061D01*
X24946250Y-94970777D01*
X23678750Y-94970777D01*
X23678750Y-76714527D01*
X24946250Y-76714527D01*
X24946250Y-77272973D01*
X25055198Y-77820689D01*
X25268906Y-78336626D01*
X25579162Y-78800957D01*
X25974043Y-79195838D01*
X26438374Y-79506094D01*
X26954311Y-79719802D01*
X27502027Y-79828750D01*
X28060473Y-79828750D01*
X28608189Y-79719802D01*
X29124126Y-79506094D01*
X29588457Y-79195838D01*
X29983338Y-78800957D01*
X30293594Y-78336626D01*
X30507302Y-77820689D01*
X30616250Y-77272973D01*
X30616250Y-76714527D01*
X386896250Y-76714527D01*
X386896250Y-77272973D01*
X387005198Y-77820689D01*
X387218906Y-78336626D01*
X387529162Y-78800957D01*
X387924043Y-79195838D01*
X388388374Y-79506094D01*
X388904311Y-79719802D01*
X389452027Y-79828750D01*
X390010473Y-79828750D01*
X390558189Y-79719802D01*
X391074126Y-79506094D01*
X391538457Y-79195838D01*
X391933338Y-78800957D01*
X392243594Y-78336626D01*
X392457302Y-77820689D01*
X392566250Y-77272973D01*
X392566250Y-76714527D01*
X392457302Y-76166811D01*
X392243594Y-75650874D01*
X391933338Y-75186543D01*
X391538457Y-74791662D01*
X391074126Y-74481406D01*
X390558189Y-74267698D01*
X390010473Y-74158750D01*
X389452027Y-74158750D01*
X388904311Y-74267698D01*
X388388374Y-74481406D01*
X387924043Y-74791662D01*
X387529162Y-75186543D01*
X387218906Y-75650874D01*
X387005198Y-76166811D01*
X386896250Y-76714527D01*
X30616250Y-76714527D01*
X30507302Y-76166811D01*
X30293594Y-75650874D01*
X29983338Y-75186543D01*
X29588457Y-74791662D01*
X29124126Y-74481406D01*
X28608189Y-74267698D01*
X28060473Y-74158750D01*
X27502027Y-74158750D01*
X26954311Y-74267698D01*
X26438374Y-74481406D01*
X25974043Y-74791662D01*
X25579162Y-75186543D01*
X25268906Y-75650874D01*
X25055198Y-76166811D01*
X24946250Y-76714527D01*
X23678750Y-76714527D01*
X23678750Y-76232278D01*
X23729752Y-75712116D01*
X23871444Y-75242812D01*
X24101587Y-74809975D01*
X24411428Y-74430073D01*
X24789147Y-74117597D01*
X25220377Y-73884431D01*
X25688678Y-73739468D01*
X26206903Y-73685000D01*
X391286472Y-73685000D01*
X391806634Y-73736002D01*
M02*
