G04 #@! TF.GenerationSoftware,KiCad,Pcbnew,(5.1.6)-1*
G04 #@! TF.CreationDate,2020-09-06T17:35:35-05:00*
G04 #@! TF.ProjectId,keyboard_bottom,6b657962-6f61-4726-945f-626f74746f6d,rev?*
G04 #@! TF.SameCoordinates,Original*
G04 #@! TF.FileFunction,Legend,Top*
G04 #@! TF.FilePolarity,Positive*
%FSLAX46Y46*%
G04 Gerber Fmt 4.6, Leading zero omitted, Abs format (unit mm)*
G04 Created by KiCad (PCBNEW (5.1.6)-1) date 2020-09-06 17:35:35*
%MOMM*%
%LPD*%
G01*
G04 APERTURE LIST*
%ADD10C,0.200000*%
%ADD11C,0.150000*%
G04 APERTURE END LIST*
D10*
X33894047Y-191746130D02*
X33894047Y-190746130D01*
X34132142Y-190746130D01*
X34275000Y-190793750D01*
X34370238Y-190888988D01*
X34417857Y-190984226D01*
X34465476Y-191174702D01*
X34465476Y-191317559D01*
X34417857Y-191508035D01*
X34370238Y-191603273D01*
X34275000Y-191698511D01*
X34132142Y-191746130D01*
X33894047Y-191746130D01*
X35275000Y-191698511D02*
X35179761Y-191746130D01*
X34989285Y-191746130D01*
X34894047Y-191698511D01*
X34846428Y-191603273D01*
X34846428Y-191222321D01*
X34894047Y-191127083D01*
X34989285Y-191079464D01*
X35179761Y-191079464D01*
X35275000Y-191127083D01*
X35322619Y-191222321D01*
X35322619Y-191317559D01*
X34846428Y-191412797D01*
X35703571Y-191698511D02*
X35798809Y-191746130D01*
X35989285Y-191746130D01*
X36084523Y-191698511D01*
X36132142Y-191603273D01*
X36132142Y-191555654D01*
X36084523Y-191460416D01*
X35989285Y-191412797D01*
X35846428Y-191412797D01*
X35751190Y-191365178D01*
X35703571Y-191269940D01*
X35703571Y-191222321D01*
X35751190Y-191127083D01*
X35846428Y-191079464D01*
X35989285Y-191079464D01*
X36084523Y-191127083D01*
X36560714Y-191746130D02*
X36560714Y-191079464D01*
X36560714Y-190746130D02*
X36513095Y-190793750D01*
X36560714Y-190841369D01*
X36608333Y-190793750D01*
X36560714Y-190746130D01*
X36560714Y-190841369D01*
X37465476Y-191079464D02*
X37465476Y-191888988D01*
X37417857Y-191984226D01*
X37370238Y-192031845D01*
X37275000Y-192079464D01*
X37132142Y-192079464D01*
X37036904Y-192031845D01*
X37465476Y-191698511D02*
X37370238Y-191746130D01*
X37179761Y-191746130D01*
X37084523Y-191698511D01*
X37036904Y-191650892D01*
X36989285Y-191555654D01*
X36989285Y-191269940D01*
X37036904Y-191174702D01*
X37084523Y-191127083D01*
X37179761Y-191079464D01*
X37370238Y-191079464D01*
X37465476Y-191127083D01*
X37941666Y-191079464D02*
X37941666Y-191746130D01*
X37941666Y-191174702D02*
X37989285Y-191127083D01*
X38084523Y-191079464D01*
X38227380Y-191079464D01*
X38322619Y-191127083D01*
X38370238Y-191222321D01*
X38370238Y-191746130D01*
X39227380Y-191698511D02*
X39132142Y-191746130D01*
X38941666Y-191746130D01*
X38846428Y-191698511D01*
X38798809Y-191603273D01*
X38798809Y-191222321D01*
X38846428Y-191127083D01*
X38941666Y-191079464D01*
X39132142Y-191079464D01*
X39227380Y-191127083D01*
X39275000Y-191222321D01*
X39275000Y-191317559D01*
X38798809Y-191412797D01*
X40132142Y-191746130D02*
X40132142Y-190746130D01*
X40132142Y-191698511D02*
X40036904Y-191746130D01*
X39846428Y-191746130D01*
X39751190Y-191698511D01*
X39703571Y-191650892D01*
X39655952Y-191555654D01*
X39655952Y-191269940D01*
X39703571Y-191174702D01*
X39751190Y-191127083D01*
X39846428Y-191079464D01*
X40036904Y-191079464D01*
X40132142Y-191127083D01*
X41370238Y-191746130D02*
X41370238Y-190746130D01*
X41370238Y-191127083D02*
X41465476Y-191079464D01*
X41655952Y-191079464D01*
X41751190Y-191127083D01*
X41798809Y-191174702D01*
X41846428Y-191269940D01*
X41846428Y-191555654D01*
X41798809Y-191650892D01*
X41751190Y-191698511D01*
X41655952Y-191746130D01*
X41465476Y-191746130D01*
X41370238Y-191698511D01*
X42179761Y-191079464D02*
X42417857Y-191746130D01*
X42655952Y-191079464D02*
X42417857Y-191746130D01*
X42322619Y-191984226D01*
X42275000Y-192031845D01*
X42179761Y-192079464D01*
X43798809Y-191746130D02*
X43798809Y-190746130D01*
X44370238Y-191746130D01*
X44370238Y-190746130D01*
X44989285Y-191746130D02*
X44894047Y-191698511D01*
X44846428Y-191650892D01*
X44798809Y-191555654D01*
X44798809Y-191269940D01*
X44846428Y-191174702D01*
X44894047Y-191127083D01*
X44989285Y-191079464D01*
X45132142Y-191079464D01*
X45227380Y-191127083D01*
X45275000Y-191174702D01*
X45322619Y-191269940D01*
X45322619Y-191555654D01*
X45275000Y-191650892D01*
X45227380Y-191698511D01*
X45132142Y-191746130D01*
X44989285Y-191746130D01*
X46179761Y-191746130D02*
X46179761Y-191222321D01*
X46132142Y-191127083D01*
X46036904Y-191079464D01*
X45846428Y-191079464D01*
X45751190Y-191127083D01*
X46179761Y-191698511D02*
X46084523Y-191746130D01*
X45846428Y-191746130D01*
X45751190Y-191698511D01*
X45703571Y-191603273D01*
X45703571Y-191508035D01*
X45751190Y-191412797D01*
X45846428Y-191365178D01*
X46084523Y-191365178D01*
X46179761Y-191317559D01*
X46655952Y-191746130D02*
X46655952Y-190746130D01*
X47084523Y-191746130D02*
X47084523Y-191222321D01*
X47036904Y-191127083D01*
X46941666Y-191079464D01*
X46798809Y-191079464D01*
X46703571Y-191127083D01*
X46655952Y-191174702D01*
X48798809Y-191746130D02*
X48322619Y-191746130D01*
X48322619Y-190746130D01*
D11*
X34220571Y-193871809D02*
X34144380Y-193909904D01*
X33992000Y-193909904D01*
X33915809Y-193871809D01*
X33877714Y-193833714D01*
X33839619Y-193757523D01*
X33839619Y-193528952D01*
X33877714Y-193452761D01*
X33915809Y-193414666D01*
X33992000Y-193376571D01*
X34144380Y-193376571D01*
X34220571Y-193414666D01*
X34677714Y-193909904D02*
X34601523Y-193871809D01*
X34563428Y-193795619D01*
X34563428Y-193109904D01*
X35325333Y-193909904D02*
X35325333Y-193490857D01*
X35287238Y-193414666D01*
X35211047Y-193376571D01*
X35058666Y-193376571D01*
X34982476Y-193414666D01*
X35325333Y-193871809D02*
X35249142Y-193909904D01*
X35058666Y-193909904D01*
X34982476Y-193871809D01*
X34944380Y-193795619D01*
X34944380Y-193719428D01*
X34982476Y-193643238D01*
X35058666Y-193605142D01*
X35249142Y-193605142D01*
X35325333Y-193567047D01*
X36049142Y-193871809D02*
X35972952Y-193909904D01*
X35820571Y-193909904D01*
X35744380Y-193871809D01*
X35706285Y-193833714D01*
X35668190Y-193757523D01*
X35668190Y-193528952D01*
X35706285Y-193452761D01*
X35744380Y-193414666D01*
X35820571Y-193376571D01*
X35972952Y-193376571D01*
X36049142Y-193414666D01*
X36392000Y-193909904D02*
X36392000Y-193109904D01*
X36468190Y-193605142D02*
X36696761Y-193909904D01*
X36696761Y-193376571D02*
X36392000Y-193681333D01*
X37344380Y-193871809D02*
X37268190Y-193909904D01*
X37115809Y-193909904D01*
X37039619Y-193871809D01*
X37001523Y-193795619D01*
X37001523Y-193490857D01*
X37039619Y-193414666D01*
X37115809Y-193376571D01*
X37268190Y-193376571D01*
X37344380Y-193414666D01*
X37382476Y-193490857D01*
X37382476Y-193567047D01*
X37001523Y-193643238D01*
X37725333Y-193909904D02*
X37725333Y-193376571D01*
X37725333Y-193528952D02*
X37763428Y-193452761D01*
X37801523Y-193414666D01*
X37877714Y-193376571D01*
X37953904Y-193376571D01*
X38144380Y-193376571D02*
X38334857Y-193909904D01*
X38525333Y-193376571D02*
X38334857Y-193909904D01*
X38258666Y-194100380D01*
X38220571Y-194138476D01*
X38144380Y-194176571D01*
X38830095Y-193833714D02*
X38868190Y-193871809D01*
X38830095Y-193909904D01*
X38792000Y-193871809D01*
X38830095Y-193833714D01*
X38830095Y-193909904D01*
X39553904Y-193871809D02*
X39477714Y-193909904D01*
X39325333Y-193909904D01*
X39249142Y-193871809D01*
X39211047Y-193833714D01*
X39172952Y-193757523D01*
X39172952Y-193528952D01*
X39211047Y-193452761D01*
X39249142Y-193414666D01*
X39325333Y-193376571D01*
X39477714Y-193376571D01*
X39553904Y-193414666D01*
X40011047Y-193909904D02*
X39934857Y-193871809D01*
X39896761Y-193833714D01*
X39858666Y-193757523D01*
X39858666Y-193528952D01*
X39896761Y-193452761D01*
X39934857Y-193414666D01*
X40011047Y-193376571D01*
X40125333Y-193376571D01*
X40201523Y-193414666D01*
X40239619Y-193452761D01*
X40277714Y-193528952D01*
X40277714Y-193757523D01*
X40239619Y-193833714D01*
X40201523Y-193871809D01*
X40125333Y-193909904D01*
X40011047Y-193909904D01*
X40620571Y-193909904D02*
X40620571Y-193376571D01*
X40620571Y-193452761D02*
X40658666Y-193414666D01*
X40734857Y-193376571D01*
X40849142Y-193376571D01*
X40925333Y-193414666D01*
X40963428Y-193490857D01*
X40963428Y-193909904D01*
X40963428Y-193490857D02*
X41001523Y-193414666D01*
X41077714Y-193376571D01*
X41192000Y-193376571D01*
X41268190Y-193414666D01*
X41306285Y-193490857D01*
X41306285Y-193909904D01*
M02*
