%TF.GenerationSoftware,KiCad,Pcbnew,(5.1.6)-1*%
%TF.CreationDate,2020-10-24T16:49:17-05:00*%
%TF.ProjectId,basketweave_plate,6261736b-6574-4776-9561-76655f706c61,rev?*%
%TF.SameCoordinates,Original*%
%TF.FileFunction,Soldermask,Bot*%
%TF.FilePolarity,Negative*%
%FSLAX46Y46*%
G04 Gerber Fmt 4.6, Leading zero omitted, Abs format (unit mm)*
G04 Created by KiCad (PCBNEW (5.1.6)-1) date 2020-10-24 16:49:17*
%MOMM*%
%LPD*%
G01*
G04 APERTURE LIST*
%ADD10C,0.010000*%
G04 APERTURE END LIST*
D10*
%TO.C,G\u002A\u002A\u002A*%
G36*
X86842265Y-128656366D02*
G01*
X86761183Y-128669975D01*
X86719810Y-128690409D01*
X86719629Y-128690687D01*
X86700612Y-128727447D01*
X86657348Y-128814924D01*
X86593021Y-128946564D01*
X86510812Y-129115814D01*
X86413905Y-129316120D01*
X86305482Y-129540928D01*
X86188725Y-129783685D01*
X86176147Y-129809875D01*
X86058910Y-130053380D01*
X85949732Y-130278917D01*
X85851770Y-130480054D01*
X85768183Y-130650360D01*
X85702130Y-130783402D01*
X85656769Y-130872748D01*
X85635258Y-130911967D01*
X85634457Y-130912972D01*
X85612097Y-130896080D01*
X85569327Y-130832221D01*
X85512626Y-130731953D01*
X85458267Y-130625884D01*
X85305403Y-130315199D01*
X85705702Y-129515093D01*
X85809390Y-129306749D01*
X85903098Y-129116355D01*
X85983204Y-128951440D01*
X86046087Y-128819531D01*
X86088126Y-128728157D01*
X86105698Y-128684844D01*
X86106000Y-128682994D01*
X86076261Y-128666909D01*
X85994898Y-128655760D01*
X85873698Y-128651058D01*
X85856931Y-128651000D01*
X85607861Y-128651000D01*
X85342952Y-129222871D01*
X85261161Y-129395802D01*
X85187202Y-129545319D01*
X85125425Y-129663181D01*
X85080176Y-129741152D01*
X85055804Y-129770991D01*
X85053911Y-129770558D01*
X85033507Y-129735282D01*
X84991296Y-129651743D01*
X84931884Y-129529422D01*
X84859876Y-129377802D01*
X84780000Y-129206625D01*
X84530219Y-128666875D01*
X84270360Y-128657653D01*
X84150970Y-128655388D01*
X84060502Y-128657426D01*
X84013788Y-128663294D01*
X84010500Y-128665957D01*
X84023877Y-128697891D01*
X84061688Y-128779572D01*
X84120457Y-128903709D01*
X84196707Y-129063012D01*
X84286959Y-129250190D01*
X84387738Y-129457953D01*
X84413458Y-129510796D01*
X84816416Y-130338109D01*
X84508756Y-130952875D01*
X83943775Y-129801937D01*
X83378793Y-128651000D01*
X83123147Y-128651000D01*
X83004763Y-128652806D01*
X82915468Y-128657610D01*
X82870238Y-128664486D01*
X82867500Y-128666792D01*
X82881272Y-128699158D01*
X82920520Y-128781638D01*
X82982146Y-128908066D01*
X83063051Y-129072278D01*
X83160136Y-129268107D01*
X83270303Y-129489390D01*
X83390453Y-129729962D01*
X83517487Y-129983656D01*
X83648306Y-130244308D01*
X83779811Y-130505754D01*
X83908904Y-130761827D01*
X84032486Y-131006363D01*
X84147459Y-131233197D01*
X84250722Y-131436164D01*
X84339178Y-131609099D01*
X84409728Y-131745836D01*
X84459273Y-131840211D01*
X84484714Y-131886058D01*
X84487350Y-131889500D01*
X84506029Y-131862454D01*
X84548029Y-131787165D01*
X84608718Y-131672403D01*
X84683462Y-131526940D01*
X84767626Y-131359547D01*
X84772500Y-131349750D01*
X84857041Y-131181421D01*
X84932407Y-131034563D01*
X84993968Y-130917937D01*
X85037095Y-130840308D01*
X85057156Y-130810439D01*
X85057504Y-130810356D01*
X85075608Y-130837779D01*
X85115922Y-130913822D01*
X85173941Y-131029501D01*
X85245156Y-131175829D01*
X85324281Y-131342168D01*
X85404593Y-131511769D01*
X85476369Y-131661421D01*
X85534995Y-131781658D01*
X85575856Y-131863010D01*
X85594156Y-131895820D01*
X85611731Y-131872490D01*
X85655247Y-131797417D01*
X85722082Y-131675572D01*
X85809613Y-131511925D01*
X85915218Y-131311446D01*
X86036274Y-131079105D01*
X86170157Y-130819872D01*
X86314246Y-130538718D01*
X86423500Y-130324195D01*
X86573644Y-130028287D01*
X86715113Y-129748822D01*
X86845290Y-129491014D01*
X86961559Y-129260079D01*
X87061300Y-129061232D01*
X87141897Y-128899688D01*
X87200732Y-128780663D01*
X87235187Y-128709372D01*
X87243391Y-128690687D01*
X87220870Y-128670174D01*
X87152357Y-128656485D01*
X87054992Y-128649621D01*
X86945914Y-128649581D01*
X86842265Y-128656366D01*
G37*
X86842265Y-128656366D02*
X86761183Y-128669975D01*
X86719810Y-128690409D01*
X86719629Y-128690687D01*
X86700612Y-128727447D01*
X86657348Y-128814924D01*
X86593021Y-128946564D01*
X86510812Y-129115814D01*
X86413905Y-129316120D01*
X86305482Y-129540928D01*
X86188725Y-129783685D01*
X86176147Y-129809875D01*
X86058910Y-130053380D01*
X85949732Y-130278917D01*
X85851770Y-130480054D01*
X85768183Y-130650360D01*
X85702130Y-130783402D01*
X85656769Y-130872748D01*
X85635258Y-130911967D01*
X85634457Y-130912972D01*
X85612097Y-130896080D01*
X85569327Y-130832221D01*
X85512626Y-130731953D01*
X85458267Y-130625884D01*
X85305403Y-130315199D01*
X85705702Y-129515093D01*
X85809390Y-129306749D01*
X85903098Y-129116355D01*
X85983204Y-128951440D01*
X86046087Y-128819531D01*
X86088126Y-128728157D01*
X86105698Y-128684844D01*
X86106000Y-128682994D01*
X86076261Y-128666909D01*
X85994898Y-128655760D01*
X85873698Y-128651058D01*
X85856931Y-128651000D01*
X85607861Y-128651000D01*
X85342952Y-129222871D01*
X85261161Y-129395802D01*
X85187202Y-129545319D01*
X85125425Y-129663181D01*
X85080176Y-129741152D01*
X85055804Y-129770991D01*
X85053911Y-129770558D01*
X85033507Y-129735282D01*
X84991296Y-129651743D01*
X84931884Y-129529422D01*
X84859876Y-129377802D01*
X84780000Y-129206625D01*
X84530219Y-128666875D01*
X84270360Y-128657653D01*
X84150970Y-128655388D01*
X84060502Y-128657426D01*
X84013788Y-128663294D01*
X84010500Y-128665957D01*
X84023877Y-128697891D01*
X84061688Y-128779572D01*
X84120457Y-128903709D01*
X84196707Y-129063012D01*
X84286959Y-129250190D01*
X84387738Y-129457953D01*
X84413458Y-129510796D01*
X84816416Y-130338109D01*
X84508756Y-130952875D01*
X83943775Y-129801937D01*
X83378793Y-128651000D01*
X83123147Y-128651000D01*
X83004763Y-128652806D01*
X82915468Y-128657610D01*
X82870238Y-128664486D01*
X82867500Y-128666792D01*
X82881272Y-128699158D01*
X82920520Y-128781638D01*
X82982146Y-128908066D01*
X83063051Y-129072278D01*
X83160136Y-129268107D01*
X83270303Y-129489390D01*
X83390453Y-129729962D01*
X83517487Y-129983656D01*
X83648306Y-130244308D01*
X83779811Y-130505754D01*
X83908904Y-130761827D01*
X84032486Y-131006363D01*
X84147459Y-131233197D01*
X84250722Y-131436164D01*
X84339178Y-131609099D01*
X84409728Y-131745836D01*
X84459273Y-131840211D01*
X84484714Y-131886058D01*
X84487350Y-131889500D01*
X84506029Y-131862454D01*
X84548029Y-131787165D01*
X84608718Y-131672403D01*
X84683462Y-131526940D01*
X84767626Y-131359547D01*
X84772500Y-131349750D01*
X84857041Y-131181421D01*
X84932407Y-131034563D01*
X84993968Y-130917937D01*
X85037095Y-130840308D01*
X85057156Y-130810439D01*
X85057504Y-130810356D01*
X85075608Y-130837779D01*
X85115922Y-130913822D01*
X85173941Y-131029501D01*
X85245156Y-131175829D01*
X85324281Y-131342168D01*
X85404593Y-131511769D01*
X85476369Y-131661421D01*
X85534995Y-131781658D01*
X85575856Y-131863010D01*
X85594156Y-131895820D01*
X85611731Y-131872490D01*
X85655247Y-131797417D01*
X85722082Y-131675572D01*
X85809613Y-131511925D01*
X85915218Y-131311446D01*
X86036274Y-131079105D01*
X86170157Y-130819872D01*
X86314246Y-130538718D01*
X86423500Y-130324195D01*
X86573644Y-130028287D01*
X86715113Y-129748822D01*
X86845290Y-129491014D01*
X86961559Y-129260079D01*
X87061300Y-129061232D01*
X87141897Y-128899688D01*
X87200732Y-128780663D01*
X87235187Y-128709372D01*
X87243391Y-128690687D01*
X87220870Y-128670174D01*
X87152357Y-128656485D01*
X87054992Y-128649621D01*
X86945914Y-128649581D01*
X86842265Y-128656366D01*
G36*
X77059302Y-128653657D02*
G01*
X76955753Y-128662700D01*
X76877797Y-128675925D01*
X76844319Y-128690687D01*
X76824190Y-128727484D01*
X76779976Y-128815052D01*
X76714885Y-128946828D01*
X76632121Y-129116245D01*
X76534891Y-129316739D01*
X76426401Y-129541745D01*
X76309855Y-129784697D01*
X76297811Y-129809875D01*
X76181050Y-130053425D01*
X76072394Y-130278967D01*
X75974981Y-130480068D01*
X75891950Y-130650295D01*
X75826441Y-130783214D01*
X75781593Y-130872392D01*
X75760546Y-130911396D01*
X75759803Y-130912363D01*
X75741425Y-130890006D01*
X75698071Y-130816552D01*
X75632839Y-130697862D01*
X75548832Y-130539795D01*
X75449147Y-130348211D01*
X75336886Y-130128970D01*
X75215148Y-129887932D01*
X75167714Y-129793176D01*
X74597331Y-128651000D01*
X74348588Y-128650999D01*
X74216427Y-128653939D01*
X74139706Y-128663627D01*
X74110600Y-128681367D01*
X74110448Y-128690687D01*
X74126183Y-128725519D01*
X74167122Y-128810168D01*
X74230176Y-128938479D01*
X74312257Y-129104300D01*
X74410277Y-129301475D01*
X74521147Y-129523852D01*
X74641777Y-129765275D01*
X74769081Y-130019592D01*
X74899968Y-130280648D01*
X75031351Y-130542290D01*
X75160140Y-130798363D01*
X75283248Y-131042714D01*
X75397585Y-131269188D01*
X75500064Y-131471632D01*
X75587595Y-131643892D01*
X75657090Y-131779814D01*
X75705460Y-131873244D01*
X75729617Y-131918028D01*
X75731750Y-131921083D01*
X75747126Y-131893553D01*
X75788576Y-131814379D01*
X75853529Y-131688586D01*
X75939415Y-131521203D01*
X76043663Y-131317257D01*
X76163703Y-131081775D01*
X76296963Y-130819783D01*
X76440874Y-130536309D01*
X76557188Y-130306831D01*
X76707541Y-130009637D01*
X76848950Y-129729433D01*
X76978863Y-129471322D01*
X77094725Y-129240412D01*
X77193984Y-129041807D01*
X77274086Y-128880614D01*
X77332479Y-128761938D01*
X77366609Y-128690885D01*
X77374750Y-128671872D01*
X77346168Y-128657902D01*
X77272244Y-128650629D01*
X77170710Y-128649423D01*
X77059302Y-128653657D01*
G37*
X77059302Y-128653657D02*
X76955753Y-128662700D01*
X76877797Y-128675925D01*
X76844319Y-128690687D01*
X76824190Y-128727484D01*
X76779976Y-128815052D01*
X76714885Y-128946828D01*
X76632121Y-129116245D01*
X76534891Y-129316739D01*
X76426401Y-129541745D01*
X76309855Y-129784697D01*
X76297811Y-129809875D01*
X76181050Y-130053425D01*
X76072394Y-130278967D01*
X75974981Y-130480068D01*
X75891950Y-130650295D01*
X75826441Y-130783214D01*
X75781593Y-130872392D01*
X75760546Y-130911396D01*
X75759803Y-130912363D01*
X75741425Y-130890006D01*
X75698071Y-130816552D01*
X75632839Y-130697862D01*
X75548832Y-130539795D01*
X75449147Y-130348211D01*
X75336886Y-130128970D01*
X75215148Y-129887932D01*
X75167714Y-129793176D01*
X74597331Y-128651000D01*
X74348588Y-128650999D01*
X74216427Y-128653939D01*
X74139706Y-128663627D01*
X74110600Y-128681367D01*
X74110448Y-128690687D01*
X74126183Y-128725519D01*
X74167122Y-128810168D01*
X74230176Y-128938479D01*
X74312257Y-129104300D01*
X74410277Y-129301475D01*
X74521147Y-129523852D01*
X74641777Y-129765275D01*
X74769081Y-130019592D01*
X74899968Y-130280648D01*
X75031351Y-130542290D01*
X75160140Y-130798363D01*
X75283248Y-131042714D01*
X75397585Y-131269188D01*
X75500064Y-131471632D01*
X75587595Y-131643892D01*
X75657090Y-131779814D01*
X75705460Y-131873244D01*
X75729617Y-131918028D01*
X75731750Y-131921083D01*
X75747126Y-131893553D01*
X75788576Y-131814379D01*
X75853529Y-131688586D01*
X75939415Y-131521203D01*
X76043663Y-131317257D01*
X76163703Y-131081775D01*
X76296963Y-130819783D01*
X76440874Y-130536309D01*
X76557188Y-130306831D01*
X76707541Y-130009637D01*
X76848950Y-129729433D01*
X76978863Y-129471322D01*
X77094725Y-129240412D01*
X77193984Y-129041807D01*
X77274086Y-128880614D01*
X77332479Y-128761938D01*
X77366609Y-128690885D01*
X77374750Y-128671872D01*
X77346168Y-128657902D01*
X77272244Y-128650629D01*
X77170710Y-128649423D01*
X77059302Y-128653657D01*
G36*
X101893688Y-128659185D02*
G01*
X101610798Y-128664405D01*
X101383469Y-128670904D01*
X101203763Y-128679942D01*
X101063739Y-128692782D01*
X100955459Y-128710687D01*
X100870985Y-128734919D01*
X100802376Y-128766741D01*
X100741695Y-128807415D01*
X100689528Y-128850673D01*
X100577694Y-128975487D01*
X100513225Y-129118943D01*
X100489284Y-129297526D01*
X100488750Y-129334692D01*
X100498237Y-129481452D01*
X100533315Y-129593241D01*
X100603913Y-129696625D01*
X100638488Y-129735351D01*
X100716967Y-129819577D01*
X100648398Y-129841340D01*
X100551495Y-129894020D01*
X100445119Y-129985418D01*
X100348028Y-130097371D01*
X100290503Y-130187868D01*
X100250918Y-130287169D01*
X100225426Y-130412719D01*
X100210670Y-130581866D01*
X100209412Y-130606975D01*
X100209948Y-130852575D01*
X100239614Y-131052205D01*
X100302062Y-131218057D01*
X100400946Y-131362324D01*
X100452172Y-131417373D01*
X100523446Y-131484933D01*
X100593247Y-131539629D01*
X100669201Y-131582957D01*
X100758934Y-131616414D01*
X100870074Y-131641499D01*
X101010247Y-131659707D01*
X101187079Y-131672537D01*
X101408196Y-131681485D01*
X101681225Y-131688048D01*
X101846063Y-131691013D01*
X102743000Y-131706105D01*
X102743000Y-131191000D01*
X102266750Y-131191000D01*
X101644486Y-131191000D01*
X101419884Y-131190148D01*
X101249184Y-131187130D01*
X101122806Y-131181252D01*
X101031170Y-131171821D01*
X100964696Y-131158144D01*
X100913803Y-131139526D01*
X100910209Y-131137846D01*
X100802250Y-131054059D01*
X100727979Y-130930607D01*
X100687606Y-130781782D01*
X100681342Y-130621879D01*
X100709399Y-130465191D01*
X100771989Y-130326011D01*
X100869323Y-130218634D01*
X100896341Y-130200127D01*
X100940146Y-130175467D01*
X100987263Y-130156918D01*
X101047584Y-130143366D01*
X101131003Y-130133697D01*
X101247411Y-130126796D01*
X101406700Y-130121549D01*
X101618765Y-130116841D01*
X101639263Y-130116435D01*
X102266750Y-130104085D01*
X102266750Y-131191000D01*
X102743000Y-131191000D01*
X102743000Y-129127250D01*
X102266750Y-129127250D01*
X102266750Y-129635250D01*
X101679375Y-129635250D01*
X101471213Y-129634804D01*
X101317070Y-129632850D01*
X101207467Y-129628463D01*
X101132926Y-129620719D01*
X101083969Y-129608692D01*
X101051118Y-129591459D01*
X101028500Y-129571750D01*
X100979074Y-129482981D01*
X100966253Y-129369726D01*
X100993051Y-129261383D01*
X100996080Y-129255502D01*
X101033159Y-129210867D01*
X101095342Y-129177277D01*
X101190280Y-129153425D01*
X101325621Y-129138007D01*
X101509017Y-129129717D01*
X101747613Y-129127250D01*
X102266750Y-129127250D01*
X102743000Y-129127250D01*
X102743000Y-128645623D01*
X101893688Y-128659185D01*
G37*
X101893688Y-128659185D02*
X101610798Y-128664405D01*
X101383469Y-128670904D01*
X101203763Y-128679942D01*
X101063739Y-128692782D01*
X100955459Y-128710687D01*
X100870985Y-128734919D01*
X100802376Y-128766741D01*
X100741695Y-128807415D01*
X100689528Y-128850673D01*
X100577694Y-128975487D01*
X100513225Y-129118943D01*
X100489284Y-129297526D01*
X100488750Y-129334692D01*
X100498237Y-129481452D01*
X100533315Y-129593241D01*
X100603913Y-129696625D01*
X100638488Y-129735351D01*
X100716967Y-129819577D01*
X100648398Y-129841340D01*
X100551495Y-129894020D01*
X100445119Y-129985418D01*
X100348028Y-130097371D01*
X100290503Y-130187868D01*
X100250918Y-130287169D01*
X100225426Y-130412719D01*
X100210670Y-130581866D01*
X100209412Y-130606975D01*
X100209948Y-130852575D01*
X100239614Y-131052205D01*
X100302062Y-131218057D01*
X100400946Y-131362324D01*
X100452172Y-131417373D01*
X100523446Y-131484933D01*
X100593247Y-131539629D01*
X100669201Y-131582957D01*
X100758934Y-131616414D01*
X100870074Y-131641499D01*
X101010247Y-131659707D01*
X101187079Y-131672537D01*
X101408196Y-131681485D01*
X101681225Y-131688048D01*
X101846063Y-131691013D01*
X102743000Y-131706105D01*
X102743000Y-131191000D01*
X102266750Y-131191000D01*
X101644486Y-131191000D01*
X101419884Y-131190148D01*
X101249184Y-131187130D01*
X101122806Y-131181252D01*
X101031170Y-131171821D01*
X100964696Y-131158144D01*
X100913803Y-131139526D01*
X100910209Y-131137846D01*
X100802250Y-131054059D01*
X100727979Y-130930607D01*
X100687606Y-130781782D01*
X100681342Y-130621879D01*
X100709399Y-130465191D01*
X100771989Y-130326011D01*
X100869323Y-130218634D01*
X100896341Y-130200127D01*
X100940146Y-130175467D01*
X100987263Y-130156918D01*
X101047584Y-130143366D01*
X101131003Y-130133697D01*
X101247411Y-130126796D01*
X101406700Y-130121549D01*
X101618765Y-130116841D01*
X101639263Y-130116435D01*
X102266750Y-130104085D01*
X102266750Y-131191000D01*
X102743000Y-131191000D01*
X102743000Y-129127250D01*
X102266750Y-129127250D01*
X102266750Y-129635250D01*
X101679375Y-129635250D01*
X101471213Y-129634804D01*
X101317070Y-129632850D01*
X101207467Y-129628463D01*
X101132926Y-129620719D01*
X101083969Y-129608692D01*
X101051118Y-129591459D01*
X101028500Y-129571750D01*
X100979074Y-129482981D01*
X100966253Y-129369726D01*
X100993051Y-129261383D01*
X100996080Y-129255502D01*
X101033159Y-129210867D01*
X101095342Y-129177277D01*
X101190280Y-129153425D01*
X101325621Y-129138007D01*
X101509017Y-129129717D01*
X101747613Y-129127250D01*
X102266750Y-129127250D01*
X102743000Y-129127250D01*
X102743000Y-128645623D01*
X101893688Y-128659185D01*
G36*
X97936516Y-129605452D02*
G01*
X97795369Y-129879805D01*
X97654339Y-130153980D01*
X97518074Y-130418939D01*
X97391223Y-130665640D01*
X97278435Y-130885044D01*
X97184357Y-131068109D01*
X97113638Y-131205795D01*
X97101374Y-131229688D01*
X97025496Y-131380589D01*
X96962871Y-131511036D01*
X96918089Y-131610979D01*
X96895743Y-131670363D01*
X96894710Y-131682126D01*
X96932315Y-131690087D01*
X97016834Y-131696025D01*
X97131688Y-131698887D01*
X97160552Y-131699000D01*
X97409520Y-131699000D01*
X97527348Y-131460875D01*
X97645175Y-131222750D01*
X99395326Y-131222750D01*
X99513153Y-131460875D01*
X99630981Y-131699000D01*
X99885241Y-131699000D01*
X100019146Y-131696218D01*
X100099278Y-131686801D01*
X100135163Y-131669135D01*
X100139500Y-131655993D01*
X100125705Y-131620316D01*
X100086017Y-131533112D01*
X100022979Y-131399629D01*
X99939137Y-131225117D01*
X99837036Y-131014823D01*
X99719221Y-130773998D01*
X99684682Y-130703827D01*
X99155250Y-130703827D01*
X99125102Y-130707181D01*
X99041064Y-130710118D01*
X98912744Y-130712470D01*
X98749753Y-130714066D01*
X98561700Y-130714739D01*
X98533986Y-130714750D01*
X98321172Y-130714568D01*
X98163855Y-130713435D01*
X98054033Y-130710470D01*
X97983704Y-130704791D01*
X97944864Y-130695517D01*
X97929511Y-130681768D01*
X97929642Y-130662661D01*
X97933702Y-130648647D01*
X97953459Y-130600846D01*
X97996483Y-130505624D01*
X98058264Y-130372666D01*
X98134293Y-130211654D01*
X98220060Y-130032270D01*
X98240496Y-129989834D01*
X98526311Y-129397125D01*
X98840781Y-130045014D01*
X98930947Y-130231241D01*
X99011018Y-130397498D01*
X99077079Y-130535584D01*
X99125214Y-130637298D01*
X99151508Y-130694436D01*
X99155250Y-130703827D01*
X99684682Y-130703827D01*
X99588237Y-130507890D01*
X99446628Y-130221747D01*
X99343811Y-130014884D01*
X98548121Y-128416781D01*
X97936516Y-129605452D01*
G37*
X97936516Y-129605452D02*
X97795369Y-129879805D01*
X97654339Y-130153980D01*
X97518074Y-130418939D01*
X97391223Y-130665640D01*
X97278435Y-130885044D01*
X97184357Y-131068109D01*
X97113638Y-131205795D01*
X97101374Y-131229688D01*
X97025496Y-131380589D01*
X96962871Y-131511036D01*
X96918089Y-131610979D01*
X96895743Y-131670363D01*
X96894710Y-131682126D01*
X96932315Y-131690087D01*
X97016834Y-131696025D01*
X97131688Y-131698887D01*
X97160552Y-131699000D01*
X97409520Y-131699000D01*
X97527348Y-131460875D01*
X97645175Y-131222750D01*
X99395326Y-131222750D01*
X99513153Y-131460875D01*
X99630981Y-131699000D01*
X99885241Y-131699000D01*
X100019146Y-131696218D01*
X100099278Y-131686801D01*
X100135163Y-131669135D01*
X100139500Y-131655993D01*
X100125705Y-131620316D01*
X100086017Y-131533112D01*
X100022979Y-131399629D01*
X99939137Y-131225117D01*
X99837036Y-131014823D01*
X99719221Y-130773998D01*
X99684682Y-130703827D01*
X99155250Y-130703827D01*
X99125102Y-130707181D01*
X99041064Y-130710118D01*
X98912744Y-130712470D01*
X98749753Y-130714066D01*
X98561700Y-130714739D01*
X98533986Y-130714750D01*
X98321172Y-130714568D01*
X98163855Y-130713435D01*
X98054033Y-130710470D01*
X97983704Y-130704791D01*
X97944864Y-130695517D01*
X97929511Y-130681768D01*
X97929642Y-130662661D01*
X97933702Y-130648647D01*
X97953459Y-130600846D01*
X97996483Y-130505624D01*
X98058264Y-130372666D01*
X98134293Y-130211654D01*
X98220060Y-130032270D01*
X98240496Y-129989834D01*
X98526311Y-129397125D01*
X98840781Y-130045014D01*
X98930947Y-130231241D01*
X99011018Y-130397498D01*
X99077079Y-130535584D01*
X99125214Y-130637298D01*
X99151508Y-130694436D01*
X99155250Y-130703827D01*
X99684682Y-130703827D01*
X99588237Y-130507890D01*
X99446628Y-130221747D01*
X99343811Y-130014884D01*
X98548121Y-128416781D01*
X97936516Y-129605452D01*
G36*
X94932500Y-129121082D02*
G01*
X95501718Y-129132103D01*
X95707897Y-129136680D01*
X95860649Y-129142043D01*
X95970043Y-129149364D01*
X96046151Y-129159816D01*
X96099044Y-129174570D01*
X96138793Y-129194800D01*
X96158529Y-129208556D01*
X96248262Y-129311763D01*
X96288756Y-129440712D01*
X96279159Y-129580026D01*
X96218620Y-129714327D01*
X96188690Y-129753337D01*
X96156595Y-129787873D01*
X96122052Y-129812321D01*
X96073494Y-129829065D01*
X95999356Y-129840484D01*
X95888070Y-129848961D01*
X95728069Y-129856875D01*
X95674168Y-129859262D01*
X95424069Y-129874836D01*
X95226183Y-129899121D01*
X95069459Y-129935361D01*
X94942847Y-129986797D01*
X94835294Y-130056674D01*
X94754397Y-130129182D01*
X94628766Y-130293137D01*
X94552749Y-130486839D01*
X94524540Y-130716170D01*
X94529000Y-130862988D01*
X94569783Y-131101552D01*
X94654711Y-131295975D01*
X94787132Y-131450774D01*
X94970393Y-131570468D01*
X95091250Y-131621942D01*
X95171617Y-131640929D01*
X95296617Y-131657674D01*
X95455881Y-131671934D01*
X95639040Y-131683468D01*
X95835724Y-131692031D01*
X96035566Y-131697382D01*
X96228195Y-131699279D01*
X96403243Y-131697477D01*
X96550341Y-131691736D01*
X96659120Y-131681811D01*
X96719210Y-131667462D01*
X96727374Y-131660221D01*
X96735460Y-131605042D01*
X96738303Y-131508880D01*
X96735947Y-131409905D01*
X96726375Y-131206875D01*
X95980250Y-131191000D01*
X95705071Y-131183767D01*
X95489746Y-131174938D01*
X95330645Y-131164261D01*
X95224137Y-131151484D01*
X95166590Y-131136358D01*
X95163017Y-131134496D01*
X95073227Y-131048073D01*
X95015982Y-130915476D01*
X94996000Y-130748577D01*
X95004091Y-130635390D01*
X95035293Y-130553794D01*
X95083313Y-130491315D01*
X95153710Y-130428798D01*
X95242335Y-130384478D01*
X95360204Y-130355741D01*
X95518331Y-130339974D01*
X95727734Y-130334565D01*
X95744300Y-130334507D01*
X95984027Y-130325518D01*
X96174245Y-130297434D01*
X96327021Y-130246673D01*
X96454423Y-130169652D01*
X96532758Y-130100413D01*
X96645892Y-129955079D01*
X96716750Y-129782835D01*
X96748914Y-129572916D01*
X96751511Y-129443429D01*
X96726432Y-129214925D01*
X96656890Y-129029593D01*
X96539785Y-128882425D01*
X96372017Y-128768414D01*
X96317830Y-128742753D01*
X96254460Y-128717328D01*
X96188993Y-128698215D01*
X96110531Y-128684210D01*
X96008175Y-128674111D01*
X95871026Y-128666715D01*
X95688185Y-128660818D01*
X95543688Y-128657311D01*
X94932500Y-128643473D01*
X94932500Y-129121082D01*
G37*
X94932500Y-129121082D02*
X95501718Y-129132103D01*
X95707897Y-129136680D01*
X95860649Y-129142043D01*
X95970043Y-129149364D01*
X96046151Y-129159816D01*
X96099044Y-129174570D01*
X96138793Y-129194800D01*
X96158529Y-129208556D01*
X96248262Y-129311763D01*
X96288756Y-129440712D01*
X96279159Y-129580026D01*
X96218620Y-129714327D01*
X96188690Y-129753337D01*
X96156595Y-129787873D01*
X96122052Y-129812321D01*
X96073494Y-129829065D01*
X95999356Y-129840484D01*
X95888070Y-129848961D01*
X95728069Y-129856875D01*
X95674168Y-129859262D01*
X95424069Y-129874836D01*
X95226183Y-129899121D01*
X95069459Y-129935361D01*
X94942847Y-129986797D01*
X94835294Y-130056674D01*
X94754397Y-130129182D01*
X94628766Y-130293137D01*
X94552749Y-130486839D01*
X94524540Y-130716170D01*
X94529000Y-130862988D01*
X94569783Y-131101552D01*
X94654711Y-131295975D01*
X94787132Y-131450774D01*
X94970393Y-131570468D01*
X95091250Y-131621942D01*
X95171617Y-131640929D01*
X95296617Y-131657674D01*
X95455881Y-131671934D01*
X95639040Y-131683468D01*
X95835724Y-131692031D01*
X96035566Y-131697382D01*
X96228195Y-131699279D01*
X96403243Y-131697477D01*
X96550341Y-131691736D01*
X96659120Y-131681811D01*
X96719210Y-131667462D01*
X96727374Y-131660221D01*
X96735460Y-131605042D01*
X96738303Y-131508880D01*
X96735947Y-131409905D01*
X96726375Y-131206875D01*
X95980250Y-131191000D01*
X95705071Y-131183767D01*
X95489746Y-131174938D01*
X95330645Y-131164261D01*
X95224137Y-131151484D01*
X95166590Y-131136358D01*
X95163017Y-131134496D01*
X95073227Y-131048073D01*
X95015982Y-130915476D01*
X94996000Y-130748577D01*
X95004091Y-130635390D01*
X95035293Y-130553794D01*
X95083313Y-130491315D01*
X95153710Y-130428798D01*
X95242335Y-130384478D01*
X95360204Y-130355741D01*
X95518331Y-130339974D01*
X95727734Y-130334565D01*
X95744300Y-130334507D01*
X95984027Y-130325518D01*
X96174245Y-130297434D01*
X96327021Y-130246673D01*
X96454423Y-130169652D01*
X96532758Y-130100413D01*
X96645892Y-129955079D01*
X96716750Y-129782835D01*
X96748914Y-129572916D01*
X96751511Y-129443429D01*
X96726432Y-129214925D01*
X96656890Y-129029593D01*
X96539785Y-128882425D01*
X96372017Y-128768414D01*
X96317830Y-128742753D01*
X96254460Y-128717328D01*
X96188993Y-128698215D01*
X96110531Y-128684210D01*
X96008175Y-128674111D01*
X95871026Y-128666715D01*
X95688185Y-128660818D01*
X95543688Y-128657311D01*
X94932500Y-128643473D01*
X94932500Y-129121082D01*
G36*
X93972063Y-128657546D02*
G01*
X93741875Y-128666875D01*
X93710125Y-129731397D01*
X93170726Y-129191198D01*
X92631326Y-128650999D01*
X92297601Y-128652662D01*
X91963875Y-128654325D01*
X92741750Y-129415416D01*
X93519625Y-130176508D01*
X92741750Y-130936236D01*
X91963875Y-131695965D01*
X92297601Y-131697482D01*
X92631326Y-131699000D01*
X93170726Y-131158801D01*
X93710125Y-130618602D01*
X93726000Y-131150863D01*
X93741875Y-131683125D01*
X93972063Y-131692453D01*
X94202250Y-131701781D01*
X94202250Y-128648218D01*
X93972063Y-128657546D01*
G37*
X93972063Y-128657546D02*
X93741875Y-128666875D01*
X93710125Y-129731397D01*
X93170726Y-129191198D01*
X92631326Y-128650999D01*
X92297601Y-128652662D01*
X91963875Y-128654325D01*
X92741750Y-129415416D01*
X93519625Y-130176508D01*
X92741750Y-130936236D01*
X91963875Y-131695965D01*
X92297601Y-131697482D01*
X92631326Y-131699000D01*
X93170726Y-131158801D01*
X93710125Y-130618602D01*
X93726000Y-131150863D01*
X93741875Y-131683125D01*
X93972063Y-131692453D01*
X94202250Y-131701781D01*
X94202250Y-128648218D01*
X93972063Y-128657546D01*
G36*
X90043000Y-129127250D02*
G01*
X91186000Y-129127250D01*
X91186000Y-129635250D01*
X90043000Y-129635250D01*
X90043000Y-130111500D01*
X91186000Y-130111500D01*
X91186000Y-131189890D01*
X90400188Y-131198382D01*
X89614375Y-131206875D01*
X89614375Y-131683125D01*
X90616708Y-131691500D01*
X90862942Y-131692892D01*
X91088591Y-131692891D01*
X91285870Y-131691597D01*
X91446997Y-131689111D01*
X91564188Y-131685534D01*
X91629660Y-131680966D01*
X91640646Y-131678271D01*
X91644996Y-131643104D01*
X91649053Y-131550735D01*
X91652728Y-131407461D01*
X91655932Y-131219579D01*
X91658575Y-130993387D01*
X91660569Y-130735182D01*
X91661824Y-130451262D01*
X91662250Y-130153833D01*
X91662250Y-128651000D01*
X90043000Y-128651000D01*
X90043000Y-129127250D01*
G37*
X90043000Y-129127250D02*
X91186000Y-129127250D01*
X91186000Y-129635250D01*
X90043000Y-129635250D01*
X90043000Y-130111500D01*
X91186000Y-130111500D01*
X91186000Y-131189890D01*
X90400188Y-131198382D01*
X89614375Y-131206875D01*
X89614375Y-131683125D01*
X90616708Y-131691500D01*
X90862942Y-131692892D01*
X91088591Y-131692891D01*
X91285870Y-131691597D01*
X91446997Y-131689111D01*
X91564188Y-131685534D01*
X91629660Y-131680966D01*
X91640646Y-131678271D01*
X91644996Y-131643104D01*
X91649053Y-131550735D01*
X91652728Y-131407461D01*
X91655932Y-131219579D01*
X91658575Y-130993387D01*
X91660569Y-130735182D01*
X91661824Y-130451262D01*
X91662250Y-130153833D01*
X91662250Y-128651000D01*
X90043000Y-128651000D01*
X90043000Y-129127250D01*
G36*
X87280750Y-129125406D02*
G01*
X87701438Y-129134265D01*
X88122125Y-129143125D01*
X88130423Y-130421062D01*
X88138721Y-131699000D01*
X88355319Y-131699000D01*
X88467254Y-131696103D01*
X88552653Y-131688507D01*
X88593061Y-131677856D01*
X88593084Y-131677833D01*
X88597718Y-131642459D01*
X88602002Y-131550472D01*
X88605821Y-131408758D01*
X88609064Y-131224202D01*
X88611617Y-131003690D01*
X88613365Y-130754110D01*
X88614197Y-130482346D01*
X88614250Y-130391958D01*
X88614250Y-129127250D01*
X89408000Y-129127250D01*
X89408000Y-128651000D01*
X87280750Y-128651000D01*
X87280750Y-129125406D01*
G37*
X87280750Y-129125406D02*
X87701438Y-129134265D01*
X88122125Y-129143125D01*
X88130423Y-130421062D01*
X88138721Y-131699000D01*
X88355319Y-131699000D01*
X88467254Y-131696103D01*
X88552653Y-131688507D01*
X88593061Y-131677856D01*
X88593084Y-131677833D01*
X88597718Y-131642459D01*
X88602002Y-131550472D01*
X88605821Y-131408758D01*
X88609064Y-131224202D01*
X88611617Y-131003690D01*
X88613365Y-130754110D01*
X88614197Y-130482346D01*
X88614250Y-130391958D01*
X88614250Y-129127250D01*
X89408000Y-129127250D01*
X89408000Y-128651000D01*
X87280750Y-128651000D01*
X87280750Y-129125406D01*
G36*
X81922938Y-128658401D02*
G01*
X81105375Y-128666875D01*
X81086719Y-129127249D01*
X81675485Y-129127249D01*
X82264250Y-129127250D01*
X82264250Y-129633817D01*
X81684813Y-129642471D01*
X81105375Y-129651125D01*
X81096047Y-129881312D01*
X81086719Y-130111500D01*
X82264250Y-130111500D01*
X82264250Y-131191000D01*
X80676750Y-131191000D01*
X80676750Y-131699000D01*
X81687459Y-131699000D01*
X81934731Y-131698358D01*
X82161417Y-131696539D01*
X82359771Y-131693702D01*
X82522047Y-131690006D01*
X82640500Y-131685609D01*
X82707384Y-131680670D01*
X82719334Y-131677833D01*
X82723595Y-131642757D01*
X82727569Y-131550475D01*
X82731169Y-131407281D01*
X82734308Y-131219469D01*
X82736898Y-130993332D01*
X82738851Y-130735164D01*
X82740081Y-130451259D01*
X82740500Y-130153297D01*
X82740500Y-128649927D01*
X81922938Y-128658401D01*
G37*
X81922938Y-128658401D02*
X81105375Y-128666875D01*
X81086719Y-129127249D01*
X81675485Y-129127249D01*
X82264250Y-129127250D01*
X82264250Y-129633817D01*
X81684813Y-129642471D01*
X81105375Y-129651125D01*
X81096047Y-129881312D01*
X81086719Y-130111500D01*
X82264250Y-130111500D01*
X82264250Y-131191000D01*
X80676750Y-131191000D01*
X80676750Y-131699000D01*
X81687459Y-131699000D01*
X81934731Y-131698358D01*
X82161417Y-131696539D01*
X82359771Y-131693702D01*
X82522047Y-131690006D01*
X82640500Y-131685609D01*
X82707384Y-131680670D01*
X82719334Y-131677833D01*
X82723595Y-131642757D01*
X82727569Y-131550475D01*
X82731169Y-131407281D01*
X82734308Y-131219469D01*
X82736898Y-130993332D01*
X82738851Y-130735164D01*
X82740081Y-130451259D01*
X82740500Y-130153297D01*
X82740500Y-128649927D01*
X81922938Y-128658401D01*
G36*
X78962290Y-128465104D02*
G01*
X78919620Y-128546109D01*
X78854459Y-128671183D01*
X78769947Y-128834208D01*
X78669227Y-129029068D01*
X78555437Y-129249648D01*
X78431721Y-129489830D01*
X78301217Y-129743499D01*
X78167068Y-130004537D01*
X78032414Y-130266829D01*
X77900396Y-130524258D01*
X77774155Y-130770708D01*
X77656832Y-131000063D01*
X77551567Y-131206206D01*
X77461503Y-131383020D01*
X77389778Y-131524390D01*
X77339535Y-131624200D01*
X77313915Y-131676332D01*
X77311250Y-131682570D01*
X77340569Y-131689991D01*
X77418811Y-131695669D01*
X77531406Y-131698716D01*
X77581385Y-131699000D01*
X77851520Y-131699000D01*
X77969348Y-131460875D01*
X78087175Y-131222750D01*
X79837326Y-131222750D01*
X79955153Y-131460875D01*
X80072981Y-131699000D01*
X80327241Y-131699000D01*
X80445260Y-131695897D01*
X80534158Y-131687652D01*
X80578919Y-131675858D01*
X80581500Y-131672022D01*
X80567952Y-131639077D01*
X80529335Y-131556110D01*
X80468688Y-131429263D01*
X80389051Y-131264680D01*
X80293465Y-131068504D01*
X80184969Y-130846879D01*
X80120057Y-130714750D01*
X79595171Y-130714750D01*
X78330172Y-130714750D01*
X78601805Y-130151187D01*
X78687846Y-129971597D01*
X78765993Y-129806460D01*
X78831364Y-129666251D01*
X78879080Y-129561444D01*
X78904260Y-129502513D01*
X78905076Y-129500312D01*
X78933904Y-129438066D01*
X78957419Y-129413289D01*
X78969872Y-129425439D01*
X78993843Y-129464729D01*
X79031597Y-129535735D01*
X79085402Y-129643033D01*
X79157525Y-129791197D01*
X79250232Y-129984804D01*
X79365791Y-130228428D01*
X79456726Y-130421062D01*
X79595171Y-130714750D01*
X80120057Y-130714750D01*
X80066604Y-130605947D01*
X79941408Y-130351853D01*
X79812424Y-130090739D01*
X79682689Y-129828750D01*
X79555245Y-129572027D01*
X79433132Y-129326715D01*
X79319388Y-129098956D01*
X79217055Y-128894895D01*
X79129172Y-128720675D01*
X79058780Y-128582438D01*
X79008917Y-128486328D01*
X78982625Y-128438489D01*
X78979328Y-128434283D01*
X78962290Y-128465104D01*
G37*
X78962290Y-128465104D02*
X78919620Y-128546109D01*
X78854459Y-128671183D01*
X78769947Y-128834208D01*
X78669227Y-129029068D01*
X78555437Y-129249648D01*
X78431721Y-129489830D01*
X78301217Y-129743499D01*
X78167068Y-130004537D01*
X78032414Y-130266829D01*
X77900396Y-130524258D01*
X77774155Y-130770708D01*
X77656832Y-131000063D01*
X77551567Y-131206206D01*
X77461503Y-131383020D01*
X77389778Y-131524390D01*
X77339535Y-131624200D01*
X77313915Y-131676332D01*
X77311250Y-131682570D01*
X77340569Y-131689991D01*
X77418811Y-131695669D01*
X77531406Y-131698716D01*
X77581385Y-131699000D01*
X77851520Y-131699000D01*
X77969348Y-131460875D01*
X78087175Y-131222750D01*
X79837326Y-131222750D01*
X79955153Y-131460875D01*
X80072981Y-131699000D01*
X80327241Y-131699000D01*
X80445260Y-131695897D01*
X80534158Y-131687652D01*
X80578919Y-131675858D01*
X80581500Y-131672022D01*
X80567952Y-131639077D01*
X80529335Y-131556110D01*
X80468688Y-131429263D01*
X80389051Y-131264680D01*
X80293465Y-131068504D01*
X80184969Y-130846879D01*
X80120057Y-130714750D01*
X79595171Y-130714750D01*
X78330172Y-130714750D01*
X78601805Y-130151187D01*
X78687846Y-129971597D01*
X78765993Y-129806460D01*
X78831364Y-129666251D01*
X78879080Y-129561444D01*
X78904260Y-129502513D01*
X78905076Y-129500312D01*
X78933904Y-129438066D01*
X78957419Y-129413289D01*
X78969872Y-129425439D01*
X78993843Y-129464729D01*
X79031597Y-129535735D01*
X79085402Y-129643033D01*
X79157525Y-129791197D01*
X79250232Y-129984804D01*
X79365791Y-130228428D01*
X79456726Y-130421062D01*
X79595171Y-130714750D01*
X80120057Y-130714750D01*
X80066604Y-130605947D01*
X79941408Y-130351853D01*
X79812424Y-130090739D01*
X79682689Y-129828750D01*
X79555245Y-129572027D01*
X79433132Y-129326715D01*
X79319388Y-129098956D01*
X79217055Y-128894895D01*
X79129172Y-128720675D01*
X79058780Y-128582438D01*
X79008917Y-128486328D01*
X78982625Y-128438489D01*
X78979328Y-128434283D01*
X78962290Y-128465104D01*
G36*
X73128188Y-128658401D02*
G01*
X72310625Y-128666875D01*
X72301312Y-128896340D01*
X72291998Y-129125806D01*
X72872812Y-129134465D01*
X73453625Y-129143125D01*
X73462886Y-129388466D01*
X73472146Y-129633807D01*
X72891386Y-129642466D01*
X72310625Y-129651125D01*
X72301312Y-129880590D01*
X72291998Y-130110056D01*
X72872812Y-130118715D01*
X73453625Y-130127375D01*
X73462331Y-130659187D01*
X73471036Y-131191000D01*
X71882000Y-131191000D01*
X71882000Y-131699000D01*
X72892709Y-131699000D01*
X73139981Y-131698358D01*
X73366667Y-131696539D01*
X73565021Y-131693702D01*
X73727297Y-131690006D01*
X73845750Y-131685609D01*
X73912634Y-131680670D01*
X73924584Y-131677833D01*
X73928845Y-131642757D01*
X73932819Y-131550475D01*
X73936419Y-131407281D01*
X73939558Y-131219469D01*
X73942148Y-130993332D01*
X73944101Y-130735164D01*
X73945331Y-130451259D01*
X73945750Y-130153297D01*
X73945750Y-128649927D01*
X73128188Y-128658401D01*
G37*
X73128188Y-128658401D02*
X72310625Y-128666875D01*
X72301312Y-128896340D01*
X72291998Y-129125806D01*
X72872812Y-129134465D01*
X73453625Y-129143125D01*
X73462886Y-129388466D01*
X73472146Y-129633807D01*
X72891386Y-129642466D01*
X72310625Y-129651125D01*
X72301312Y-129880590D01*
X72291998Y-130110056D01*
X72872812Y-130118715D01*
X73453625Y-130127375D01*
X73462331Y-130659187D01*
X73471036Y-131191000D01*
X71882000Y-131191000D01*
X71882000Y-131699000D01*
X72892709Y-131699000D01*
X73139981Y-131698358D01*
X73366667Y-131696539D01*
X73565021Y-131693702D01*
X73727297Y-131690006D01*
X73845750Y-131685609D01*
X73912634Y-131680670D01*
X73924584Y-131677833D01*
X73928845Y-131642757D01*
X73932819Y-131550475D01*
X73936419Y-131407281D01*
X73939558Y-131219469D01*
X73942148Y-130993332D01*
X73944101Y-130735164D01*
X73945331Y-130451259D01*
X73945750Y-130153297D01*
X73945750Y-128649927D01*
X73128188Y-128658401D01*
%TD*%
M02*
