%FSLAX45Y45*%
G04 Gerber Fmt 4.5, Leading zero omitted, Abs format (unit mm)*
G04 Created by KiCad (PCBNEW (5.1.6)-1) date 2020-10-24 16:49:14*
%MOMM*%
%LPD*%
G01*
G04 APERTURE LIST*
%TA.AperFunction,Profile*%
%ADD10C,0.200000*%
%TD*%
%ADD11C,0.200000*%
%ADD12C,0.300000*%
G04 APERTURE END LIST*
D10*
X17404272Y-13561229D02*
X18811051Y-13858875D01*
X26255073Y-12621391D02*
X27430869Y-12372975D01*
X22291932Y-14620391D02*
G75*
G02*
X22387038Y-14651293I20791J-97815D01*
G01*
X21658216Y-14775690D02*
G75*
G02*
X21539610Y-14698667I-20791J97815D01*
G01*
X26427544Y-13913774D02*
X26178050Y-12739997D01*
X18519975Y-15236676D02*
X17113196Y-14930636D01*
X13936079Y-14151107D02*
G75*
G02*
X14010394Y-14218020I-20791J-97815D01*
G01*
X23468225Y-12927490D02*
G75*
G02*
X23545249Y-12808884I97815J20791D01*
G01*
X17285666Y-13638253D02*
G75*
G02*
X17404272Y-13561229I97815J-20791D01*
G01*
X18888075Y-13977481D02*
X18638581Y-15159652D01*
X27721945Y-13742381D02*
X26546150Y-13990798D01*
X17036172Y-14812030D02*
X17285666Y-13638253D01*
X17113196Y-14930636D02*
G75*
G02*
X17036172Y-14812030I20791J97815D01*
G01*
X27798969Y-13623776D02*
G75*
G02*
X27721945Y-13742381I-97815J-20791D01*
G01*
X24509366Y-14026390D02*
X24239081Y-12754799D01*
X27549475Y-12449998D02*
X27798969Y-13623776D01*
X26178050Y-12739997D02*
G75*
G02*
X26255073Y-12621391I97815J20791D01*
G01*
X22215509Y-13304585D02*
G75*
G02*
X22096903Y-13227562I-20791J97815D01*
G01*
X18638581Y-15159652D02*
G75*
G02*
X18519975Y-15236676I-97815J20791D01*
G01*
X26546150Y-13990798D02*
G75*
G02*
X26427544Y-13913774I-20791J97815D01*
G01*
X21978297Y-13150538D02*
G75*
G02*
X22096903Y-13227562I20791J-97815D01*
G01*
X27430869Y-12372975D02*
G75*
G02*
X27549475Y-12449998I20791J-97815D01*
G01*
X18811051Y-13858875D02*
G75*
G02*
X18888075Y-13977481I-20791J-97815D01*
G01*
X23757235Y-14360763D02*
G75*
G02*
X23682921Y-14427676I-95106J30902D01*
G01*
X14084708Y-14284933D02*
G75*
G02*
X14010394Y-14218020I20791J97815D01*
G01*
X22482143Y-14682194D02*
G75*
G02*
X22387038Y-14651293I-20791J97815D01*
G01*
X16411575Y-14586143D02*
G75*
G02*
X16292969Y-14663167I-97815J20791D01*
G01*
X21269325Y-13427075D02*
G75*
G02*
X21346349Y-13308469I97815J20791D01*
G01*
X14081080Y-12648417D02*
G75*
G02*
X14158103Y-12767022I-20791J-97815D01*
G01*
X21539610Y-14698667D02*
X21269325Y-13427075D01*
X21658216Y-14775690D02*
X22291932Y-14620391D01*
X13280138Y-14011682D02*
G75*
G02*
X13203115Y-13893076I20791J97815D01*
G01*
X23545249Y-12808884D02*
X24120475Y-12677775D01*
X16292969Y-14663167D02*
X15689996Y-14523423D01*
X15961225Y-13143294D02*
G75*
G02*
X15842619Y-13220318I-97815J20791D01*
G01*
X23757236Y-14360763D02*
G75*
G02*
X23831550Y-14293850I95106J-30902D01*
G01*
X14081079Y-12648416D02*
X13592006Y-12544461D01*
X23831550Y-14293850D02*
X24432342Y-14144997D01*
X15594891Y-14554325D02*
G75*
G02*
X15689996Y-14523423I74314J-66913D01*
G01*
X13280138Y-14011682D02*
X13936079Y-14151107D01*
X15594891Y-14554325D02*
G75*
G02*
X15499785Y-14585227I-74315J66913D01*
G01*
X24120475Y-12677775D02*
G75*
G02*
X24239081Y-12754799I20791J-97815D01*
G01*
X16596073Y-13195945D02*
G75*
G02*
X16673096Y-13314551I-20791J-97815D01*
G01*
X15499785Y-14585227D02*
X14084708Y-14284933D01*
X13203115Y-13893076D02*
X13473400Y-12621484D01*
X22215509Y-13304585D02*
X23391202Y-13046096D01*
X23468225Y-12927490D02*
G75*
G02*
X23391202Y-13046096I-97815J-20791D01*
G01*
X23682921Y-14427676D02*
X22482143Y-14682194D01*
X16596073Y-13195945D02*
X16079831Y-13066271D01*
X13473400Y-12621484D02*
G75*
G02*
X13592006Y-12544461I97815J-20791D01*
G01*
X14235127Y-12885628D02*
X15842619Y-13220318D01*
X16411575Y-14586143D02*
X16673096Y-13314551D01*
X24509366Y-14026390D02*
G75*
G02*
X24432342Y-14144997I-97815J-20791D01*
G01*
X21978297Y-13150538D02*
X21346349Y-13308469D01*
X14235127Y-12885628D02*
G75*
G02*
X14158103Y-12767022I20791J97815D01*
G01*
X15961225Y-13143294D02*
G75*
G02*
X16079831Y-13066271I97815J-20791D01*
G01*
X16810503Y-12918737D02*
G75*
G02*
X16733480Y-12800132I20791J97815D01*
G01*
X37009375Y-6835625D02*
X38317500Y-6835625D01*
X38417500Y-5655625D02*
X38417500Y-6735625D01*
X37009375Y-6835625D02*
G75*
G02*
X36909375Y-6735625I0J100000D01*
G01*
X38317500Y-5555625D02*
G75*
G02*
X38417500Y-5655625I0J-100000D01*
G01*
X37009375Y-5555625D02*
X38317500Y-5555625D01*
X36909375Y-5655625D02*
G75*
G02*
X37009375Y-5555625I100000J0D01*
G01*
X36909375Y-5655625D02*
X36909375Y-6735625D01*
X38417500Y-6735625D02*
G75*
G02*
X38317500Y-6835625I-100000J0D01*
G01*
X33468025Y-8348750D02*
G75*
G02*
X33368025Y-8248750I0J100000D01*
G01*
X8033125Y-11553750D02*
X7362530Y-11553750D01*
X5645525Y-10053750D02*
G75*
G02*
X5745525Y-10153750I0J-100000D01*
G01*
X5845525Y-10253750D02*
G75*
G02*
X5745525Y-10153750I0J100000D01*
G01*
X5645525Y-10053750D02*
X5145525Y-10053750D01*
X33268025Y-8148750D02*
X32768025Y-8148750D01*
X5045525Y-10153750D02*
G75*
G02*
X5145525Y-10053750I100000J0D01*
G01*
X32768025Y-9648750D02*
G75*
G02*
X32668025Y-9548750I0J100000D01*
G01*
X5045525Y-11453750D02*
X5045525Y-10153750D01*
X8033125Y-10053750D02*
X7533125Y-10053750D01*
X35055625Y-8248750D02*
G75*
G02*
X35155625Y-8148750I100000J0D01*
G01*
X8033125Y-10053750D02*
G75*
G02*
X8133125Y-10153750I0J-100000D01*
G01*
X8133125Y-11453750D02*
X8133125Y-10153750D01*
X7275928Y-11603750D02*
G75*
G02*
X7362530Y-11553750I86603J-50000D01*
G01*
X33268025Y-8148750D02*
G75*
G02*
X33368025Y-8248750I0J-100000D01*
G01*
X5989325Y-11653750D02*
G75*
G02*
X5902722Y-11603750I0J100000D01*
G01*
X7433125Y-10153750D02*
G75*
G02*
X7333125Y-10253750I-100000J0D01*
G01*
X32768025Y-9648750D02*
X33438620Y-9648750D01*
X7275927Y-11603750D02*
G75*
G02*
X7189325Y-11653750I-86603J50000D01*
G01*
X35755625Y-9548750D02*
X35755625Y-8248750D01*
X5816120Y-11553750D02*
G75*
G02*
X5902722Y-11603750I0J-100000D01*
G01*
X8133125Y-11453750D02*
G75*
G02*
X8033125Y-11553750I-100000J0D01*
G01*
X7433125Y-10153750D02*
G75*
G02*
X7533125Y-10053750I100000J0D01*
G01*
X34238850Y-5938750D02*
G75*
G02*
X34338850Y-6038750I0J-100000D01*
G01*
X5145525Y-11553750D02*
G75*
G02*
X5045525Y-11453750I0J100000D01*
G01*
X32895050Y-4538750D02*
X34095050Y-4538750D01*
X32051250Y-6138750D02*
G75*
G02*
X31951250Y-6038750I0J100000D01*
G01*
X32751250Y-5938750D02*
X34238850Y-5938750D01*
X34438850Y-6138750D02*
G75*
G02*
X34338850Y-6038750I0J100000D01*
G01*
X32808447Y-4588750D02*
G75*
G02*
X32895050Y-4538750I86603J-50000D01*
G01*
X31951250Y-4738750D02*
G75*
G02*
X32051250Y-4638750I100000J0D01*
G01*
X35038850Y-6038750D02*
G75*
G02*
X34938850Y-6138750I-100000J0D01*
G01*
X34095050Y-4538750D02*
G75*
G02*
X34181653Y-4588750I0J-100000D01*
G01*
X32651250Y-6038750D02*
G75*
G02*
X32551250Y-6138750I-100000J0D01*
G01*
X35038850Y-4738750D02*
X35038850Y-6038750D01*
X34438850Y-6138750D02*
X34938850Y-6138750D01*
X32051250Y-6138750D02*
X32551250Y-6138750D01*
X34338850Y-6038750D02*
X34338850Y-6038750D01*
X34938850Y-4638750D02*
G75*
G02*
X35038850Y-4738750I0J-100000D01*
G01*
X5145525Y-11553750D02*
X5816120Y-11553750D01*
X31951250Y-4738750D02*
X31951250Y-6038750D01*
X34268255Y-4638750D02*
G75*
G02*
X34181653Y-4588750I0J100000D01*
G01*
X32051250Y-4638750D02*
X32721845Y-4638750D01*
X32651250Y-6038750D02*
G75*
G02*
X32751250Y-5938750I100000J0D01*
G01*
X32808447Y-4588750D02*
G75*
G02*
X32721845Y-4638750I-86603J50000D01*
G01*
X32651250Y-6038750D02*
X32651250Y-6038750D01*
X16961888Y-7006005D02*
G75*
G02*
X16843282Y-7083028I-97815J20791D01*
G01*
X17532876Y-7229606D02*
G75*
G02*
X17455852Y-7111000I20791J97815D01*
G01*
X17211382Y-5832228D02*
X16961887Y-7006005D01*
X17134358Y-5713622D02*
G75*
G02*
X17211382Y-5832228I-20791J-97815D01*
G01*
X17455852Y-7111000D02*
X17705346Y-5937223D01*
X16843282Y-7083028D02*
X15669504Y-6833534D01*
X15592481Y-6714928D02*
X15841975Y-5541151D01*
X17705346Y-5937223D02*
G75*
G02*
X17823952Y-5860199I97815J-20791D01*
G01*
X17823952Y-5860199D02*
X18997729Y-6109693D01*
X19074753Y-6228299D02*
X18825259Y-7402076D01*
X16128095Y-8776336D02*
X16377589Y-7602558D01*
X15669504Y-6833534D02*
G75*
G02*
X15592481Y-6714928I20791J97815D01*
G01*
X18825259Y-7402077D02*
G75*
G02*
X18706653Y-7479100I-97815J20791D01*
G01*
X18997729Y-6109693D02*
G75*
G02*
X19074753Y-6228299I-20791J-97815D01*
G01*
X17378895Y-9144436D02*
X16205118Y-8894941D01*
X16496194Y-7525535D02*
X17669972Y-7775029D01*
X16377589Y-7602558D02*
G75*
G02*
X16496194Y-7525535I97815J-20791D01*
G01*
X17497501Y-9067412D02*
G75*
G02*
X17378895Y-9144436I-97815J20791D01*
G01*
X15960581Y-5464128D02*
X17134358Y-5713622D01*
X15841975Y-5541151D02*
G75*
G02*
X15960581Y-5464128I97815J-20791D01*
G01*
X18706653Y-7479100D02*
X17532876Y-7229606D01*
X13806133Y-6437462D02*
G75*
G02*
X13729110Y-6318857I20791J97815D01*
G01*
X15348010Y-5436156D02*
X15098516Y-6609933D01*
X13116539Y-6290885D02*
X11942762Y-6041391D01*
X11942762Y-6041391D02*
G75*
G02*
X11865739Y-5922785I20791J97815D01*
G01*
X14097209Y-5068056D02*
X15270987Y-5317550D01*
X14979910Y-6686957D02*
X13806133Y-6437462D01*
X15098516Y-6609933D02*
G75*
G02*
X14979910Y-6686957I-97815J20791D01*
G01*
X13407616Y-4921478D02*
G75*
G02*
X13484639Y-5040084I-20791J-97815D01*
G01*
X13729110Y-6318857D02*
X13978604Y-5145080D01*
X12233838Y-4671984D02*
X13407616Y-4921478D01*
X13978604Y-5145080D02*
G75*
G02*
X14097209Y-5068056I97815J-20791D01*
G01*
X15270987Y-5317550D02*
G75*
G02*
X15348010Y-5436156I-20791J-97815D01*
G01*
X34938850Y-4638750D02*
X34268255Y-4638750D01*
X12115232Y-4749008D02*
G75*
G02*
X12233838Y-4671984I97815J-20791D01*
G01*
X13235145Y-6213861D02*
G75*
G02*
X13116539Y-6290885I-97815J20791D01*
G01*
X11865739Y-5922785D02*
X12115233Y-4749008D01*
X13484639Y-5040084D02*
X13235145Y-6213861D01*
X23869777Y-8542458D02*
G75*
G02*
X23751171Y-8465434I-20791J97815D01*
G01*
X25900662Y-4834178D02*
G75*
G02*
X25977685Y-4715572I97815J20791D01*
G01*
X24286785Y-6404027D02*
X24037291Y-5230250D01*
X21715329Y-7569123D02*
X22889106Y-7319629D01*
X23501677Y-7291657D02*
G75*
G02*
X23578700Y-7173051I97815J20791D01*
G01*
X22250943Y-5507716D02*
X23424720Y-5258222D01*
X22173920Y-5626321D02*
G75*
G02*
X22250943Y-5507716I97815J20791D01*
G01*
X25977685Y-4715572D02*
X27151463Y-4466078D01*
X21852425Y-7023700D02*
X20678648Y-7273194D01*
X20678648Y-7273194D02*
G75*
G02*
X20560042Y-7196170I-20791J97815D01*
G01*
X25579168Y-6231556D02*
X24405391Y-6481050D01*
X25614542Y-8069362D02*
X25365048Y-6895585D01*
X22542020Y-6877122D02*
G75*
G02*
X22423414Y-6800099I-20791J97815D01*
G01*
X21679955Y-5731317D02*
X21929449Y-6905094D01*
X27519562Y-5716879D02*
G75*
G02*
X27442539Y-5835485I-97815J-20791D01*
G01*
X21638306Y-7687728D02*
G75*
G02*
X21715329Y-7569123I97815J20791D01*
G01*
X26150156Y-6007955D02*
X25900662Y-4834178D01*
X25733148Y-8146386D02*
G75*
G02*
X25614542Y-8069362I-20791J97815D01*
G01*
X25406697Y-4939173D02*
X25656191Y-6112950D01*
X21929449Y-6905094D02*
G75*
G02*
X21852425Y-7023700I-97815J-20791D01*
G01*
X26268762Y-6084979D02*
G75*
G02*
X26150156Y-6007955I-20791J97815D01*
G01*
X39131875Y-4048125D02*
G75*
G02*
X39449375Y-4365625I0J-317500D01*
G01*
X2301875Y-4365625D02*
G75*
G02*
X2619375Y-4048125I317500J0D01*
G01*
X18256250Y-15954375D02*
X21113750Y-15954375D01*
X24871083Y-7000580D02*
X25120577Y-8174357D01*
X20143035Y-9334601D02*
G75*
G02*
X20024429Y-9257577I-20791J97815D01*
G01*
X21316812Y-9085107D02*
X20143035Y-9334601D01*
X24405391Y-6481050D02*
G75*
G02*
X24286785Y-6404027I-20791J97815D01*
G01*
X23180183Y-8689035D02*
X22006406Y-8938529D01*
X21561349Y-5654293D02*
G75*
G02*
X21679955Y-5731317I20791J-97815D01*
G01*
X23424720Y-5258222D02*
G75*
G02*
X23543326Y-5335245I20791J-97815D01*
G01*
X21887800Y-8861506D02*
X21638306Y-7687729D01*
X19774935Y-8083800D02*
G75*
G02*
X19851958Y-7965194I97815J20791D01*
G01*
X26615849Y-6527485D02*
G75*
G02*
X26734455Y-6604509I20791J-97815D01*
G01*
X19851958Y-7965194D02*
X21025735Y-7715700D01*
X21144341Y-7792724D02*
X21393835Y-8966501D01*
X23257206Y-8570429D02*
G75*
G02*
X23180183Y-8689035I-97815J-20791D01*
G01*
X21025735Y-7715700D02*
G75*
G02*
X21144341Y-7792724I20791J-97815D01*
G01*
X20024429Y-9257577D02*
X19774935Y-8083800D01*
X27270068Y-4543102D02*
X27519562Y-5716879D01*
X27151463Y-4466078D02*
G75*
G02*
X27270068Y-4543102I20791J-97815D01*
G01*
X23007712Y-7396652D02*
X23257206Y-8570429D01*
X21393835Y-8966501D02*
G75*
G02*
X21316812Y-9085107I-97815J-20791D01*
G01*
X24114314Y-5111644D02*
X25288091Y-4862150D01*
X25656191Y-6112950D02*
G75*
G02*
X25579168Y-6231556I-97815J-20791D01*
G01*
X24037291Y-5230250D02*
G75*
G02*
X24114314Y-5111644I97815J20791D01*
G01*
X25120577Y-8174358D02*
G75*
G02*
X25043554Y-8292963I-97815J-20791D01*
G01*
X23792820Y-6509022D02*
G75*
G02*
X23715797Y-6627628I-97815J-20791D01*
G01*
X22423414Y-6800099D02*
X22173920Y-5626321D01*
X20387572Y-5903787D02*
X21561349Y-5654293D01*
X22006406Y-8938529D02*
G75*
G02*
X21887800Y-8861506I-20791J97815D01*
G01*
X25043554Y-8292963D02*
X23869777Y-8542458D01*
X23543326Y-5335245D02*
X23792820Y-6509022D01*
X20310548Y-6022393D02*
G75*
G02*
X20387572Y-5903787I97815J20791D01*
G01*
X23715797Y-6627628D02*
X22542019Y-6877122D01*
X20560042Y-7196170D02*
X20310548Y-6022393D01*
X39131875Y-14525625D02*
X27860625Y-14525625D01*
X39449375Y-14208125D02*
G75*
G02*
X39131875Y-14525625I-317500J0D01*
G01*
X27442539Y-5835485D02*
X26268762Y-6084979D01*
X22889106Y-7319629D02*
G75*
G02*
X23007712Y-7396652I20791J-97815D01*
G01*
X23751171Y-8465434D02*
X23501677Y-7291657D01*
X23578700Y-7173051D02*
X24752478Y-6923557D01*
X25288091Y-4862150D02*
G75*
G02*
X25406697Y-4939173I20791J-97815D01*
G01*
X24752478Y-6923557D02*
G75*
G02*
X24871083Y-7000580I20791J-97815D01*
G01*
X35753750Y-12635000D02*
X36953750Y-12635000D01*
X38853750Y-12635000D02*
G75*
G02*
X38953750Y-12735000I0J-100000D01*
G01*
X37053750Y-13935000D02*
G75*
G02*
X36953750Y-14035000I-100000J0D01*
G01*
X2619375Y-14525625D02*
X11544300Y-14525625D01*
X39131875Y-4048125D02*
X27781250Y-4048125D01*
X35753750Y-14035000D02*
G75*
G02*
X35653750Y-13935000I0J100000D01*
G01*
X36953750Y-12635000D02*
G75*
G02*
X37053750Y-12735000I0J-100000D01*
G01*
X37053750Y-12735000D02*
X37053750Y-13935000D01*
X19923125Y-5715000D02*
X19446875Y-5715000D01*
X35653750Y-12735000D02*
G75*
G02*
X35753750Y-12635000I100000J0D01*
G01*
X2301875Y-4365625D02*
X2301875Y-14208125D01*
X38853750Y-14035000D02*
X37653750Y-14035000D01*
X36953750Y-14035000D02*
X35753750Y-14035000D01*
X38953750Y-13935000D02*
G75*
G02*
X38853750Y-14035000I-100000J0D01*
G01*
X35048750Y-12635000D02*
G75*
G02*
X35148750Y-12735000I0J-100000D01*
G01*
X27860625Y-14525625D02*
X21113750Y-15954375D01*
X11544300Y-14525625D02*
X18256250Y-15954375D01*
X27781250Y-4048125D02*
X19923125Y-5715000D01*
X2619375Y-14525625D02*
G75*
G02*
X2301875Y-14208125I0J317500D01*
G01*
X11588750Y-4048125D02*
X19446875Y-5715000D01*
X37653750Y-12635000D02*
X38853750Y-12635000D01*
X2619375Y-4048125D02*
X11588750Y-4048125D01*
X37553750Y-13935000D02*
X37553750Y-12735000D01*
X37653750Y-14035000D02*
G75*
G02*
X37553750Y-13935000I0J100000D01*
G01*
X39449375Y-4365625D02*
X39449375Y-14208125D01*
X38953750Y-12735000D02*
X38953750Y-13935000D01*
X37553750Y-12735000D02*
G75*
G02*
X37653750Y-12635000I100000J0D01*
G01*
X35653750Y-13935000D02*
X35653750Y-12735000D01*
X17739743Y-9737418D02*
G75*
G02*
X17816767Y-9856024I-20791J-97815D01*
G01*
X16274889Y-10857330D02*
G75*
G02*
X16197866Y-10738725I20791J97815D01*
G01*
X14947132Y-12522666D02*
G75*
G02*
X14870108Y-12404060I20791J97815D01*
G01*
X17567272Y-11029801D02*
G75*
G02*
X17448666Y-11106825I-97815J20791D01*
G01*
X16120909Y-12772160D02*
X14947132Y-12522666D01*
X11511466Y-10361116D02*
X12685243Y-10610610D01*
X12512773Y-11902993D02*
G75*
G02*
X12394167Y-11980016I-97815J20791D01*
G01*
X15953395Y-9459952D02*
X15703901Y-10633729D01*
X10895444Y-12456791D02*
G75*
G02*
X11014050Y-12379768I97815J-20791D01*
G01*
X12015356Y-13921645D02*
G75*
G02*
X11896750Y-13998668I-97815J20791D01*
G01*
X12187827Y-12629262D02*
G75*
G02*
X12264850Y-12747868I-20791J-97815D01*
G01*
X12394167Y-11980016D02*
X11220390Y-11730522D01*
X16239515Y-12695136D02*
G75*
G02*
X16120909Y-12772160I-97815J20791D01*
G01*
X12264850Y-12747868D02*
X12015356Y-13921645D01*
X10722973Y-13749174D02*
G75*
G02*
X10645950Y-13630568I20791J97815D01*
G01*
X11014050Y-12379768D02*
X12187827Y-12629262D01*
X11392860Y-10438139D02*
G75*
G02*
X11511466Y-10361116I97815J-20791D01*
G01*
X15876372Y-9341346D02*
G75*
G02*
X15953395Y-9459952I-20791J-97815D01*
G01*
X16197866Y-10738725D02*
X16447360Y-9564948D01*
X12762267Y-10729216D02*
X12512772Y-11902993D01*
X10645950Y-13630568D02*
X10895444Y-12456791D01*
X17101579Y-11549331D02*
X18275357Y-11798825D01*
X15238208Y-11153259D02*
X16411985Y-11402753D01*
X14411518Y-10461259D02*
G75*
G02*
X14334495Y-10342653I20791J97815D01*
G01*
X14583988Y-9168876D02*
G75*
G02*
X14702594Y-9091852I97815J-20791D01*
G01*
X13374837Y-10757187D02*
X14548614Y-11006682D01*
X14548614Y-11006682D02*
G75*
G02*
X14625638Y-11125288I-20791J-97815D01*
G01*
X15119602Y-11230283D02*
G75*
G02*
X15238208Y-11153259I97815J-20791D01*
G01*
X16489009Y-11521359D02*
X16239515Y-12695136D01*
X14257538Y-12376088D02*
X13083761Y-12126594D01*
X13006737Y-12007988D02*
X13256231Y-10834211D01*
X14870108Y-12404060D02*
X15119602Y-11230283D01*
X14376144Y-12299065D02*
G75*
G02*
X14257538Y-12376088I-97815J20791D01*
G01*
X16447360Y-9564948D02*
G75*
G02*
X16565966Y-9487924I97815J-20791D01*
G01*
X13256231Y-10834211D02*
G75*
G02*
X13374837Y-10757187I97815J-20791D01*
G01*
X13083761Y-12126594D02*
G75*
G02*
X13006737Y-12007988I20791J97815D01*
G01*
X14625638Y-11125288D02*
X14376144Y-12299064D01*
X16565966Y-9487924D02*
X17739743Y-9737418D01*
X16411985Y-11402753D02*
G75*
G02*
X16489009Y-11521359I-20791J-97815D01*
G01*
X11143366Y-11611916D02*
X11392860Y-10438139D01*
X12685243Y-10610610D02*
G75*
G02*
X12762267Y-10729216I-20791J-97815D01*
G01*
X11220390Y-11730522D02*
G75*
G02*
X11143366Y-11611916I20791J97815D01*
G01*
X11896750Y-13998668D02*
X10722973Y-13749174D01*
X15703901Y-10633729D02*
G75*
G02*
X15585295Y-10710753I-97815J20791D01*
G01*
X17448666Y-11106825D02*
X16274889Y-10857330D01*
X17816767Y-9856024D02*
X17567272Y-11029801D01*
X12079858Y-6586813D02*
G75*
G02*
X12156882Y-6705419I-20791J-97815D01*
G01*
X13943229Y-6982885D02*
G75*
G02*
X14020253Y-7101491I-20791J-97815D01*
G01*
X14020253Y-7101491D02*
X13770759Y-8275268D01*
X12720617Y-8772804D02*
G75*
G02*
X12839223Y-8695780I97815J-20791D01*
G01*
X14013000Y-8945274D02*
G75*
G02*
X14090024Y-9063880I-20791J-97815D01*
G01*
X12548147Y-10065187D02*
G75*
G02*
X12471123Y-9946581I20791J97815D01*
G01*
X14090024Y-9063880D02*
X13840530Y-10237657D01*
X14702594Y-9091852D02*
X15876372Y-9341346D01*
X11907388Y-7879197D02*
G75*
G02*
X11788782Y-7956220I-97815J20791D01*
G01*
X12650846Y-6810415D02*
G75*
G02*
X12769452Y-6733391I97815J-20791D01*
G01*
X12401352Y-7984192D02*
X12650846Y-6810415D01*
X11858553Y-9918609D02*
X10684776Y-9669115D01*
X12471123Y-9946581D02*
X12720617Y-8772804D01*
X15585295Y-10710753D02*
X14411518Y-10461259D01*
X14334495Y-10342653D02*
X14583989Y-9168876D01*
X14341747Y-8498870D02*
G75*
G02*
X14264724Y-8380264I20791J97815D01*
G01*
X10975852Y-8299708D02*
X12149629Y-8549203D01*
X13652153Y-8352292D02*
X12478376Y-8102798D01*
X17669972Y-7775029D02*
G75*
G02*
X17746995Y-7893635I-20791J-97815D01*
G01*
X17746995Y-7893635D02*
X17497501Y-9067412D01*
X15515524Y-8748364D02*
X14341747Y-8498870D01*
X14514217Y-7206487D02*
G75*
G02*
X14632823Y-7129463I97815J-20791D01*
G01*
X10615005Y-7706726D02*
G75*
G02*
X10537981Y-7588120I20791J97815D01*
G01*
X10607752Y-9550509D02*
X10857246Y-8376732D01*
X12769452Y-6733391D02*
X13943229Y-6982885D01*
X10857246Y-8376732D02*
G75*
G02*
X10975852Y-8299708I97815J-20791D01*
G01*
X10684776Y-9669115D02*
G75*
G02*
X10607752Y-9550509I20791J97815D01*
G01*
X15634130Y-8671340D02*
G75*
G02*
X15515524Y-8748364I-97815J20791D01*
G01*
X10537981Y-7588120D02*
X10787475Y-6414343D01*
X14264724Y-8380264D02*
X14514218Y-7206487D01*
X11788782Y-7956220D02*
X10615005Y-7706726D01*
X12156882Y-6705419D02*
X11907388Y-7879196D01*
X12149629Y-8549203D02*
G75*
G02*
X12226653Y-8667809I-20791J-97815D01*
G01*
X15883624Y-7497563D02*
X15634130Y-8671340D01*
X13770759Y-8275268D02*
G75*
G02*
X13652153Y-8352292I-97815J20791D01*
G01*
X10906081Y-6337319D02*
X12079858Y-6586813D01*
X12226653Y-8667809D02*
X11977159Y-9841586D01*
X12839223Y-8695780D02*
X14013000Y-8945274D01*
X13721924Y-10314681D02*
X12548147Y-10065187D01*
X13840530Y-10237658D02*
G75*
G02*
X13721924Y-10314681I-97815J20791D01*
G01*
X15806601Y-7378957D02*
G75*
G02*
X15883624Y-7497563I-20791J-97815D01*
G01*
X14632823Y-7129463D02*
X15806601Y-7378957D01*
X11977159Y-9841586D02*
G75*
G02*
X11858553Y-9918609I-97815J20791D01*
G01*
X12478376Y-8102798D02*
G75*
G02*
X12401352Y-7984192I20791J97815D01*
G01*
X16205118Y-8894941D02*
G75*
G02*
X16128095Y-8776336I20791J97815D01*
G01*
X10787475Y-6414343D02*
G75*
G02*
X10906081Y-6337319I97815J-20791D01*
G01*
X21643112Y-12910867D02*
X20469335Y-13160361D01*
X25982492Y-9938711D02*
G75*
G02*
X25905468Y-10057317I-97815J-20791D01*
G01*
X26595063Y-9910739D02*
G75*
G02*
X26476457Y-9833715I-20791J97815D01*
G01*
X26476457Y-9833715D02*
X26226963Y-8659938D01*
X24731691Y-10306811D02*
G75*
G02*
X24613085Y-10229787I-20791J97815D01*
G01*
X22214101Y-12687266D02*
X21964607Y-11513489D01*
X22500220Y-9452082D02*
G75*
G02*
X22577244Y-9333476I97815J20791D01*
G01*
X22255750Y-10730854D02*
G75*
G02*
X22178726Y-10849460I-97815J-20791D01*
G01*
X21004949Y-11098954D02*
G75*
G02*
X20886343Y-11021931I-20791J97815D01*
G01*
X21887650Y-9480054D02*
G75*
G02*
X22006256Y-9557077I20791J-97815D01*
G01*
X27845863Y-9542639D02*
G75*
G02*
X27768840Y-9661245I-97815J-20791D01*
G01*
X27596369Y-8368862D02*
X27845863Y-9542639D01*
X24363591Y-9056010D02*
G75*
G02*
X24440615Y-8937404I97815J20791D01*
G01*
X22577244Y-9333476D02*
X23751021Y-9083982D01*
X22006256Y-9557077D02*
X22255750Y-10730854D01*
X20886343Y-11021931D02*
X20636849Y-9848154D01*
X25442072Y-6776979D02*
X26615849Y-6527485D01*
X26734455Y-6604509D02*
X26983949Y-7778286D01*
X26303986Y-8541332D02*
X27477763Y-8291838D01*
X24042097Y-10453388D02*
X22868320Y-10702883D01*
X23751021Y-9083982D02*
G75*
G02*
X23869627Y-9161005I20791J-97815D01*
G01*
X25614392Y-8687910D02*
G75*
G02*
X25732998Y-8764934I20791J-97815D01*
G01*
X23869627Y-9161005D02*
X24119121Y-10334783D01*
X24119121Y-10334783D02*
G75*
G02*
X24042097Y-10453388I-97815J-20791D01*
G01*
X20713873Y-9729548D02*
X21887650Y-9480054D01*
X27768840Y-9661245D02*
X26595063Y-9910739D01*
X26906925Y-7896892D02*
X25733148Y-8146386D01*
X26983949Y-7778286D02*
G75*
G02*
X26906925Y-7896892I-97815J-20791D01*
G01*
X25732998Y-8764934D02*
X25982492Y-9938711D01*
X25365048Y-6895585D02*
G75*
G02*
X25442072Y-6776979I97815J20791D01*
G01*
X24440615Y-8937404D02*
X25614392Y-8687910D01*
X20469335Y-13160361D02*
G75*
G02*
X20350729Y-13083338I-20791J97815D01*
G01*
X21352036Y-11541461D02*
G75*
G02*
X21470642Y-11618484I20791J-97815D01*
G01*
X24613085Y-10229787D02*
X24363591Y-9056010D01*
X20350729Y-13083338D02*
X20101235Y-11909561D01*
X26226963Y-8659938D02*
G75*
G02*
X26303986Y-8541332I97815J20791D01*
G01*
X21720136Y-12792261D02*
G75*
G02*
X21643112Y-12910867I-97815J-20791D01*
G01*
X25905468Y-10057317D02*
X24731691Y-10306811D01*
X22868320Y-10702883D02*
G75*
G02*
X22749714Y-10625859I-20791J97815D01*
G01*
X20178259Y-11790955D02*
X21352036Y-11541461D01*
X22749714Y-10625859D02*
X22500220Y-9452082D01*
X21470642Y-11618484D02*
X21720136Y-12792261D01*
X22178726Y-10849460D02*
X21004949Y-11098954D01*
X20636849Y-9848154D02*
G75*
G02*
X20713873Y-9729548I97815J20791D01*
G01*
X27477763Y-8291838D02*
G75*
G02*
X27596369Y-8368862I20791J-97815D01*
G01*
X20101235Y-11909560D02*
G75*
G02*
X20178259Y-11790955I97815J20791D01*
G01*
X4092500Y-9510625D02*
X2892500Y-9510625D01*
X5045000Y-5700625D02*
X3845000Y-5700625D01*
X3368750Y-6205625D02*
X4568750Y-6205625D01*
X4668750Y-7505625D02*
G75*
G02*
X4568750Y-7605625I-100000J0D01*
G01*
X7526250Y-5838750D02*
G75*
G02*
X7426250Y-5938750I-100000J0D01*
G01*
X3268750Y-6305625D02*
G75*
G02*
X3368750Y-6205625I100000J0D01*
G01*
X5145000Y-5600625D02*
G75*
G02*
X5045000Y-5700625I-100000J0D01*
G01*
X3845000Y-5700625D02*
G75*
G02*
X3745000Y-5600625I0J100000D01*
G01*
X3745000Y-4400625D02*
G75*
G02*
X3845000Y-4300625I100000J0D01*
G01*
X5145000Y-4400625D02*
X5145000Y-5600625D01*
X3845000Y-4300625D02*
X5045000Y-4300625D01*
X3745000Y-5600625D02*
X3745000Y-4400625D01*
X7426250Y-5938750D02*
X6226250Y-5938750D01*
X6226250Y-5938750D02*
G75*
G02*
X6126250Y-5838750I0J100000D01*
G01*
X2892500Y-8110625D02*
X4092500Y-8110625D01*
X2792500Y-8210625D02*
G75*
G02*
X2892500Y-8110625I100000J0D01*
G01*
X4092500Y-8110625D02*
G75*
G02*
X4192500Y-8210625I0J-100000D01*
G01*
X4668750Y-6305625D02*
X4668750Y-7505625D01*
X3268750Y-7505625D02*
X3268750Y-6305625D01*
X4568750Y-7605625D02*
X3368750Y-7605625D01*
X3368750Y-7605625D02*
G75*
G02*
X3268750Y-7505625I0J100000D01*
G01*
X5045000Y-4300625D02*
G75*
G02*
X5145000Y-4400625I0J-100000D01*
G01*
X4568750Y-6205625D02*
G75*
G02*
X4668750Y-6305625I0J-100000D01*
G01*
X4192500Y-9410625D02*
G75*
G02*
X4092500Y-9510625I-100000J0D01*
G01*
X4192500Y-8210625D02*
X4192500Y-9410625D01*
X2792500Y-9410625D02*
X2792500Y-8210625D01*
X2892500Y-9510625D02*
G75*
G02*
X2792500Y-9410625I0J100000D01*
G01*
X23215407Y-11145389D02*
G75*
G02*
X23334013Y-11222412I20791J-97815D01*
G01*
X25078778Y-10749317D02*
G75*
G02*
X25197384Y-10826341I20791J-97815D01*
G01*
X16982974Y-11626355D02*
G75*
G02*
X17101579Y-11549331I97815J-20791D01*
G01*
X25940843Y-11895122D02*
X25691349Y-10721345D01*
X18352380Y-11917431D02*
X18102886Y-13091208D01*
X18102886Y-13091208D02*
G75*
G02*
X17984280Y-13168232I-97815J20791D01*
G01*
X25768372Y-10602739D02*
X26942150Y-10353245D01*
X27060755Y-10430269D02*
X27310249Y-11604046D01*
X25691349Y-10721345D02*
G75*
G02*
X25768372Y-10602739I97815J20791D01*
G01*
X25369855Y-12118724D02*
X24196078Y-12368218D01*
X25197384Y-10826341D02*
X25446878Y-12000118D01*
X27233226Y-11722652D02*
X26059449Y-11972146D01*
X25446878Y-12000118D02*
G75*
G02*
X25369855Y-12118724I-97815J-20791D01*
G01*
X24196078Y-12368218D02*
G75*
G02*
X24077472Y-12291194I-20791J97815D01*
G01*
X18275357Y-11798825D02*
G75*
G02*
X18352380Y-11917431I-20791J-97815D01*
G01*
X26942150Y-10353245D02*
G75*
G02*
X27060755Y-10430269I20791J-97815D01*
G01*
X16733480Y-12800132D02*
X16982974Y-11626355D01*
X27310249Y-11604046D02*
G75*
G02*
X27233226Y-11722652I-97815J-20791D01*
G01*
X26059449Y-11972146D02*
G75*
G02*
X25940843Y-11895122I-20791J97815D01*
G01*
X23827978Y-11117417D02*
G75*
G02*
X23905001Y-10998811I97815J20791D01*
G01*
X24077472Y-12291194D02*
X23827978Y-11117417D01*
X17984280Y-13168232D02*
X16810503Y-12918737D01*
X23905001Y-10998811D02*
X25078778Y-10749317D01*
X23506483Y-12514795D02*
X22332706Y-12764290D01*
X22041630Y-11394883D02*
X23215407Y-11145389D01*
X23334013Y-11222412D02*
X23583507Y-12396190D01*
X23583507Y-12396190D02*
G75*
G02*
X23506483Y-12514795I-97815J-20791D01*
G01*
X21964606Y-11513489D02*
G75*
G02*
X22041630Y-11394883I97815J20791D01*
G01*
X22332707Y-12764290D02*
G75*
G02*
X22214101Y-12687266I-20791J97815D01*
G01*
X29333750Y-4300625D02*
G75*
G02*
X29433750Y-4400625I0J-100000D01*
G01*
X10283750Y-11653750D02*
X9083750Y-11653750D01*
X10383750Y-11553750D02*
G75*
G02*
X10283750Y-11653750I-100000J0D01*
G01*
X8507500Y-8448750D02*
G75*
G02*
X8607500Y-8348750I100000J0D01*
G01*
X9083750Y-11653750D02*
G75*
G02*
X8983750Y-11553750I0J100000D01*
G01*
X9807500Y-9748750D02*
X8607500Y-9748750D01*
X9936250Y-4400625D02*
G75*
G02*
X10036250Y-4300625I100000J0D01*
G01*
X33848750Y-7843750D02*
G75*
G02*
X33748750Y-7743750I0J100000D01*
G01*
X30038750Y-5938750D02*
G75*
G02*
X29938750Y-5838750I0J100000D01*
G01*
X31238750Y-4538750D02*
G75*
G02*
X31338750Y-4638750I0J-100000D01*
G01*
X9907500Y-6543750D02*
X9907500Y-7743750D01*
X8507500Y-9648750D02*
X8507500Y-8448750D01*
X10036250Y-4300625D02*
X11236250Y-4300625D01*
X8983750Y-10353750D02*
G75*
G02*
X9083750Y-10253750I100000J0D01*
G01*
X9083750Y-10253750D02*
X10283750Y-10253750D01*
X9431250Y-4638750D02*
X9431250Y-5838750D01*
X8031250Y-4638750D02*
G75*
G02*
X8131250Y-4538750I100000J0D01*
G01*
X35048750Y-7843750D02*
X33848750Y-7843750D01*
X9907500Y-7743750D02*
G75*
G02*
X9807500Y-7843750I-100000J0D01*
G01*
X9807500Y-6443750D02*
G75*
G02*
X9907500Y-6543750I0J-100000D01*
G01*
X11336250Y-4400625D02*
X11336250Y-5600625D01*
X9907500Y-9648750D02*
G75*
G02*
X9807500Y-9748750I-100000J0D01*
G01*
X8607500Y-6443750D02*
X9807500Y-6443750D01*
X9331250Y-4538750D02*
G75*
G02*
X9431250Y-4638750I0J-100000D01*
G01*
X10383750Y-10353750D02*
X10383750Y-11553750D01*
X8507500Y-6543750D02*
G75*
G02*
X8607500Y-6443750I100000J0D01*
G01*
X31238750Y-5938750D02*
X30038750Y-5938750D01*
X8031250Y-5838750D02*
X8031250Y-4638750D01*
X29938750Y-4638750D02*
G75*
G02*
X30038750Y-4538750I100000J0D01*
G01*
X9331250Y-5938750D02*
X8131250Y-5938750D01*
X9431250Y-5838750D02*
G75*
G02*
X9331250Y-5938750I-100000J0D01*
G01*
X6473750Y-12158750D02*
G75*
G02*
X6573750Y-12258750I0J-100000D01*
G01*
X11236250Y-5700625D02*
X10036250Y-5700625D01*
X30038750Y-4538750D02*
X31238750Y-4538750D01*
X10283750Y-10253750D02*
G75*
G02*
X10383750Y-10353750I0J-100000D01*
G01*
X8131250Y-5938750D02*
G75*
G02*
X8031250Y-5838750I0J100000D01*
G01*
X5273750Y-12158750D02*
X6473750Y-12158750D01*
X29938750Y-5838750D02*
X29938750Y-4638750D01*
X8607500Y-8348750D02*
X9807500Y-8348750D01*
X8607500Y-9748750D02*
G75*
G02*
X8507500Y-9648750I0J100000D01*
G01*
X35148750Y-7743750D02*
G75*
G02*
X35048750Y-7843750I-100000J0D01*
G01*
X9907500Y-8448750D02*
X9907500Y-9648750D01*
X29333750Y-5700625D02*
X28133750Y-5700625D01*
X33748750Y-6543750D02*
G75*
G02*
X33848750Y-6443750I100000J0D01*
G01*
X29433750Y-5600625D02*
G75*
G02*
X29333750Y-5700625I-100000J0D01*
G01*
X9807500Y-7843750D02*
X8607500Y-7843750D01*
X28133750Y-5700625D02*
G75*
G02*
X28033750Y-5600625I0J100000D01*
G01*
X8983750Y-11553750D02*
X8983750Y-10353750D01*
X8607500Y-7843750D02*
G75*
G02*
X8507500Y-7743750I0J100000D01*
G01*
X9807500Y-8348750D02*
G75*
G02*
X9907500Y-8448750I0J-100000D01*
G01*
X31338750Y-4638750D02*
X31338750Y-5838750D01*
X28033750Y-4400625D02*
G75*
G02*
X28133750Y-4300625I100000J0D01*
G01*
X11236250Y-4300625D02*
G75*
G02*
X11336250Y-4400625I0J-100000D01*
G01*
X29433750Y-4400625D02*
X29433750Y-5600625D01*
X8507500Y-7743750D02*
X8507500Y-6543750D01*
X9936250Y-5600625D02*
X9936250Y-4400625D01*
X28133750Y-4300625D02*
X29333750Y-4300625D01*
X11336250Y-5600625D02*
G75*
G02*
X11236250Y-5700625I-100000J0D01*
G01*
X10036250Y-5700625D02*
G75*
G02*
X9936250Y-5600625I0J100000D01*
G01*
X8131250Y-4538750D02*
X9331250Y-4538750D01*
X6573750Y-12258750D02*
X6573750Y-13458750D01*
X33748750Y-7743750D02*
X33748750Y-6543750D01*
X31338750Y-5838750D02*
G75*
G02*
X31238750Y-5938750I-100000J0D01*
G01*
X28033750Y-5600625D02*
X28033750Y-4400625D01*
X6573750Y-13458750D02*
G75*
G02*
X6473750Y-13558750I-100000J0D01*
G01*
X6473750Y-13558750D02*
X5273750Y-13558750D01*
X5273750Y-13558750D02*
G75*
G02*
X5173750Y-13458750I0J100000D01*
G01*
X5845525Y-10253750D02*
X7333125Y-10253750D01*
X5411875Y-9648750D02*
X5411875Y-8448750D01*
X7188125Y-8348750D02*
G75*
G02*
X7288125Y-8448750I0J-100000D01*
G01*
X7426250Y-7843750D02*
X6226250Y-7843750D01*
X7526250Y-7743750D02*
G75*
G02*
X7426250Y-7843750I-100000J0D01*
G01*
X6226250Y-7843750D02*
G75*
G02*
X6126250Y-7743750I0J100000D01*
G01*
X7526250Y-4638750D02*
X7526250Y-5838750D01*
X5173750Y-12258750D02*
G75*
G02*
X5273750Y-12158750I100000J0D01*
G01*
X5511875Y-8348750D02*
X7188125Y-8348750D01*
X7426250Y-4538750D02*
G75*
G02*
X7526250Y-4638750I0J-100000D01*
G01*
X6226250Y-4538750D02*
X7426250Y-4538750D01*
X6126250Y-4638750D02*
G75*
G02*
X6226250Y-4538750I100000J0D01*
G01*
X6126250Y-5838750D02*
X6126250Y-4638750D01*
X7189325Y-11653750D02*
X5989325Y-11653750D01*
X5511875Y-9748750D02*
G75*
G02*
X5411875Y-9648750I0J100000D01*
G01*
X6126250Y-7743750D02*
X6126250Y-6543750D01*
X7288125Y-9648750D02*
G75*
G02*
X7188125Y-9748750I-100000J0D01*
G01*
X5173750Y-13458750D02*
X5173750Y-12258750D01*
X7288125Y-8448750D02*
X7288125Y-9648750D01*
X7188125Y-9748750D02*
X5511875Y-9748750D01*
X7426250Y-6443750D02*
G75*
G02*
X7526250Y-6543750I0J-100000D01*
G01*
X7526250Y-6543750D02*
X7526250Y-7743750D01*
X5411875Y-8448750D02*
G75*
G02*
X5511875Y-8348750I100000J0D01*
G01*
X6226250Y-6443750D02*
X7426250Y-6443750D01*
X6126250Y-6543750D02*
G75*
G02*
X6226250Y-6443750I100000J0D01*
G01*
X35048750Y-14035000D02*
X33848750Y-14035000D01*
X32291250Y-12258750D02*
X32291250Y-13458750D01*
X29433750Y-11553750D02*
G75*
G02*
X29333750Y-11653750I-100000J0D01*
G01*
X35653750Y-10830000D02*
G75*
G02*
X35753750Y-10730000I100000J0D01*
G01*
X32558125Y-11553750D02*
X32558125Y-10353750D01*
X33858125Y-11653750D02*
X32658125Y-11653750D01*
X30891250Y-13458750D02*
X30891250Y-12258750D01*
X33848750Y-12635000D02*
X35048750Y-12635000D01*
X34811825Y-9748750D02*
X33611825Y-9748750D01*
X32191250Y-13558750D02*
X30991250Y-13558750D01*
X28133750Y-10253750D02*
X29333750Y-10253750D01*
X32658125Y-11653750D02*
G75*
G02*
X32558125Y-11553750I0J100000D01*
G01*
X29938750Y-11553750D02*
X29938750Y-10353750D01*
X35653750Y-12030000D02*
X35653750Y-10830000D01*
X33958125Y-10353750D02*
X33958125Y-11553750D01*
X35148750Y-13935000D02*
G75*
G02*
X35048750Y-14035000I-100000J0D01*
G01*
X28033750Y-11553750D02*
X28033750Y-10353750D01*
X37053750Y-10830000D02*
X37053750Y-12030000D01*
X32191250Y-12158750D02*
G75*
G02*
X32291250Y-12258750I0J-100000D01*
G01*
X31338750Y-10353750D02*
X31338750Y-11553750D01*
X35753750Y-10730000D02*
X36953750Y-10730000D01*
X33848750Y-14035000D02*
G75*
G02*
X33748750Y-13935000I0J100000D01*
G01*
X35753750Y-12130000D02*
G75*
G02*
X35653750Y-12030000I0J100000D01*
G01*
X32658125Y-10253750D02*
X33858125Y-10253750D01*
X29433750Y-10353750D02*
X29433750Y-11553750D01*
X33958125Y-11553750D02*
G75*
G02*
X33858125Y-11653750I-100000J0D01*
G01*
X33468025Y-8348750D02*
X34955625Y-8348750D01*
X33748750Y-12735000D02*
G75*
G02*
X33848750Y-12635000I100000J0D01*
G01*
X33748750Y-13935000D02*
X33748750Y-12735000D01*
X35148750Y-12735000D02*
X35148750Y-13935000D01*
X32291250Y-13458750D02*
G75*
G02*
X32191250Y-13558750I-100000J0D01*
G01*
X29333750Y-11653750D02*
X28133750Y-11653750D01*
X31715000Y-8348750D02*
G75*
G02*
X31815000Y-8448750I0J-100000D01*
G01*
X31815000Y-8448750D02*
X31815000Y-9648750D01*
X31338750Y-11553750D02*
G75*
G02*
X31238750Y-11653750I-100000J0D01*
G01*
X36953750Y-10730000D02*
G75*
G02*
X37053750Y-10830000I0J-100000D01*
G01*
X30415000Y-8448750D02*
G75*
G02*
X30515000Y-8348750I100000J0D01*
G01*
X30891250Y-12258750D02*
G75*
G02*
X30991250Y-12158750I100000J0D01*
G01*
X30991250Y-13558750D02*
G75*
G02*
X30891250Y-13458750I0J100000D01*
G01*
X33858125Y-10253750D02*
G75*
G02*
X33958125Y-10353750I0J-100000D01*
G01*
X30415000Y-9648750D02*
X30415000Y-8448750D01*
X28033750Y-10353750D02*
G75*
G02*
X28133750Y-10253750I100000J0D01*
G01*
X30038750Y-11653750D02*
G75*
G02*
X29938750Y-11553750I0J100000D01*
G01*
X36953750Y-12130000D02*
X35753750Y-12130000D01*
X37053750Y-12030000D02*
G75*
G02*
X36953750Y-12130000I-100000J0D01*
G01*
X31238750Y-10253750D02*
G75*
G02*
X31338750Y-10353750I0J-100000D01*
G01*
X30991250Y-12158750D02*
X32191250Y-12158750D01*
X29938750Y-10353750D02*
G75*
G02*
X30038750Y-10253750I100000J0D01*
G01*
X31238750Y-11653750D02*
X30038750Y-11653750D01*
X32558125Y-10353750D02*
G75*
G02*
X32658125Y-10253750I100000J0D01*
G01*
X28133750Y-11653750D02*
G75*
G02*
X28033750Y-11553750I0J100000D01*
G01*
X29333750Y-10253750D02*
G75*
G02*
X29433750Y-10353750I0J-100000D01*
G01*
X30038750Y-10253750D02*
X31238750Y-10253750D01*
X30515000Y-8348750D02*
X31715000Y-8348750D01*
X31715000Y-9748750D02*
X30515000Y-9748750D01*
X31815000Y-9648750D02*
G75*
G02*
X31715000Y-9748750I-100000J0D01*
G01*
X30515000Y-9748750D02*
G75*
G02*
X30415000Y-9648750I0J100000D01*
G01*
X29810000Y-8348750D02*
G75*
G02*
X29910000Y-8448750I0J-100000D01*
G01*
X29910000Y-8448750D02*
X29910000Y-9648750D01*
X28610000Y-8348750D02*
X29810000Y-8348750D01*
X28510000Y-8448750D02*
G75*
G02*
X28610000Y-8348750I100000J0D01*
G01*
X28510000Y-9648750D02*
X28510000Y-8448750D01*
X29810000Y-9748750D02*
X28610000Y-9748750D01*
X29910000Y-9648750D02*
G75*
G02*
X29810000Y-9748750I-100000J0D01*
G01*
X27657500Y-6364375D02*
X28857500Y-6364375D01*
X28610000Y-9748750D02*
G75*
G02*
X28510000Y-9648750I0J100000D01*
G01*
X28957500Y-7664375D02*
G75*
G02*
X28857500Y-7764375I-100000J0D01*
G01*
X28857500Y-7764375D02*
X27657500Y-7764375D01*
X30762500Y-6443750D02*
G75*
G02*
X30862500Y-6543750I0J-100000D01*
G01*
X30862500Y-6543750D02*
X30862500Y-7743750D01*
X28857500Y-6364375D02*
G75*
G02*
X28957500Y-6464375I0J-100000D01*
G01*
X29462500Y-6543750D02*
G75*
G02*
X29562500Y-6443750I100000J0D01*
G01*
X32667500Y-6443750D02*
G75*
G02*
X32767500Y-6543750I0J-100000D01*
G01*
X31467500Y-6443750D02*
X32667500Y-6443750D01*
X31367500Y-7743750D02*
X31367500Y-6543750D01*
X32667500Y-7843750D02*
X31467500Y-7843750D01*
X31467500Y-7843750D02*
G75*
G02*
X31367500Y-7743750I0J100000D01*
G01*
X27557500Y-6464375D02*
G75*
G02*
X27657500Y-6364375I100000J0D01*
G01*
X29562500Y-7843750D02*
G75*
G02*
X29462500Y-7743750I0J100000D01*
G01*
X35048750Y-6443750D02*
G75*
G02*
X35148750Y-6543750I0J-100000D01*
G01*
X31367500Y-6543750D02*
G75*
G02*
X31467500Y-6443750I100000J0D01*
G01*
X27657500Y-7764375D02*
G75*
G02*
X27557500Y-7664375I0J100000D01*
G01*
X29562500Y-6443750D02*
X30762500Y-6443750D01*
X35148750Y-6543750D02*
X35148750Y-7743750D01*
X33848750Y-6443750D02*
X35048750Y-6443750D01*
X28957500Y-6464375D02*
X28957500Y-7664375D01*
X27557500Y-7664375D02*
X27557500Y-6464375D01*
X32767500Y-7743750D02*
G75*
G02*
X32667500Y-7843750I-100000J0D01*
G01*
X30762500Y-7843750D02*
X29562500Y-7843750D01*
X30862500Y-7743750D02*
G75*
G02*
X30762500Y-7843750I-100000J0D01*
G01*
X32767500Y-6543750D02*
X32767500Y-7743750D01*
X29462500Y-7743750D02*
X29462500Y-6543750D01*
X32668025Y-8248750D02*
G75*
G02*
X32768025Y-8148750I100000J0D01*
G01*
X33611825Y-9748750D02*
G75*
G02*
X33525222Y-9698750I0J100000D01*
G01*
X35055625Y-8248750D02*
G75*
G02*
X34955625Y-8348750I-100000J0D01*
G01*
X33438620Y-9648750D02*
G75*
G02*
X33525222Y-9698750I0J-100000D01*
G01*
X34898428Y-9698750D02*
G75*
G02*
X34811825Y-9748750I-86603J50000D01*
G01*
X32668025Y-9548750D02*
X32668025Y-8248750D01*
X35655625Y-8148750D02*
X35155625Y-8148750D01*
X34898428Y-9698750D02*
G75*
G02*
X34985030Y-9648750I86603J-50000D01*
G01*
X35755625Y-9548750D02*
G75*
G02*
X35655625Y-9648750I-100000J0D01*
G01*
X35655625Y-9648750D02*
X34985030Y-9648750D01*
X35655625Y-8148750D02*
G75*
G02*
X35755625Y-8248750I0J-100000D01*
G01*
D11*
D12*
X2578303Y-16430089D02*
X2578303Y-16130089D01*
X2649732Y-16130089D01*
X2692589Y-16144375D01*
X2721161Y-16172946D01*
X2735446Y-16201518D01*
X2749732Y-16258661D01*
X2749732Y-16301518D01*
X2735446Y-16358661D01*
X2721161Y-16387232D01*
X2692589Y-16415804D01*
X2649732Y-16430089D01*
X2578303Y-16430089D01*
X2878303Y-16430089D02*
X2878303Y-16230089D01*
X2878303Y-16287232D02*
X2892589Y-16258661D01*
X2906875Y-16244375D01*
X2935446Y-16230089D01*
X2964018Y-16230089D01*
X3064018Y-16430089D02*
X3064018Y-16230089D01*
X3064018Y-16130089D02*
X3049732Y-16144375D01*
X3064018Y-16158661D01*
X3078303Y-16144375D01*
X3064018Y-16130089D01*
X3064018Y-16158661D01*
X3249732Y-16430089D02*
X3221161Y-16415804D01*
X3206875Y-16387232D01*
X3206875Y-16130089D01*
X3406875Y-16430089D02*
X3378303Y-16415804D01*
X3364018Y-16387232D01*
X3364018Y-16130089D01*
X3749732Y-16430089D02*
X3749732Y-16130089D01*
X3849732Y-16344375D01*
X3949732Y-16130089D01*
X3949732Y-16430089D01*
X4221161Y-16430089D02*
X4221161Y-16272946D01*
X4206875Y-16244375D01*
X4178303Y-16230089D01*
X4121161Y-16230089D01*
X4092589Y-16244375D01*
X4221161Y-16415804D02*
X4192589Y-16430089D01*
X4121161Y-16430089D01*
X4092589Y-16415804D01*
X4078303Y-16387232D01*
X4078303Y-16358661D01*
X4092589Y-16330089D01*
X4121161Y-16315804D01*
X4192589Y-16315804D01*
X4221161Y-16301518D01*
X4364018Y-16230089D02*
X4364018Y-16530089D01*
X4364018Y-16244375D02*
X4392589Y-16230089D01*
X4449732Y-16230089D01*
X4478303Y-16244375D01*
X4492589Y-16258661D01*
X4506875Y-16287232D01*
X4506875Y-16372946D01*
X4492589Y-16401518D01*
X4478303Y-16415804D01*
X4449732Y-16430089D01*
X4392589Y-16430089D01*
X4364018Y-16415804D01*
X4635446Y-16401518D02*
X4649732Y-16415804D01*
X4635446Y-16430089D01*
X4621161Y-16415804D01*
X4635446Y-16401518D01*
X4635446Y-16430089D01*
X4635446Y-16244375D02*
X4649732Y-16258661D01*
X4635446Y-16272946D01*
X4621161Y-16258661D01*
X4635446Y-16244375D01*
X4635446Y-16272946D01*
M02*
