%TF.GenerationSoftware,KiCad,Pcbnew,(5.1.6)-1*%
%TF.CreationDate,2020-10-24T16:49:17-05:00*%
%TF.ProjectId,basketweave_plate,6261736b-6574-4776-9561-76655f706c61,rev?*%
%TF.SameCoordinates,Original*%
%TF.FileFunction,Profile,NP*%
%FSLAX46Y46*%
G04 Gerber Fmt 4.6, Leading zero omitted, Abs format (unit mm)*
G04 Created by KiCad (PCBNEW (5.1.6)-1) date 2020-10-24 16:49:17*
%MOMM*%
%LPD*%
G01*
G04 APERTURE LIST*
%TA.AperFunction,Profile*%
%ADD10C,0.200000*%
%TD*%
G04 APERTURE END LIST*
D10*
X174042718Y-135612290D02*
X188110514Y-138588750D01*
X262550733Y-126213914D02*
X274308691Y-123729750D01*
X222919320Y-146203910D02*
G75*
G02*
X223870377Y-146512927I207912J-978148D01*
G01*
X216582162Y-147756903D02*
G75*
G02*
X215396102Y-146986669I-207913J978147D01*
G01*
X264275437Y-139137745D02*
X261780497Y-127399974D01*
X185199748Y-152366756D02*
X171131956Y-149306356D01*
X139360791Y-141511067D02*
G75*
G02*
X140103936Y-142180198I-207912J-978148D01*
G01*
X234682251Y-129274901D02*
G75*
G02*
X235452488Y-128088840I978149J207912D01*
G01*
X172856659Y-136382527D02*
G75*
G02*
X174042718Y-135612290I978148J-207911D01*
G01*
X188880750Y-139774810D02*
X186385808Y-151596520D01*
X277219454Y-137423814D02*
X265461496Y-139907981D01*
X170361720Y-148120298D02*
X172856660Y-136382527D01*
X171131956Y-149306356D02*
G75*
G02*
X170361720Y-148120298I207911J978147D01*
G01*
X277989690Y-136237756D02*
G75*
G02*
X277219454Y-137423814I-978147J-207911D01*
G01*
X245093662Y-140263905D02*
X242390810Y-127547986D01*
X275494750Y-124499985D02*
X277989690Y-136237756D01*
X261780496Y-127399973D02*
G75*
G02*
X262550733Y-126213914I978148J207911D01*
G01*
X222155094Y-133045853D02*
G75*
G02*
X220969033Y-132275618I-207913J978148D01*
G01*
X186385808Y-151596520D02*
G75*
G02*
X185199748Y-152366756I-978148J207912D01*
G01*
X265461497Y-139907981D02*
G75*
G02*
X264275437Y-139137745I-207912J978148D01*
G01*
X219782974Y-131505383D02*
G75*
G02*
X220969033Y-132275618I207912J-978147D01*
G01*
X274308691Y-123729750D02*
G75*
G02*
X275494750Y-124499985I207912J-978147D01*
G01*
X188110514Y-138588750D02*
G75*
G02*
X188880750Y-139774810I-207912J-978148D01*
G01*
X237572355Y-143607629D02*
G75*
G02*
X236829210Y-144276759I-951056J309018D01*
G01*
X140847080Y-142849328D02*
G75*
G02*
X140103936Y-142180198I207911J978147D01*
G01*
X224821433Y-146821944D02*
G75*
G02*
X223870377Y-146512927I-207912J978147D01*
G01*
X164115750Y-145861430D02*
G75*
G02*
X162929690Y-146631666I-978148J207912D01*
G01*
X212693251Y-134270750D02*
G75*
G02*
X213463486Y-133084691I978147J207912D01*
G01*
X140810796Y-126484166D02*
G75*
G02*
X141581031Y-127670225I-207912J-978147D01*
G01*
X215396102Y-146986669D02*
X212693250Y-134270750D01*
X216582162Y-147756903D02*
X222919320Y-146203910D01*
X132801383Y-140116821D02*
G75*
G02*
X132031146Y-138930762I207911J978148D01*
G01*
X235452488Y-128088840D02*
X241204750Y-126777750D01*
X162929690Y-146631666D02*
X156899964Y-145234235D01*
X159612251Y-131432943D02*
G75*
G02*
X158426191Y-132203179I-978148J207912D01*
G01*
X237572356Y-143607629D02*
G75*
G02*
X238315500Y-142938500I951055J-309017D01*
G01*
X140810795Y-126484165D02*
X135920057Y-125444607D01*
X238315500Y-142938500D02*
X244323425Y-141449966D01*
X155948909Y-145543252D02*
G75*
G02*
X156899964Y-145234235I743144J-669129D01*
G01*
X132801382Y-140116821D02*
X139360791Y-141511067D01*
X155948908Y-145543252D02*
G75*
G02*
X154997851Y-145852269I-743145J669131D01*
G01*
X241204750Y-126777750D02*
G75*
G02*
X242390810Y-127547986I207912J-978148D01*
G01*
X165960728Y-131959452D02*
G75*
G02*
X166730965Y-133145511I-207911J-978148D01*
G01*
X154997851Y-145852269D02*
X140847080Y-142849328D01*
X132031146Y-138930762D02*
X134733998Y-126214843D01*
X222155094Y-133045853D02*
X233912016Y-130460961D01*
X234682254Y-129274901D02*
G75*
G02*
X233912016Y-130460961I-978149J-207911D01*
G01*
X236829210Y-144276759D02*
X224821433Y-146821944D01*
X165960728Y-131959452D02*
X160798310Y-130662706D01*
X134733998Y-126214844D02*
G75*
G02*
X135920057Y-125444607I978148J-207911D01*
G01*
X142351267Y-128856284D02*
X158426191Y-132203179D01*
X164115750Y-145861430D02*
X166730965Y-133145511D01*
X245093662Y-140263905D02*
G75*
G02*
X244323425Y-141449966I-978149J-207912D01*
G01*
X219782974Y-131505383D02*
X213463486Y-133084691D01*
X142351268Y-128856284D02*
G75*
G02*
X141581031Y-127670225I207911J978148D01*
G01*
X159612250Y-131432942D02*
G75*
G02*
X160798310Y-130662706I978148J-207912D01*
G01*
X168105032Y-129187375D02*
G75*
G02*
X167334796Y-128001317I207911J978147D01*
G01*
X370093750Y-68356250D02*
X383175000Y-68356250D01*
X384175000Y-56556250D02*
X384175000Y-67356250D01*
X370093750Y-68356250D02*
G75*
G02*
X369093750Y-67356250I0J1000000D01*
G01*
X383175000Y-55556250D02*
G75*
G02*
X384175000Y-56556250I0J-1000000D01*
G01*
X370093750Y-55556250D02*
X383175000Y-55556250D01*
X369093750Y-56556250D02*
G75*
G02*
X370093750Y-55556250I1000000J0D01*
G01*
X369093750Y-56556250D02*
X369093750Y-67356250D01*
X384175000Y-67356250D02*
G75*
G02*
X383175000Y-68356250I-1000000J0D01*
G01*
X334680250Y-83487500D02*
G75*
G02*
X333680250Y-82487500I0J1000000D01*
G01*
X80331250Y-115537500D02*
X73625301Y-115537501D01*
X56455250Y-100537500D02*
G75*
G02*
X57455250Y-101537500I0J-1000000D01*
G01*
X58455250Y-102537500D02*
G75*
G02*
X57455250Y-101537500I0J1000000D01*
G01*
X56455250Y-100537500D02*
X51455250Y-100537500D01*
X332680250Y-81487500D02*
X327680250Y-81487500D01*
X50455250Y-101537500D02*
G75*
G02*
X51455250Y-100537500I1000000J0D01*
G01*
X327680250Y-96487500D02*
G75*
G02*
X326680250Y-95487500I0J1000000D01*
G01*
X50455250Y-114537500D02*
X50455250Y-101537500D01*
X80331250Y-100537500D02*
X75331250Y-100537500D01*
X350556250Y-82487500D02*
G75*
G02*
X351556250Y-81487500I1000000J0D01*
G01*
X80331250Y-100537500D02*
G75*
G02*
X81331250Y-101537500I0J-1000000D01*
G01*
X81331250Y-114537500D02*
X81331250Y-101537500D01*
X72759276Y-116037501D02*
G75*
G02*
X73625301Y-115537501I866025J-500000D01*
G01*
X332680250Y-81487500D02*
G75*
G02*
X333680250Y-82487500I0J-1000000D01*
G01*
X59893250Y-116537501D02*
G75*
G02*
X59027225Y-116037501I0J1000000D01*
G01*
X74331251Y-101537500D02*
G75*
G02*
X73331250Y-102537501I-1000001J0D01*
G01*
X327680250Y-96487500D02*
X334386200Y-96487501D01*
X72759275Y-116037501D02*
G75*
G02*
X71893250Y-116537501I-866025J500000D01*
G01*
X357556250Y-95487500D02*
X357556250Y-82487500D01*
X58161200Y-115537501D02*
G75*
G02*
X59027225Y-116037501I0J-1000000D01*
G01*
X81331250Y-114537500D02*
G75*
G02*
X80331250Y-115537500I-1000000J0D01*
G01*
X74331250Y-101537500D02*
G75*
G02*
X75331250Y-100537500I1000000J0D01*
G01*
X342388500Y-59387500D02*
G75*
G02*
X343388500Y-60387500I0J-1000000D01*
G01*
X51455250Y-115537500D02*
G75*
G02*
X50455250Y-114537500I0J1000000D01*
G01*
X328950500Y-45387499D02*
X340950500Y-45387499D01*
X320512500Y-61387500D02*
G75*
G02*
X319512500Y-60387500I0J1000000D01*
G01*
X327512500Y-59387499D02*
X342388500Y-59387500D01*
X344388500Y-61387500D02*
G75*
G02*
X343388500Y-60387500I0J1000000D01*
G01*
X328084475Y-45887499D02*
G75*
G02*
X328950500Y-45387499I866025J-500000D01*
G01*
X319512500Y-47387500D02*
G75*
G02*
X320512500Y-46387500I1000000J0D01*
G01*
X350388500Y-60387500D02*
G75*
G02*
X349388500Y-61387500I-1000000J0D01*
G01*
X340950500Y-45387499D02*
G75*
G02*
X341816525Y-45887499I0J-1000000D01*
G01*
X326512500Y-60387500D02*
G75*
G02*
X325512500Y-61387500I-1000000J0D01*
G01*
X350388500Y-47387500D02*
X350388500Y-60387500D01*
X344388500Y-61387500D02*
X349388500Y-61387500D01*
X320512500Y-61387500D02*
X325512500Y-61387500D01*
X343388500Y-60387500D02*
X343388500Y-60387500D01*
X349388500Y-46387500D02*
G75*
G02*
X350388500Y-47387500I0J-1000000D01*
G01*
X51455250Y-115537500D02*
X58161200Y-115537501D01*
X319512500Y-47387500D02*
X319512500Y-60387500D01*
X342682550Y-46387499D02*
G75*
G02*
X341816525Y-45887499I0J1000000D01*
G01*
X320512500Y-46387500D02*
X327218449Y-46387499D01*
X326512499Y-60387500D02*
G75*
G02*
X327512500Y-59387499I1000001J0D01*
G01*
X328084474Y-45887499D02*
G75*
G02*
X327218449Y-46387499I-866025J500000D01*
G01*
X326512500Y-60387500D02*
X326512500Y-60387500D01*
X169618875Y-70060049D02*
G75*
G02*
X168432815Y-70830285I-978148J207912D01*
G01*
X175328757Y-72296060D02*
G75*
G02*
X174558521Y-71110002I207911J978147D01*
G01*
X172113816Y-58322278D02*
X169618874Y-70060048D01*
X171343580Y-57136218D02*
G75*
G02*
X172113816Y-58322278I-207912J-978148D01*
G01*
X174558521Y-71110002D02*
X177053461Y-59372231D01*
X168432815Y-70830285D02*
X156695045Y-68335343D01*
X155924809Y-67149285D02*
X158419749Y-55411514D01*
X177053460Y-59372231D02*
G75*
G02*
X178239519Y-58601994I978148J-207911D01*
G01*
X178239519Y-58601994D02*
X189977291Y-61096935D01*
X190747528Y-62282995D02*
X188252586Y-74020765D01*
X161280947Y-87763355D02*
X163775887Y-76025584D01*
X156695045Y-68335343D02*
G75*
G02*
X155924809Y-67149285I207911J978147D01*
G01*
X188252587Y-74020766D02*
G75*
G02*
X187066527Y-74791002I-978148J207912D01*
G01*
X189977292Y-61096935D02*
G75*
G02*
X190747528Y-62282995I-207912J-978148D01*
G01*
X173788953Y-91444355D02*
X162051183Y-88949413D01*
X164961945Y-75255347D02*
X176699717Y-77750288D01*
X163775886Y-76025584D02*
G75*
G02*
X164961945Y-75255347I978148J-207911D01*
G01*
X174975013Y-90674119D02*
G75*
G02*
X173788953Y-91444355I-978148J207912D01*
G01*
X159605807Y-54641277D02*
X171343579Y-57136218D01*
X158419748Y-55411514D02*
G75*
G02*
X159605807Y-54641277I978148J-207911D01*
G01*
X187066527Y-74791002D02*
X175328757Y-72296060D01*
X138061333Y-64374625D02*
G75*
G02*
X137291097Y-63188567I207911J978147D01*
G01*
X153480104Y-54361560D02*
X150985162Y-66099330D01*
X131165392Y-62908849D02*
X119427622Y-60413907D01*
X119427622Y-60413907D02*
G75*
G02*
X118657386Y-59227849I207911J978147D01*
G01*
X140972095Y-50680559D02*
X152709867Y-53175500D01*
X149799103Y-66869567D02*
X138061333Y-64374625D01*
X150985163Y-66099331D02*
G75*
G02*
X149799103Y-66869567I-978148J207912D01*
G01*
X134076157Y-49214782D02*
G75*
G02*
X134846393Y-50400842I-207912J-978148D01*
G01*
X137291097Y-63188567D02*
X139786037Y-51450796D01*
X122338384Y-46719841D02*
X134076156Y-49214782D01*
X139786036Y-51450796D02*
G75*
G02*
X140972095Y-50680559I978148J-207911D01*
G01*
X152709868Y-53175500D02*
G75*
G02*
X153480104Y-54361560I-207912J-978148D01*
G01*
X349388500Y-46387500D02*
X342682550Y-46387499D01*
X121152325Y-47490078D02*
G75*
G02*
X122338384Y-46719841I978148J-207911D01*
G01*
X132351452Y-62138613D02*
G75*
G02*
X131165392Y-62908849I-978148J207912D01*
G01*
X118657386Y-59227849D02*
X121152326Y-47490078D01*
X134846393Y-50400842D02*
X132351451Y-62138612D01*
X238697769Y-85424575D02*
G75*
G02*
X237511709Y-84654339I-207912J978148D01*
G01*
X259006618Y-48341779D02*
G75*
G02*
X259776855Y-47155720I978148J207911D01*
G01*
X242867848Y-64040268D02*
X240372908Y-52302497D01*
X217153294Y-75691226D02*
X228891065Y-73196286D01*
X235016768Y-72916567D02*
G75*
G02*
X235787005Y-71730508I978148J207911D01*
G01*
X222509432Y-55077155D02*
X234247203Y-52582215D01*
X221739195Y-56263214D02*
G75*
G02*
X222509432Y-55077155I978148J207911D01*
G01*
X259776855Y-47155720D02*
X271514626Y-44660780D01*
X218524254Y-70236999D02*
X206786483Y-72731940D01*
X206786484Y-72731940D02*
G75*
G02*
X205600424Y-71961704I-207912J978148D01*
G01*
X255791678Y-62315563D02*
X244053907Y-64810504D01*
X256145421Y-80693621D02*
X253650481Y-68955850D01*
X225420196Y-68771222D02*
G75*
G02*
X224234136Y-68000986I-207912J978148D01*
G01*
X216799550Y-57313169D02*
X219294490Y-69050940D01*
X275195625Y-57168788D02*
G75*
G02*
X274425389Y-58354846I-978147J-207911D01*
G01*
X216383057Y-76877285D02*
G75*
G02*
X217153294Y-75691226I978148J207911D01*
G01*
X261501559Y-60079551D02*
X259006619Y-48341780D01*
X257331481Y-81463857D02*
G75*
G02*
X256145421Y-80693621I-207912J978148D01*
G01*
X254066974Y-49391733D02*
X256561914Y-61129504D01*
X219294490Y-69050941D02*
G75*
G02*
X218524254Y-70236999I-978147J-207911D01*
G01*
X262687619Y-60849787D02*
G75*
G02*
X261501559Y-60079551I-207912J978148D01*
G01*
X391318750Y-40481250D02*
G75*
G02*
X394493750Y-43656250I0J-3175000D01*
G01*
X23018750Y-43656250D02*
G75*
G02*
X26193750Y-40481250I3175000J0D01*
G01*
X182562500Y-159543750D02*
X211137500Y-159543750D01*
X248710835Y-70005804D02*
X251205775Y-81743575D01*
X201430346Y-93346010D02*
G75*
G02*
X200244286Y-92575774I-207912J978148D01*
G01*
X213168116Y-90851069D02*
X201430345Y-93346010D01*
X244053908Y-64810504D02*
G75*
G02*
X242867848Y-64040268I-207912J978148D01*
G01*
X231801828Y-86890352D02*
X220064057Y-89385293D01*
X215613491Y-56542934D02*
G75*
G02*
X216799550Y-57313169I207912J-978147D01*
G01*
X234247203Y-52582216D02*
G75*
G02*
X235433262Y-53352451I207912J-978147D01*
G01*
X218877998Y-88615057D02*
X216383058Y-76877286D01*
X197749345Y-80838002D02*
G75*
G02*
X198519582Y-79651943I978148J207911D01*
G01*
X266158488Y-65274851D02*
G75*
G02*
X267344547Y-66045086I207912J-978147D01*
G01*
X198519582Y-79651943D02*
X210257353Y-77157003D01*
X211443412Y-77927239D02*
X213938352Y-89665010D01*
X232572064Y-85704294D02*
G75*
G02*
X231801828Y-86890352I-978147J-207911D01*
G01*
X210257353Y-77157004D02*
G75*
G02*
X211443412Y-77927239I207912J-978147D01*
G01*
X200244286Y-92575774D02*
X197749346Y-80838003D01*
X272700685Y-45431016D02*
X275195625Y-57168787D01*
X271514626Y-44660781D02*
G75*
G02*
X272700685Y-45431016I207912J-978147D01*
G01*
X230077124Y-73966522D02*
X232572064Y-85704293D01*
X213938352Y-89665011D02*
G75*
G02*
X213168116Y-90851069I-978147J-207911D01*
G01*
X241143144Y-51116437D02*
X252880915Y-48621497D01*
X256561914Y-61129505D02*
G75*
G02*
X255791678Y-62315563I-978147J-207911D01*
G01*
X240372907Y-52302496D02*
G75*
G02*
X241143144Y-51116437I978148J207911D01*
G01*
X251205775Y-81743576D02*
G75*
G02*
X250435539Y-82929634I-978147J-207911D01*
G01*
X237928202Y-65090223D02*
G75*
G02*
X237157966Y-66276281I-978147J-207911D01*
G01*
X224234136Y-68000986D02*
X221739196Y-56263215D01*
X203875720Y-59037873D02*
X215613491Y-56542933D01*
X220064058Y-89385293D02*
G75*
G02*
X218877998Y-88615057I-207912J978148D01*
G01*
X250435539Y-82929634D02*
X238697768Y-85424575D01*
X235433262Y-53352451D02*
X237928202Y-65090222D01*
X203105483Y-60223932D02*
G75*
G02*
X203875720Y-59037873I978148J207911D01*
G01*
X237157966Y-66276281D02*
X225420195Y-68771222D01*
X205600424Y-71961704D02*
X203105484Y-60223933D01*
X391318750Y-145256250D02*
X278606250Y-145256250D01*
X394493750Y-142081250D02*
G75*
G02*
X391318750Y-145256250I-3175000J0D01*
G01*
X274425389Y-58354846D02*
X262687618Y-60849787D01*
X228891065Y-73196287D02*
G75*
G02*
X230077124Y-73966522I207912J-978147D01*
G01*
X237511709Y-84654339D02*
X235016769Y-72916568D01*
X235787005Y-71730508D02*
X247524776Y-69235568D01*
X252880915Y-48621498D02*
G75*
G02*
X254066974Y-49391733I207912J-978147D01*
G01*
X247524776Y-69235569D02*
G75*
G02*
X248710835Y-70005804I207912J-978147D01*
G01*
X357537500Y-126350000D02*
X369537500Y-126350000D01*
X388537500Y-126350000D02*
G75*
G02*
X389537500Y-127350000I0J-1000000D01*
G01*
X370537500Y-139350000D02*
G75*
G02*
X369537500Y-140350000I-1000000J0D01*
G01*
X26193750Y-145256250D02*
X115443000Y-145256250D01*
X391318750Y-40481250D02*
X277812500Y-40481250D01*
X357537500Y-140350000D02*
G75*
G02*
X356537500Y-139350000I0J1000000D01*
G01*
X369537500Y-126350000D02*
G75*
G02*
X370537500Y-127350000I0J-1000000D01*
G01*
X370537500Y-127350000D02*
X370537500Y-139350000D01*
X199231250Y-57150000D02*
X194468750Y-57150000D01*
X356537500Y-127350000D02*
G75*
G02*
X357537500Y-126350000I1000000J0D01*
G01*
X23018750Y-43656250D02*
X23018750Y-142081250D01*
X388537500Y-140350000D02*
X376537500Y-140350000D01*
X369537500Y-140350000D02*
X357537500Y-140350000D01*
X389537500Y-139350000D02*
G75*
G02*
X388537500Y-140350000I-1000000J0D01*
G01*
X350487500Y-126350000D02*
G75*
G02*
X351487500Y-127350000I0J-1000000D01*
G01*
X278606250Y-145256250D02*
X211137500Y-159543750D01*
X115443000Y-145256250D02*
X182562500Y-159543750D01*
X277812500Y-40481250D02*
X199231250Y-57150000D01*
X26193750Y-145256250D02*
G75*
G02*
X23018750Y-142081250I0J3175000D01*
G01*
X115887500Y-40481250D02*
X194468750Y-57150000D01*
X376537500Y-126350000D02*
X388537500Y-126350000D01*
X26193750Y-40481250D02*
X115887500Y-40481250D01*
X375537500Y-139350000D02*
X375537500Y-127350000D01*
X376537500Y-140350000D02*
G75*
G02*
X375537500Y-139350000I0J1000000D01*
G01*
X394493750Y-43656250D02*
X394493750Y-142081250D01*
X389537500Y-127350000D02*
X389537500Y-139350000D01*
X375537500Y-127350000D02*
G75*
G02*
X376537500Y-126350000I1000000J0D01*
G01*
X356537500Y-139350000D02*
X356537500Y-127350000D01*
X177397429Y-97374179D02*
G75*
G02*
X178167665Y-98560239I-207912J-978148D01*
G01*
X162748894Y-108573304D02*
G75*
G02*
X161978658Y-107387246I207911J978147D01*
G01*
X149471320Y-125226657D02*
G75*
G02*
X148701084Y-124040599I207911J978147D01*
G01*
X175672724Y-110298010D02*
G75*
G02*
X174486664Y-111068246I-978148J207912D01*
G01*
X161209090Y-127721599D02*
X149471320Y-125226657D01*
X115114658Y-103611156D02*
X126852430Y-106106097D01*
X125127726Y-119029928D02*
G75*
G02*
X123941666Y-119800164I-978148J207912D01*
G01*
X159533953Y-94599522D02*
X157039011Y-106337292D01*
X108954436Y-124567914D02*
G75*
G02*
X110140495Y-123797677I978148J-207911D01*
G01*
X120153563Y-139216449D02*
G75*
G02*
X118967503Y-139986685I-978148J207912D01*
G01*
X121878268Y-126292618D02*
G75*
G02*
X122648504Y-127478678I-207912J-978148D01*
G01*
X123941666Y-119800164D02*
X112203896Y-117305222D01*
X162395150Y-126951363D02*
G75*
G02*
X161209090Y-127721599I-978148J207912D01*
G01*
X122648504Y-127478678D02*
X120153562Y-139216448D01*
X107229733Y-137491743D02*
G75*
G02*
X106459497Y-136305685I207911J978147D01*
G01*
X110140495Y-123797677D02*
X121878267Y-126292618D01*
X113928599Y-104381393D02*
G75*
G02*
X115114658Y-103611156I978148J-207911D01*
G01*
X158763717Y-93413462D02*
G75*
G02*
X159533953Y-94599522I-207912J-978148D01*
G01*
X161978658Y-107387246D02*
X164473598Y-95649475D01*
X127622667Y-107292157D02*
X125127725Y-119029927D01*
X106459497Y-136305685D02*
X108954437Y-124567914D01*
X171015794Y-115493309D02*
X182753566Y-117988250D01*
X152382082Y-111532591D02*
X164119854Y-114027532D01*
X144115182Y-104612587D02*
G75*
G02*
X143344946Y-103426529I207911J978147D01*
G01*
X145839885Y-91688758D02*
G75*
G02*
X147025944Y-90918521I978148J-207911D01*
G01*
X133748370Y-107571874D02*
X145486142Y-110066815D01*
X145486143Y-110066815D02*
G75*
G02*
X146256379Y-111252875I-207912J-978148D01*
G01*
X151196023Y-112302828D02*
G75*
G02*
X152382082Y-111532591I978148J-207911D01*
G01*
X164890091Y-115213592D02*
X162395149Y-126951362D01*
X142575378Y-123760882D02*
X130837608Y-121265940D01*
X130067372Y-120079882D02*
X132562312Y-108342111D01*
X148701084Y-124040599D02*
X151196024Y-112302828D01*
X143761438Y-122990646D02*
G75*
G02*
X142575378Y-123760882I-978148J207912D01*
G01*
X164473597Y-95649475D02*
G75*
G02*
X165659656Y-94879238I978148J-207911D01*
G01*
X132562311Y-108342111D02*
G75*
G02*
X133748370Y-107571874I978148J-207911D01*
G01*
X130837608Y-121265940D02*
G75*
G02*
X130067372Y-120079882I207911J978147D01*
G01*
X146256379Y-111252875D02*
X143761437Y-122990645D01*
X165659656Y-94879238D02*
X177397428Y-97374179D01*
X164119855Y-114027532D02*
G75*
G02*
X164890091Y-115213592I-207912J-978148D01*
G01*
X111433660Y-116119164D02*
X113928600Y-104381393D01*
X126852431Y-106106097D02*
G75*
G02*
X127622667Y-107292157I-207912J-978148D01*
G01*
X112203896Y-117305222D02*
G75*
G02*
X111433660Y-116119164I207911J978147D01*
G01*
X118967503Y-139986685D02*
X107229733Y-137491743D01*
X157039012Y-106337293D02*
G75*
G02*
X155852952Y-107107529I-978148J207912D01*
G01*
X174486664Y-111068246D02*
X162748894Y-108573304D01*
X178167665Y-98560239D02*
X175672723Y-110298009D01*
X120798583Y-65868135D02*
G75*
G02*
X121568819Y-67054195I-207912J-978148D01*
G01*
X139432295Y-69828853D02*
G75*
G02*
X140202531Y-71014913I-207912J-978148D01*
G01*
X140202531Y-71014913D02*
X137707589Y-82752683D01*
X127206173Y-87728040D02*
G75*
G02*
X128392232Y-86957803I978148J-207911D01*
G01*
X140130005Y-89452744D02*
G75*
G02*
X140900241Y-90638804I-207912J-978148D01*
G01*
X125481470Y-100651869D02*
G75*
G02*
X124711234Y-99465811I207911J978147D01*
G01*
X140900241Y-90638804D02*
X138405299Y-102376574D01*
X147025944Y-90918521D02*
X158763716Y-93413462D01*
X119073878Y-78791966D02*
G75*
G02*
X117887818Y-79562202I-978148J207912D01*
G01*
X126508463Y-68104149D02*
G75*
G02*
X127694522Y-67333912I978148J-207911D01*
G01*
X124013524Y-79841920D02*
X126508464Y-68104149D01*
X118585528Y-99186093D02*
X106847758Y-96691151D01*
X124711234Y-99465811D02*
X127206174Y-87728040D01*
X155852952Y-107107529D02*
X144115182Y-104612587D01*
X143344946Y-103426529D02*
X145839886Y-91688758D01*
X143417472Y-84988695D02*
G75*
G02*
X142647236Y-83802637I207911J978147D01*
G01*
X109758520Y-82997085D02*
X121496292Y-85492026D01*
X136521530Y-83522920D02*
X124783760Y-81027978D01*
X176699718Y-77750288D02*
G75*
G02*
X177469954Y-78936348I-207912J-978148D01*
G01*
X177469954Y-78936348D02*
X174975012Y-90674118D01*
X155155242Y-87483637D02*
X143417472Y-84988695D01*
X145142175Y-72064866D02*
G75*
G02*
X146328234Y-71294629I978148J-207911D01*
G01*
X106150048Y-77067260D02*
G75*
G02*
X105379812Y-75881202I207911J978147D01*
G01*
X106077522Y-95505093D02*
X108572462Y-83767322D01*
X127694522Y-67333912D02*
X139432294Y-69828853D01*
X108572461Y-83767322D02*
G75*
G02*
X109758520Y-82997085I978148J-207911D01*
G01*
X106847758Y-96691151D02*
G75*
G02*
X106077522Y-95505093I207911J978147D01*
G01*
X156341302Y-86713401D02*
G75*
G02*
X155155242Y-87483637I-978148J207912D01*
G01*
X105379812Y-75881202D02*
X107874752Y-64143431D01*
X142647236Y-83802637D02*
X145142176Y-72064866D01*
X117887818Y-79562202D02*
X106150048Y-77067260D01*
X121568819Y-67054195D02*
X119073877Y-78791965D01*
X121496293Y-85492026D02*
G75*
G02*
X122266529Y-86678086I-207912J-978148D01*
G01*
X158836243Y-74975630D02*
X156341301Y-86713400D01*
X137707590Y-82752684D02*
G75*
G02*
X136521530Y-83522920I-978148J207912D01*
G01*
X109060810Y-63373194D02*
X120798582Y-65868135D01*
X122266529Y-86678086D02*
X119771587Y-98415856D01*
X128392232Y-86957803D02*
X140130004Y-89452744D01*
X137219240Y-103146811D02*
X125481470Y-100651869D01*
X138405300Y-102376575D02*
G75*
G02*
X137219240Y-103146811I-978148J207912D01*
G01*
X158066007Y-73789570D02*
G75*
G02*
X158836243Y-74975630I-207912J-978148D01*
G01*
X146328234Y-71294629D02*
X158066006Y-73789570D01*
X119771588Y-98415857D02*
G75*
G02*
X118585528Y-99186093I-978148J207912D01*
G01*
X124783760Y-81027978D02*
G75*
G02*
X124013524Y-79841920I207911J978147D01*
G01*
X162051183Y-88949413D02*
G75*
G02*
X161280947Y-87763355I207911J978147D01*
G01*
X107874751Y-64143431D02*
G75*
G02*
X109060810Y-63373194I978148J-207911D01*
G01*
X216431123Y-129108672D02*
X204693352Y-131603613D01*
X259824921Y-99387108D02*
G75*
G02*
X259054685Y-100573166I-978147J-207911D01*
G01*
X265950627Y-99107390D02*
G75*
G02*
X264764567Y-98337154I-207912J978148D01*
G01*
X264764567Y-98337154D02*
X262269627Y-86599383D01*
X247316915Y-103068107D02*
G75*
G02*
X246130855Y-102297871I-207912J978148D01*
G01*
X222141005Y-126872660D02*
X219646065Y-115134889D01*
X225002202Y-94520817D02*
G75*
G02*
X225772439Y-93334758I978148J207911D01*
G01*
X222557498Y-107308544D02*
G75*
G02*
X221787262Y-108494602I-978147J-207911D01*
G01*
X210049492Y-110989543D02*
G75*
G02*
X208863432Y-110219307I-207912J978148D01*
G01*
X218876499Y-94800537D02*
G75*
G02*
X220062558Y-95570772I207912J-978147D01*
G01*
X278458633Y-95426391D02*
G75*
G02*
X277688397Y-96612449I-978147J-207911D01*
G01*
X275963693Y-83688619D02*
X278458633Y-95426390D01*
X243635914Y-90560099D02*
G75*
G02*
X244406151Y-89374040I978148J207911D01*
G01*
X225772439Y-93334758D02*
X237510210Y-90839818D01*
X220062558Y-95570772D02*
X222557498Y-107308543D01*
X208863432Y-110219307D02*
X206368492Y-98481536D01*
X254420717Y-67769790D02*
X266158488Y-65274850D01*
X267344547Y-66045086D02*
X269839487Y-77782857D01*
X263039863Y-85413323D02*
X274777634Y-82918383D01*
X240420973Y-104533884D02*
X228683202Y-107028825D01*
X237510210Y-90839819D02*
G75*
G02*
X238696269Y-91610054I207912J-978147D01*
G01*
X256143922Y-86879101D02*
G75*
G02*
X257329981Y-87649336I207912J-978147D01*
G01*
X238696269Y-91610054D02*
X241191209Y-103347825D01*
X241191209Y-103347826D02*
G75*
G02*
X240420973Y-104533884I-978147J-207911D01*
G01*
X207138728Y-97295476D02*
X218876499Y-94800536D01*
X277688397Y-96612449D02*
X265950626Y-99107390D01*
X269069251Y-78968916D02*
X257331480Y-81463857D01*
X269839487Y-77782858D02*
G75*
G02*
X269069251Y-78968916I-978147J-207911D01*
G01*
X257329981Y-87649336D02*
X259824921Y-99387107D01*
X253650480Y-68955849D02*
G75*
G02*
X254420717Y-67769790I978148J207911D01*
G01*
X244406151Y-89374040D02*
X256143922Y-86879100D01*
X204693353Y-131603613D02*
G75*
G02*
X203507293Y-130833377I-207912J978148D01*
G01*
X213520360Y-115414607D02*
G75*
G02*
X214706419Y-116184842I207912J-978147D01*
G01*
X246130855Y-102297871D02*
X243635915Y-90560100D01*
X203507293Y-130833377D02*
X201012353Y-119095606D01*
X262269626Y-86599382D02*
G75*
G02*
X263039863Y-85413323I978148J207911D01*
G01*
X217201359Y-127922614D02*
G75*
G02*
X216431123Y-129108672I-978147J-207911D01*
G01*
X259054685Y-100573166D02*
X247316914Y-103068107D01*
X228683203Y-107028825D02*
G75*
G02*
X227497143Y-106258589I-207912J978148D01*
G01*
X201782589Y-117909546D02*
X213520360Y-115414606D01*
X227497143Y-106258589D02*
X225002203Y-94520818D01*
X214706419Y-116184842D02*
X217201359Y-127922613D01*
X221787262Y-108494602D02*
X210049491Y-110989543D01*
X206368491Y-98481535D02*
G75*
G02*
X207138728Y-97295476I978148J207911D01*
G01*
X274777634Y-82918384D02*
G75*
G02*
X275963693Y-83688619I207912J-978147D01*
G01*
X201012352Y-119095605D02*
G75*
G02*
X201782589Y-117909546I978148J207911D01*
G01*
X40925000Y-95106250D02*
X28925000Y-95106250D01*
X50450000Y-57006250D02*
X38450000Y-57006250D01*
X33687500Y-62056250D02*
X45687500Y-62056250D01*
X46687500Y-75056250D02*
G75*
G02*
X45687500Y-76056250I-1000000J0D01*
G01*
X75262500Y-58387500D02*
G75*
G02*
X74262500Y-59387500I-1000000J0D01*
G01*
X32687500Y-63056250D02*
G75*
G02*
X33687500Y-62056250I1000000J0D01*
G01*
X51450000Y-56006250D02*
G75*
G02*
X50450000Y-57006250I-1000000J0D01*
G01*
X38450000Y-57006250D02*
G75*
G02*
X37450000Y-56006250I0J1000000D01*
G01*
X37450000Y-44006250D02*
G75*
G02*
X38450000Y-43006250I1000000J0D01*
G01*
X51450000Y-44006250D02*
X51450000Y-56006250D01*
X38450000Y-43006250D02*
X50450000Y-43006250D01*
X37450000Y-56006250D02*
X37450000Y-44006250D01*
X74262500Y-59387500D02*
X62262500Y-59387500D01*
X62262500Y-59387500D02*
G75*
G02*
X61262500Y-58387500I0J1000000D01*
G01*
X28925000Y-81106250D02*
X40925000Y-81106250D01*
X27925000Y-82106250D02*
G75*
G02*
X28925000Y-81106250I1000000J0D01*
G01*
X40925000Y-81106250D02*
G75*
G02*
X41925000Y-82106250I0J-1000000D01*
G01*
X46687500Y-63056250D02*
X46687500Y-75056250D01*
X32687500Y-75056250D02*
X32687500Y-63056250D01*
X45687500Y-76056250D02*
X33687500Y-76056250D01*
X33687500Y-76056250D02*
G75*
G02*
X32687500Y-75056250I0J1000000D01*
G01*
X50450000Y-43006250D02*
G75*
G02*
X51450000Y-44006250I0J-1000000D01*
G01*
X45687500Y-62056250D02*
G75*
G02*
X46687500Y-63056250I0J-1000000D01*
G01*
X41925000Y-94106250D02*
G75*
G02*
X40925000Y-95106250I-1000000J0D01*
G01*
X41925000Y-82106250D02*
X41925000Y-94106250D01*
X27925000Y-94106250D02*
X27925000Y-82106250D01*
X28925000Y-95106250D02*
G75*
G02*
X27925000Y-94106250I0J1000000D01*
G01*
X232154072Y-111453890D02*
G75*
G02*
X233340131Y-112224125I207912J-978147D01*
G01*
X250787784Y-107493172D02*
G75*
G02*
X251973843Y-108263407I207912J-978147D01*
G01*
X169829735Y-116263546D02*
G75*
G02*
X171015794Y-115493309I978148J-207911D01*
G01*
X259408429Y-118951224D02*
X256913489Y-107213453D01*
X183523803Y-119174310D02*
X181028861Y-130912080D01*
X181028862Y-130912081D02*
G75*
G02*
X179842802Y-131682317I-978148J207912D01*
G01*
X257683725Y-106027393D02*
X269421496Y-103532453D01*
X270607555Y-104302689D02*
X273102495Y-116040460D01*
X256913488Y-107213452D02*
G75*
G02*
X257683725Y-106027393I978148J207911D01*
G01*
X253698547Y-121187237D02*
X241960776Y-123682178D01*
X251973843Y-108263407D02*
X254468783Y-120001178D01*
X272332259Y-117226519D02*
X260594488Y-119721460D01*
X254468783Y-120001179D02*
G75*
G02*
X253698547Y-121187237I-978147J-207911D01*
G01*
X241960777Y-123682178D02*
G75*
G02*
X240774717Y-122911942I-207912J978148D01*
G01*
X182753567Y-117988250D02*
G75*
G02*
X183523803Y-119174310I-207912J-978148D01*
G01*
X269421496Y-103532454D02*
G75*
G02*
X270607555Y-104302689I207912J-978147D01*
G01*
X167334796Y-128001317D02*
X169829736Y-116263546D01*
X273102495Y-116040461D02*
G75*
G02*
X272332259Y-117226519I-978147J-207911D01*
G01*
X260594489Y-119721460D02*
G75*
G02*
X259408429Y-118951224I-207912J978148D01*
G01*
X238279776Y-111174170D02*
G75*
G02*
X239050013Y-109988111I978148J207911D01*
G01*
X240774717Y-122911942D02*
X238279777Y-111174171D01*
X179842802Y-131682317D02*
X168105032Y-129187375D01*
X239050013Y-109988111D02*
X250787784Y-107493171D01*
X235064835Y-125147955D02*
X223327064Y-127642896D01*
X220416301Y-113948829D02*
X232154072Y-111453889D01*
X233340131Y-112224125D02*
X235835071Y-123961896D01*
X235835071Y-123961897D02*
G75*
G02*
X235064835Y-125147955I-978147J-207911D01*
G01*
X219646064Y-115134888D02*
G75*
G02*
X220416301Y-113948829I978148J207911D01*
G01*
X223327065Y-127642896D02*
G75*
G02*
X222141005Y-126872660I-207912J978148D01*
G01*
X293337500Y-43006250D02*
G75*
G02*
X294337500Y-44006250I0J-1000000D01*
G01*
X102837500Y-116537500D02*
X90837500Y-116537500D01*
X103837500Y-115537500D02*
G75*
G02*
X102837500Y-116537500I-1000000J0D01*
G01*
X85075000Y-84487500D02*
G75*
G02*
X86075000Y-83487500I1000000J0D01*
G01*
X90837500Y-116537500D02*
G75*
G02*
X89837500Y-115537500I0J1000000D01*
G01*
X98075000Y-97487500D02*
X86075000Y-97487500D01*
X99362500Y-44006250D02*
G75*
G02*
X100362500Y-43006250I1000000J0D01*
G01*
X338487500Y-78437500D02*
G75*
G02*
X337487500Y-77437500I0J1000000D01*
G01*
X300387500Y-59387500D02*
G75*
G02*
X299387500Y-58387500I0J1000000D01*
G01*
X312387500Y-45387500D02*
G75*
G02*
X313387500Y-46387500I0J-1000000D01*
G01*
X99075000Y-65437500D02*
X99075000Y-77437500D01*
X85075000Y-96487500D02*
X85075000Y-84487500D01*
X100362500Y-43006250D02*
X112362500Y-43006250D01*
X89837500Y-103537500D02*
G75*
G02*
X90837500Y-102537500I1000000J0D01*
G01*
X90837500Y-102537500D02*
X102837500Y-102537500D01*
X94312500Y-46387500D02*
X94312500Y-58387500D01*
X80312500Y-46387500D02*
G75*
G02*
X81312500Y-45387500I1000000J0D01*
G01*
X350487500Y-78437500D02*
X338487500Y-78437500D01*
X99075000Y-77437500D02*
G75*
G02*
X98075000Y-78437500I-1000000J0D01*
G01*
X98075000Y-64437500D02*
G75*
G02*
X99075000Y-65437500I0J-1000000D01*
G01*
X113362500Y-44006250D02*
X113362500Y-56006250D01*
X99075000Y-96487500D02*
G75*
G02*
X98075000Y-97487500I-1000000J0D01*
G01*
X86075000Y-64437500D02*
X98075000Y-64437500D01*
X93312500Y-45387500D02*
G75*
G02*
X94312500Y-46387500I0J-1000000D01*
G01*
X103837500Y-103537500D02*
X103837500Y-115537500D01*
X85075000Y-65437500D02*
G75*
G02*
X86075000Y-64437500I1000000J0D01*
G01*
X312387500Y-59387500D02*
X300387500Y-59387500D01*
X80312500Y-58387500D02*
X80312500Y-46387500D01*
X299387500Y-46387500D02*
G75*
G02*
X300387500Y-45387500I1000000J0D01*
G01*
X93312500Y-59387500D02*
X81312500Y-59387500D01*
X94312500Y-58387500D02*
G75*
G02*
X93312500Y-59387500I-1000000J0D01*
G01*
X64737500Y-121587500D02*
G75*
G02*
X65737500Y-122587500I0J-1000000D01*
G01*
X112362500Y-57006250D02*
X100362500Y-57006250D01*
X300387500Y-45387500D02*
X312387500Y-45387500D01*
X102837500Y-102537500D02*
G75*
G02*
X103837500Y-103537500I0J-1000000D01*
G01*
X81312500Y-59387500D02*
G75*
G02*
X80312500Y-58387500I0J1000000D01*
G01*
X52737500Y-121587500D02*
X64737500Y-121587500D01*
X299387500Y-58387500D02*
X299387500Y-46387500D01*
X86075000Y-83487500D02*
X98075000Y-83487500D01*
X86075000Y-97487500D02*
G75*
G02*
X85075000Y-96487500I0J1000000D01*
G01*
X351487500Y-77437500D02*
G75*
G02*
X350487500Y-78437500I-1000000J0D01*
G01*
X99075000Y-84487500D02*
X99075000Y-96487500D01*
X293337500Y-57006250D02*
X281337500Y-57006250D01*
X337487500Y-65437500D02*
G75*
G02*
X338487500Y-64437500I1000000J0D01*
G01*
X294337500Y-56006250D02*
G75*
G02*
X293337500Y-57006250I-1000000J0D01*
G01*
X98075000Y-78437500D02*
X86075000Y-78437500D01*
X281337500Y-57006250D02*
G75*
G02*
X280337500Y-56006250I0J1000000D01*
G01*
X89837500Y-115537500D02*
X89837500Y-103537500D01*
X86075000Y-78437500D02*
G75*
G02*
X85075000Y-77437500I0J1000000D01*
G01*
X98075000Y-83487500D02*
G75*
G02*
X99075000Y-84487500I0J-1000000D01*
G01*
X313387500Y-46387500D02*
X313387500Y-58387500D01*
X280337500Y-44006250D02*
G75*
G02*
X281337500Y-43006250I1000000J0D01*
G01*
X112362500Y-43006250D02*
G75*
G02*
X113362500Y-44006250I0J-1000000D01*
G01*
X294337500Y-44006250D02*
X294337500Y-56006250D01*
X85075000Y-77437500D02*
X85075000Y-65437500D01*
X99362500Y-56006250D02*
X99362500Y-44006250D01*
X281337500Y-43006250D02*
X293337500Y-43006250D01*
X113362500Y-56006250D02*
G75*
G02*
X112362500Y-57006250I-1000000J0D01*
G01*
X100362500Y-57006250D02*
G75*
G02*
X99362500Y-56006250I0J1000000D01*
G01*
X81312500Y-45387500D02*
X93312500Y-45387500D01*
X65737500Y-122587500D02*
X65737500Y-134587500D01*
X337487500Y-77437500D02*
X337487500Y-65437500D01*
X313387500Y-58387500D02*
G75*
G02*
X312387500Y-59387500I-1000000J0D01*
G01*
X280337500Y-56006250D02*
X280337500Y-44006250D01*
X65737500Y-134587500D02*
G75*
G02*
X64737500Y-135587500I-1000000J0D01*
G01*
X64737500Y-135587500D02*
X52737500Y-135587500D01*
X52737500Y-135587500D02*
G75*
G02*
X51737500Y-134587500I0J1000000D01*
G01*
X58455250Y-102537500D02*
X73331250Y-102537501D01*
X54118750Y-96487500D02*
X54118750Y-84487500D01*
X71881250Y-83487500D02*
G75*
G02*
X72881250Y-84487500I0J-1000000D01*
G01*
X74262500Y-78437500D02*
X62262500Y-78437500D01*
X75262500Y-77437500D02*
G75*
G02*
X74262500Y-78437500I-1000000J0D01*
G01*
X62262500Y-78437500D02*
G75*
G02*
X61262500Y-77437500I0J1000000D01*
G01*
X75262500Y-46387500D02*
X75262500Y-58387500D01*
X51737500Y-122587500D02*
G75*
G02*
X52737500Y-121587500I1000000J0D01*
G01*
X55118750Y-83487500D02*
X71881250Y-83487500D01*
X74262500Y-45387500D02*
G75*
G02*
X75262500Y-46387500I0J-1000000D01*
G01*
X62262500Y-45387500D02*
X74262500Y-45387500D01*
X61262500Y-46387500D02*
G75*
G02*
X62262500Y-45387500I1000000J0D01*
G01*
X61262500Y-58387500D02*
X61262500Y-46387500D01*
X71893250Y-116537501D02*
X59893250Y-116537501D01*
X55118750Y-97487500D02*
G75*
G02*
X54118750Y-96487500I0J1000000D01*
G01*
X61262500Y-77437500D02*
X61262500Y-65437500D01*
X72881250Y-96487500D02*
G75*
G02*
X71881250Y-97487500I-1000000J0D01*
G01*
X51737500Y-134587500D02*
X51737500Y-122587500D01*
X72881250Y-84487500D02*
X72881250Y-96487500D01*
X71881250Y-97487500D02*
X55118750Y-97487500D01*
X74262500Y-64437500D02*
G75*
G02*
X75262500Y-65437500I0J-1000000D01*
G01*
X75262500Y-65437500D02*
X75262500Y-77437500D01*
X54118750Y-84487500D02*
G75*
G02*
X55118750Y-83487500I1000000J0D01*
G01*
X62262500Y-64437500D02*
X74262500Y-64437500D01*
X61262500Y-65437500D02*
G75*
G02*
X62262500Y-64437500I1000000J0D01*
G01*
X350487500Y-140350000D02*
X338487500Y-140350000D01*
X322912500Y-122587500D02*
X322912500Y-134587500D01*
X294337500Y-115537500D02*
G75*
G02*
X293337500Y-116537500I-1000000J0D01*
G01*
X356537500Y-108300000D02*
G75*
G02*
X357537500Y-107300000I1000000J0D01*
G01*
X325581250Y-115537500D02*
X325581250Y-103537500D01*
X338581250Y-116537500D02*
X326581250Y-116537500D01*
X308912500Y-134587500D02*
X308912500Y-122587500D01*
X338487500Y-126350000D02*
X350487500Y-126350000D01*
X348118250Y-97487501D02*
X336118250Y-97487501D01*
X321912500Y-135587500D02*
X309912500Y-135587500D01*
X281337500Y-102537500D02*
X293337500Y-102537500D01*
X326581250Y-116537500D02*
G75*
G02*
X325581250Y-115537500I0J1000000D01*
G01*
X299387500Y-115537500D02*
X299387500Y-103537500D01*
X356537500Y-120300000D02*
X356537500Y-108300000D01*
X339581250Y-103537500D02*
X339581250Y-115537500D01*
X351487500Y-139350000D02*
G75*
G02*
X350487500Y-140350000I-1000000J0D01*
G01*
X280337500Y-115537500D02*
X280337500Y-103537500D01*
X370537500Y-108300000D02*
X370537500Y-120300000D01*
X321912500Y-121587500D02*
G75*
G02*
X322912500Y-122587500I0J-1000000D01*
G01*
X313387500Y-103537500D02*
X313387500Y-115537500D01*
X357537500Y-107300000D02*
X369537500Y-107300000D01*
X338487500Y-140350000D02*
G75*
G02*
X337487500Y-139350000I0J1000000D01*
G01*
X357537500Y-121300000D02*
G75*
G02*
X356537500Y-120300000I0J1000000D01*
G01*
X326581250Y-102537500D02*
X338581250Y-102537500D01*
X294337500Y-103537500D02*
X294337500Y-115537500D01*
X339581250Y-115537500D02*
G75*
G02*
X338581250Y-116537500I-1000000J0D01*
G01*
X334680250Y-83487500D02*
X349556250Y-83487501D01*
X337487500Y-127350000D02*
G75*
G02*
X338487500Y-126350000I1000000J0D01*
G01*
X337487500Y-139350000D02*
X337487500Y-127350000D01*
X351487500Y-127350000D02*
X351487500Y-139350000D01*
X322912500Y-134587500D02*
G75*
G02*
X321912500Y-135587500I-1000000J0D01*
G01*
X293337500Y-116537500D02*
X281337500Y-116537500D01*
X317150000Y-83487500D02*
G75*
G02*
X318150000Y-84487500I0J-1000000D01*
G01*
X318150000Y-84487500D02*
X318150000Y-96487500D01*
X313387500Y-115537500D02*
G75*
G02*
X312387500Y-116537500I-1000000J0D01*
G01*
X369537500Y-107300000D02*
G75*
G02*
X370537500Y-108300000I0J-1000000D01*
G01*
X304150000Y-84487500D02*
G75*
G02*
X305150000Y-83487500I1000000J0D01*
G01*
X308912500Y-122587500D02*
G75*
G02*
X309912500Y-121587500I1000000J0D01*
G01*
X309912500Y-135587500D02*
G75*
G02*
X308912500Y-134587500I0J1000000D01*
G01*
X338581250Y-102537500D02*
G75*
G02*
X339581250Y-103537500I0J-1000000D01*
G01*
X304150000Y-96487500D02*
X304150000Y-84487500D01*
X280337500Y-103537500D02*
G75*
G02*
X281337500Y-102537500I1000000J0D01*
G01*
X300387500Y-116537500D02*
G75*
G02*
X299387500Y-115537500I0J1000000D01*
G01*
X369537500Y-121300000D02*
X357537500Y-121300000D01*
X370537500Y-120300000D02*
G75*
G02*
X369537500Y-121300000I-1000000J0D01*
G01*
X312387500Y-102537500D02*
G75*
G02*
X313387500Y-103537500I0J-1000000D01*
G01*
X309912500Y-121587500D02*
X321912500Y-121587500D01*
X299387500Y-103537500D02*
G75*
G02*
X300387500Y-102537500I1000000J0D01*
G01*
X312387500Y-116537500D02*
X300387500Y-116537500D01*
X325581250Y-103537500D02*
G75*
G02*
X326581250Y-102537500I1000000J0D01*
G01*
X281337500Y-116537500D02*
G75*
G02*
X280337500Y-115537500I0J1000000D01*
G01*
X293337500Y-102537500D02*
G75*
G02*
X294337500Y-103537500I0J-1000000D01*
G01*
X300387500Y-102537500D02*
X312387500Y-102537500D01*
X305150000Y-83487500D02*
X317150000Y-83487500D01*
X317150000Y-97487500D02*
X305150000Y-97487500D01*
X318150000Y-96487500D02*
G75*
G02*
X317150000Y-97487500I-1000000J0D01*
G01*
X305150000Y-97487500D02*
G75*
G02*
X304150000Y-96487500I0J1000000D01*
G01*
X298100000Y-83487500D02*
G75*
G02*
X299100000Y-84487500I0J-1000000D01*
G01*
X299100000Y-84487500D02*
X299100000Y-96487500D01*
X286100000Y-83487500D02*
X298100000Y-83487500D01*
X285100000Y-84487500D02*
G75*
G02*
X286100000Y-83487500I1000000J0D01*
G01*
X285100000Y-96487500D02*
X285100000Y-84487500D01*
X298100000Y-97487500D02*
X286100000Y-97487500D01*
X299100000Y-96487500D02*
G75*
G02*
X298100000Y-97487500I-1000000J0D01*
G01*
X276575000Y-63643750D02*
X288575000Y-63643750D01*
X286100000Y-97487500D02*
G75*
G02*
X285100000Y-96487500I0J1000000D01*
G01*
X289575000Y-76643750D02*
G75*
G02*
X288575000Y-77643750I-1000000J0D01*
G01*
X288575000Y-77643750D02*
X276575000Y-77643750D01*
X307625000Y-64437500D02*
G75*
G02*
X308625000Y-65437500I0J-1000000D01*
G01*
X308625000Y-65437500D02*
X308625000Y-77437500D01*
X288575000Y-63643750D02*
G75*
G02*
X289575000Y-64643750I0J-1000000D01*
G01*
X294625000Y-65437500D02*
G75*
G02*
X295625000Y-64437500I1000000J0D01*
G01*
X326675000Y-64437500D02*
G75*
G02*
X327675000Y-65437500I0J-1000000D01*
G01*
X314675000Y-64437500D02*
X326675000Y-64437500D01*
X313675000Y-77437500D02*
X313675000Y-65437500D01*
X326675000Y-78437500D02*
X314675000Y-78437500D01*
X314675000Y-78437500D02*
G75*
G02*
X313675000Y-77437500I0J1000000D01*
G01*
X275575000Y-64643750D02*
G75*
G02*
X276575000Y-63643750I1000000J0D01*
G01*
X295625000Y-78437500D02*
G75*
G02*
X294625000Y-77437500I0J1000000D01*
G01*
X350487500Y-64437500D02*
G75*
G02*
X351487500Y-65437500I0J-1000000D01*
G01*
X313675000Y-65437500D02*
G75*
G02*
X314675000Y-64437500I1000000J0D01*
G01*
X276575000Y-77643750D02*
G75*
G02*
X275575000Y-76643750I0J1000000D01*
G01*
X295625000Y-64437500D02*
X307625000Y-64437500D01*
X351487500Y-65437500D02*
X351487500Y-77437500D01*
X338487500Y-64437500D02*
X350487500Y-64437500D01*
X289575000Y-64643750D02*
X289575000Y-76643750D01*
X275575000Y-76643750D02*
X275575000Y-64643750D01*
X327675000Y-77437500D02*
G75*
G02*
X326675000Y-78437500I-1000000J0D01*
G01*
X307625000Y-78437500D02*
X295625000Y-78437500D01*
X308625000Y-77437500D02*
G75*
G02*
X307625000Y-78437500I-1000000J0D01*
G01*
X327675000Y-65437500D02*
X327675000Y-77437500D01*
X294625000Y-77437500D02*
X294625000Y-65437500D01*
X326680250Y-82487500D02*
G75*
G02*
X327680250Y-81487500I1000000J0D01*
G01*
X336118250Y-97487501D02*
G75*
G02*
X335252225Y-96987501I0J1000000D01*
G01*
X350556251Y-82487500D02*
G75*
G02*
X349556250Y-83487501I-1000001J0D01*
G01*
X334386200Y-96487501D02*
G75*
G02*
X335252225Y-96987501I0J-1000000D01*
G01*
X348984275Y-96987501D02*
G75*
G02*
X348118250Y-97487501I-866025J500000D01*
G01*
X326680250Y-95487500D02*
X326680250Y-82487500D01*
X356556250Y-81487500D02*
X351556250Y-81487500D01*
X348984276Y-96987501D02*
G75*
G02*
X349850301Y-96487501I866025J-500000D01*
G01*
X357556250Y-95487500D02*
G75*
G02*
X356556250Y-96487500I-1000000J0D01*
G01*
X356556250Y-96487500D02*
X349850301Y-96487501D01*
X356556250Y-81487500D02*
G75*
G02*
X357556250Y-82487500I0J-1000000D01*
G01*
M02*
