%TF.GenerationSoftware,KiCad,Pcbnew,(5.1.6)-1*%
%TF.CreationDate,2020-10-24T16:49:17-05:00*%
%TF.ProjectId,basketweave_plate,6261736b-6574-4776-9561-76655f706c61,rev?*%
%TF.SameCoordinates,Original*%
%TF.FileFunction,Legend,Top*%
%TF.FilePolarity,Positive*%
%FSLAX46Y46*%
G04 Gerber Fmt 4.6, Leading zero omitted, Abs format (unit mm)*
G04 Created by KiCad (PCBNEW (5.1.6)-1) date 2020-10-24 16:49:17*
%MOMM*%
%LPD*%
G01*
G04 APERTURE LIST*
%ADD10C,0.100000*%
G04 APERTURE END LIST*
D10*
G36*
X89217500Y-125761750D02*
G01*
X88201500Y-126777750D01*
X85661500Y-124237750D01*
X86677500Y-123221750D01*
X89217500Y-125761750D01*
G37*
X89217500Y-125761750D02*
X88201500Y-126777750D01*
X85661500Y-124237750D01*
X86677500Y-123221750D01*
X89217500Y-125761750D01*
G36*
X87693500Y-127285750D02*
G01*
X86677500Y-128301750D01*
X84137500Y-125761750D01*
X85153500Y-124745750D01*
X87693500Y-127285750D01*
G37*
X87693500Y-127285750D02*
X86677500Y-128301750D01*
X84137500Y-125761750D01*
X85153500Y-124745750D01*
X87693500Y-127285750D01*
G36*
X89217500Y-131857750D02*
G01*
X88201500Y-132873750D01*
X85661500Y-130333750D01*
X86677500Y-129317750D01*
X89217500Y-131857750D01*
G37*
X89217500Y-131857750D02*
X88201500Y-132873750D01*
X85661500Y-130333750D01*
X86677500Y-129317750D01*
X89217500Y-131857750D01*
G36*
X87693500Y-133381750D02*
G01*
X86677500Y-134397750D01*
X84137500Y-131857750D01*
X85153500Y-130841750D01*
X87693500Y-133381750D01*
G37*
X87693500Y-133381750D02*
X86677500Y-134397750D01*
X84137500Y-131857750D01*
X85153500Y-130841750D01*
X87693500Y-133381750D01*
M02*
