M48
; DRILL file {KiCad (5.1.6)-1} date 10/24/20 16:48:37
; FORMAT={-:-/ absolute / inch / decimal}
; #@! TF.CreationDate,2020-10-24T16:48:37-05:00
; #@! TF.GenerationSoftware,Kicad,Pcbnew,(5.1.6)-1
; #@! TF.FileFunction,NonPlated,1,2,NPTH
FMAT,2
INCH
T1C0.0689
T2C0.1200
T3C0.1570
%
G90
G05
T1
X12.9875Y-6.9062
X13.3875Y-6.9062
X2.4875Y-6.1562
X2.8875Y-6.1562
X14.9562Y-7.8438
X15.3562Y-7.8438
X6.5939Y-6.6063
X6.9852Y-6.6894
X14.2062Y-7.0938
X14.6062Y-7.0938
X8.7358Y-5.8358
X9.1271Y-5.7526
X5.0992Y-5.5218
X5.4905Y-5.605
X5.8194Y-7.9734
X6.2106Y-8.0566
X7.0144Y-8.2284
X7.4056Y-8.3116
X6.924Y-8.2099
X7.3152Y-8.2931
X8.0022Y-5.9917
X8.3935Y-5.9085
X12.3312Y-7.6562
X12.7312Y-7.6562
X13.4562Y-7.8438
X13.8562Y-7.8438
X10.203Y-5.5239
X10.5943Y-5.4407
X14.2062Y-7.8438
X14.6062Y-7.8438
X4.604Y-6.95
X4.9952Y-7.0332
X6.8048Y-7.4178
X7.196Y-7.501
X9.4694Y-5.6798
X9.8607Y-5.5967
X5.8328Y-5.6777
X6.2241Y-5.7609
X2.3Y-6.1562
X2.7Y-6.1562
X8.9285Y-8.0951
X9.3198Y-8.0119
X5.7318Y-7.9565
X6.1231Y-8.0397
X1.6438Y-4.5625
X2.0437Y-4.5625
X2.2062Y-7.6562
X2.6062Y-7.6562
X10.4139Y-4.7123
X10.8052Y-4.6291
X5.1267Y-6.2944
X5.518Y-6.3775
X9.6803Y-4.8682
X10.0716Y-4.7851
X11.3937Y-6.1562
X11.7937Y-6.1562
X8.8643Y-7.342
X9.2555Y-7.2588
X10.5424Y-6.2185
X10.9336Y-6.1354
X6.5664Y-5.8337
X6.9577Y-5.9168
X13.3625Y-6.1562
X13.7625Y-6.1562
X11.2062Y-4.5625
X11.6062Y-4.5625
X3.7062Y-6.9062
X4.1063Y-6.9062
X1.2688Y-6.0625
X1.6687Y-6.0625
X1.4563Y-5.3125
X1.8562Y-5.3125
X11.7687Y-5.4062
X12.1687Y-5.4062
X11.9562Y-4.6562
X12.3562Y-4.6562
X5.622Y-4.8661
X6.0132Y-4.9493
X4.3931Y-6.1385
X4.7843Y-6.2216
X13.0812Y-4.6562
X13.4812Y-4.6562
X6.3556Y-5.0221
X6.7468Y-5.1052
X8.9467Y-5.0242
X9.338Y-4.941
X10.3315Y-7.0301
X10.7228Y-6.9469
X12.1437Y-6.1562
X12.5437Y-6.1562
X3.3312Y-4.6562
X3.7312Y-4.6562
X2.5812Y-4.6562
X2.9812Y-4.6562
X9.0752Y-6.5304
X9.4664Y-6.4472
X9.5979Y-7.186
X9.9892Y-7.1029
X9.8088Y-6.3745
X10.2Y-6.2913
X13.4562Y-5.4062
X13.8562Y-5.4062
X12.5187Y-5.4062
X12.9187Y-5.4062
X11.9562Y-6.9062
X12.3562Y-6.9062
X8.3415Y-6.6863
X8.7328Y-6.6032
X8.1307Y-7.4979
X8.5219Y-7.4147
X4.8884Y-4.7102
X5.2796Y-4.7934
X3.5187Y-6.1562
X3.9187Y-6.1562
X11.0187Y-5.375
X11.4187Y-5.375
X5.3376Y-7.106
X5.7288Y-7.1891
X3.5187Y-5.4062
X3.9187Y-5.4062
X8.2131Y-5.1801
X8.6043Y-5.0969
X4.4081Y-7.7448
X4.7994Y-7.8279
X2.4875Y-6.9062
X2.8875Y-6.9062
X4.0812Y-4.5625
X4.4813Y-4.5625
X5.8603Y-6.4503
X6.2516Y-6.5335
X11.2062Y-6.9062
X11.6062Y-6.9062
X6.0712Y-7.2619
X6.4624Y-7.3451
X4.3656Y-5.3659
X4.7569Y-5.449
X2.5812Y-5.4062
X2.9812Y-5.4062
X10.5231Y-7.8248
X10.9144Y-7.7417
X7.0892Y-5.178
X7.4804Y-5.2612
T2
X2.2188Y-7.1812
X3.1562Y-7.1812
X5.4993Y-8.1865
X6.4163Y-8.3814
X8.7228Y-8.4199
X9.6398Y-8.225
X5.4118Y-8.1696
X6.3288Y-8.3646
X13.0938Y-6.4312
X14.0312Y-6.4312
X12.8125Y-4.3812
X13.75Y-4.3812
T3
X4.2812Y-4.5625
X6.0559Y-6.4919
X11.4062Y-6.9062
X6.2668Y-7.3035
X4.5612Y-5.4074
X2.7812Y-5.4062
X10.7188Y-7.7833
X7.2848Y-5.2196
X13.1875Y-6.9062
X2.6875Y-6.1562
X15.1562Y-7.8438
X6.7895Y-6.6478
X14.4062Y-7.0938
X8.9314Y-5.7942
X5.2949Y-5.5634
X5.6241Y-7.5996
X6.015Y-8.015
X6.5411Y-7.7946
X7.21Y-8.27
X7.1196Y-8.2515
X8.1978Y-5.9501
X12.5312Y-7.6562
X13.6562Y-7.8438
X10.3987Y-5.4823
X14.4062Y-7.8438
X4.7996Y-6.9916
X7.0004Y-7.4594
X9.6651Y-5.6382
X6.0285Y-5.7193
X2.5Y-6.1562
X8.5981Y-7.833
X9.1241Y-8.0535
X9.5151Y-7.6381
X5.5365Y-7.5827
X5.9275Y-7.9981
X6.4535Y-7.7777
X1.8438Y-4.5625
X2.4062Y-7.6562
X10.6095Y-4.6707
X5.3223Y-6.336
X9.8759Y-4.8267
X11.5938Y-6.1562
X9.0599Y-7.3004
X10.738Y-6.1769
X6.7621Y-5.8752
X13.0938Y-5.8312
X13.5625Y-6.1562
X14.0312Y-5.8312
X11.4062Y-4.5625
X3.9062Y-6.9062
X1.4688Y-6.0625
X1.6562Y-5.3125
X11.9688Y-5.4062
X12.1562Y-4.6562
X5.8176Y-4.9077
X4.5887Y-6.18
X12.8125Y-4.9813
X13.2812Y-4.6562
X13.75Y-4.9813
X6.5512Y-5.0637
X9.1423Y-4.9826
X10.5271Y-6.9885
X12.3438Y-6.1562
X3.5312Y-4.6562
X2.7812Y-4.6562
X9.2708Y-6.4888
X9.7935Y-7.1444
X10.0044Y-6.3329
X13.6562Y-5.4062
X12.7188Y-5.4062
X12.1562Y-6.9062
X8.5372Y-6.6447
X8.3263Y-7.4563
X5.084Y-4.7518
X3.7188Y-6.1562
X11.2188Y-5.375
X5.5332Y-7.1475
X3.7188Y-5.4062
X8.4087Y-5.1385
X4.6037Y-7.7864
X2.2188Y-6.5812
X2.6875Y-6.9062
X3.1562Y-6.5812
T0
M30
