G04 #@! TF.GenerationSoftware,KiCad,Pcbnew,(5.1.6)-1*
G04 #@! TF.CreationDate,2020-10-24T18:02:36-05:00*
G04 #@! TF.ProjectId,basketweave,6261736b-6574-4776-9561-76652e6b6963,rev?*
G04 #@! TF.SameCoordinates,Original*
G04 #@! TF.FileFunction,Legend,Bot*
G04 #@! TF.FilePolarity,Positive*
%FSLAX46Y46*%
G04 Gerber Fmt 4.6, Leading zero omitted, Abs format (unit mm)*
G04 Created by KiCad (PCBNEW (5.1.6)-1) date 2020-10-24 18:02:36*
%MOMM*%
%LPD*%
G01*
G04 APERTURE LIST*
%ADD10C,0.200000*%
G04 APERTURE END LIST*
D10*
X73866071Y-159996130D02*
X73866071Y-158996130D01*
X73294642Y-159996130D01*
X73294642Y-158996130D01*
X72675595Y-159996130D02*
X72770833Y-159948511D01*
X72818452Y-159900892D01*
X72866071Y-159805654D01*
X72866071Y-159519940D01*
X72818452Y-159424702D01*
X72770833Y-159377083D01*
X72675595Y-159329464D01*
X72532738Y-159329464D01*
X72437500Y-159377083D01*
X72389880Y-159424702D01*
X72342261Y-159519940D01*
X72342261Y-159805654D01*
X72389880Y-159900892D01*
X72437500Y-159948511D01*
X72532738Y-159996130D01*
X72675595Y-159996130D01*
X71913690Y-159996130D02*
X71913690Y-159329464D01*
X71913690Y-159519940D02*
X71866071Y-159424702D01*
X71818452Y-159377083D01*
X71723214Y-159329464D01*
X71627976Y-159329464D01*
X71294642Y-159996130D02*
X71294642Y-159329464D01*
X71294642Y-159424702D02*
X71247023Y-159377083D01*
X71151785Y-159329464D01*
X71008928Y-159329464D01*
X70913690Y-159377083D01*
X70866071Y-159472321D01*
X70866071Y-159996130D01*
X70866071Y-159472321D02*
X70818452Y-159377083D01*
X70723214Y-159329464D01*
X70580357Y-159329464D01*
X70485119Y-159377083D01*
X70437500Y-159472321D01*
X70437500Y-159996130D01*
X69532738Y-159996130D02*
X69532738Y-159472321D01*
X69580357Y-159377083D01*
X69675595Y-159329464D01*
X69866071Y-159329464D01*
X69961309Y-159377083D01*
X69532738Y-159948511D02*
X69627976Y-159996130D01*
X69866071Y-159996130D01*
X69961309Y-159948511D01*
X70008928Y-159853273D01*
X70008928Y-159758035D01*
X69961309Y-159662797D01*
X69866071Y-159615178D01*
X69627976Y-159615178D01*
X69532738Y-159567559D01*
X68913690Y-159996130D02*
X69008928Y-159948511D01*
X69056547Y-159853273D01*
X69056547Y-158996130D01*
X62316964Y-159948511D02*
X62174107Y-159996130D01*
X61936011Y-159996130D01*
X61840773Y-159948511D01*
X61793154Y-159900892D01*
X61745535Y-159805654D01*
X61745535Y-159710416D01*
X61793154Y-159615178D01*
X61840773Y-159567559D01*
X61936011Y-159519940D01*
X62126488Y-159472321D01*
X62221726Y-159424702D01*
X62269345Y-159377083D01*
X62316964Y-159281845D01*
X62316964Y-159186607D01*
X62269345Y-159091369D01*
X62221726Y-159043750D01*
X62126488Y-158996130D01*
X61888392Y-158996130D01*
X61745535Y-159043750D01*
X61459821Y-159329464D02*
X61078869Y-159329464D01*
X61316964Y-158996130D02*
X61316964Y-159853273D01*
X61269345Y-159948511D01*
X61174107Y-159996130D01*
X61078869Y-159996130D01*
X60364583Y-159948511D02*
X60459821Y-159996130D01*
X60650297Y-159996130D01*
X60745535Y-159948511D01*
X60793154Y-159853273D01*
X60793154Y-159472321D01*
X60745535Y-159377083D01*
X60650297Y-159329464D01*
X60459821Y-159329464D01*
X60364583Y-159377083D01*
X60316964Y-159472321D01*
X60316964Y-159567559D01*
X60793154Y-159662797D01*
X59888392Y-159329464D02*
X59888392Y-160329464D01*
X59888392Y-159377083D02*
X59793154Y-159329464D01*
X59602678Y-159329464D01*
X59507440Y-159377083D01*
X59459821Y-159424702D01*
X59412202Y-159519940D01*
X59412202Y-159805654D01*
X59459821Y-159900892D01*
X59507440Y-159948511D01*
X59602678Y-159996130D01*
X59793154Y-159996130D01*
X59888392Y-159948511D01*
X58983630Y-159329464D02*
X58983630Y-160329464D01*
X58983630Y-159377083D02*
X58888392Y-159329464D01*
X58697916Y-159329464D01*
X58602678Y-159377083D01*
X58555059Y-159424702D01*
X58507440Y-159519940D01*
X58507440Y-159805654D01*
X58555059Y-159900892D01*
X58602678Y-159948511D01*
X58697916Y-159996130D01*
X58888392Y-159996130D01*
X58983630Y-159948511D01*
X57697916Y-159948511D02*
X57793154Y-159996130D01*
X57983630Y-159996130D01*
X58078869Y-159948511D01*
X58126488Y-159853273D01*
X58126488Y-159472321D01*
X58078869Y-159377083D01*
X57983630Y-159329464D01*
X57793154Y-159329464D01*
X57697916Y-159377083D01*
X57650297Y-159472321D01*
X57650297Y-159567559D01*
X58126488Y-159662797D01*
X56793154Y-159996130D02*
X56793154Y-158996130D01*
X56793154Y-159948511D02*
X56888392Y-159996130D01*
X57078869Y-159996130D01*
X57174107Y-159948511D01*
X57221726Y-159900892D01*
X57269345Y-159805654D01*
X57269345Y-159519940D01*
X57221726Y-159424702D01*
X57174107Y-159377083D01*
X57078869Y-159329464D01*
X56888392Y-159329464D01*
X56793154Y-159377083D01*
X184218969Y-213995897D02*
X184777910Y-214114703D01*
X184498440Y-214055300D02*
X184706351Y-213077153D01*
X184769806Y-213236689D01*
X184843162Y-213349647D01*
X184926419Y-213416027D01*
X183519164Y-213165588D02*
X183380557Y-213817687D01*
X183938370Y-213254693D02*
X183829464Y-213767056D01*
X183763085Y-213850313D01*
X183660027Y-213877090D01*
X183520292Y-213847388D01*
X183437036Y-213781009D01*
X183400358Y-213724530D01*
X179033430Y-212655911D02*
X179592372Y-212774717D01*
X179312901Y-212715314D02*
X179520813Y-211737166D01*
X179584268Y-211896703D01*
X179657624Y-212009661D01*
X179740880Y-212076041D01*
X178634025Y-212473649D02*
X178577546Y-212510327D01*
X178614224Y-212566806D01*
X178670703Y-212530128D01*
X178634025Y-212473649D01*
X178614224Y-212566806D01*
X178383129Y-211592710D02*
X178346451Y-211536231D01*
X178263194Y-211469851D01*
X178030302Y-211420349D01*
X177927245Y-211447126D01*
X177870766Y-211483804D01*
X177804386Y-211567060D01*
X177784585Y-211660217D01*
X177801462Y-211809853D01*
X178241596Y-212487601D01*
X177636077Y-212358894D01*
X176958998Y-211192636D02*
X177424782Y-211291641D01*
X177372355Y-211767327D01*
X177335677Y-211710848D01*
X177252421Y-211644468D01*
X177019528Y-211594965D01*
X176916471Y-211621743D01*
X176859992Y-211658420D01*
X176793612Y-211741677D01*
X176744110Y-211974569D01*
X176770887Y-212077627D01*
X176807565Y-212134106D01*
X176890821Y-212200485D01*
X177123713Y-212249988D01*
X177226771Y-212223211D01*
X177283250Y-212186533D01*
X176004703Y-211330574D02*
X175866095Y-211982673D01*
X176423909Y-211419679D02*
X176315003Y-211932042D01*
X176248623Y-212015299D01*
X176145566Y-212042076D01*
X176005831Y-212012375D01*
X175922574Y-211945995D01*
X175885896Y-211889516D01*
X155967982Y-207127227D02*
X155931304Y-207070748D01*
X155848048Y-207004368D01*
X155615156Y-206954865D01*
X155512098Y-206981643D01*
X155455619Y-207018321D01*
X155389240Y-207101577D01*
X155369439Y-207194734D01*
X155386315Y-207344370D01*
X155826450Y-208022118D01*
X155220930Y-207893411D01*
X154821525Y-207711149D02*
X154765046Y-207747827D01*
X154801724Y-207804306D01*
X154858203Y-207767628D01*
X154821525Y-207711149D01*
X154801724Y-207804306D01*
X154570629Y-206830210D02*
X154533951Y-206773731D01*
X154450694Y-206707351D01*
X154217802Y-206657849D01*
X154114745Y-206684626D01*
X154058266Y-206721304D01*
X153991886Y-206804560D01*
X153972085Y-206897717D01*
X153988962Y-207047353D01*
X154429096Y-207725101D01*
X153823577Y-207596394D01*
X153146498Y-206430136D02*
X153612282Y-206529141D01*
X153559855Y-207004827D01*
X153523177Y-206948348D01*
X153439921Y-206881968D01*
X153207028Y-206832465D01*
X153103971Y-206859243D01*
X153047492Y-206895920D01*
X152981112Y-206979177D01*
X152931610Y-207212069D01*
X152958387Y-207315127D01*
X152995065Y-207371606D01*
X153078321Y-207437985D01*
X153311213Y-207487488D01*
X153414271Y-207460711D01*
X153470750Y-207424033D01*
X152192203Y-206568074D02*
X152053595Y-207220173D01*
X152611409Y-206657179D02*
X152502503Y-207169542D01*
X152436123Y-207252799D01*
X152333066Y-207279576D01*
X152193331Y-207249875D01*
X152110074Y-207183495D01*
X152073396Y-207127016D01*
X148453521Y-205292213D02*
X148416843Y-205235734D01*
X148333587Y-205169354D01*
X148100694Y-205119851D01*
X147997637Y-205146629D01*
X147941158Y-205183307D01*
X147874778Y-205266563D01*
X147854977Y-205359720D01*
X147871854Y-205509356D01*
X148311989Y-206187104D01*
X147706469Y-206058397D01*
X147006664Y-205228088D02*
X146868057Y-205880187D01*
X147425870Y-205317193D02*
X147316964Y-205829556D01*
X147250585Y-205912813D01*
X147147527Y-205939590D01*
X147007792Y-205909888D01*
X146924536Y-205843509D01*
X146887858Y-205787030D01*
M02*
