M48
; DRILL file {KiCad (5.1.6)-1} date 10/24/20 16:48:37
; FORMAT={-:-/ absolute / inch / decimal}
; #@! TF.CreationDate,2020-10-24T16:48:37-05:00
; #@! TF.GenerationSoftware,Kicad,Pcbnew,(5.1.6)-1
; #@! TF.FileFunction,Plated,1,2,PTH
FMAT,2
INCH
T1C0.0157
T2C0.0236
T3C0.0276
T4C0.0315
T5C0.0354
T6C0.0394
T7C0.0433
T8C0.0579
T9C0.0591
T10C0.0866
%
G90
G05
T1
X5.8125Y-3.7812
X6.2812Y-4.5625
X6.3125Y-4.5312
X6.3438Y-4.5
X6.375Y-4.4688
X6.4062Y-4.4375
X6.4375Y-4.4062
X6.4688Y-4.375
X6.75Y-3.9062
X7.1562Y-4.1875
X7.5938Y-3.4375
X7.8438Y-3.5625
X7.9062Y-3.5938
X8.45Y-3.735
X8.5312Y-4.1875
X8.5625Y-4.4062
X9.875Y-3.7812
X10.0Y-3.9375
X10.0625Y-3.8125
X13.5938Y-3.75
X14.2821Y-3.6242
X7.7264Y-3.438
X7.7266Y-3.4902
X7.7599Y-3.438
X7.7601Y-3.4902
X7.7934Y-3.438
X7.7936Y-3.4902
X7.8268Y-3.438
X7.827Y-3.4902
X7.8603Y-3.438
X7.8605Y-3.4902
X7.8937Y-3.438
X7.8939Y-3.4902
X7.9272Y-3.438
X7.9274Y-3.4902
X7.9609Y-3.438
X7.9609Y-3.4902
T2
X7.2812Y-3.6284
X7.2812Y-3.6875
T3
X7.4688Y-3.2311
X7.4688Y-3.4311
X7.125Y-3.2287
X7.125Y-3.4295
X6.8937Y-3.8125
X7.0938Y-3.8125
X8.4375Y-3.2338
X8.4375Y-3.4337
X8.575Y-3.685
X8.775Y-3.685
X7.375Y-3.2311
X7.375Y-3.4311
X8.5312Y-3.2338
X8.5312Y-3.4337
X8.575Y-3.7887
X8.775Y-3.7887
T4
X2.7812Y-3.6875
X2.7812Y-3.9875
X3.3438Y-3.6875
X3.3438Y-3.9875
X10.9062Y-3.5625
X10.9062Y-3.8625
X13.7188Y-3.5625
X13.7188Y-3.8625
X4.3438Y-3.625
X4.3438Y-3.925
X14.0312Y-3.6875
X14.0312Y-3.9875
X4.7812Y-3.5625
X4.7812Y-3.8625
X13.4688Y-3.6875
X13.4688Y-3.9875
X1.7812Y-3.75
X1.7812Y-4.05
X13.3438Y-3.75
X13.3438Y-4.05
X3.9062Y-3.6875
X3.9062Y-3.9875
X12.4688Y-3.625
X12.4688Y-3.925
X13.5938Y-3.625
X13.5938Y-3.925
X8.1375Y-4.6288
X8.1375Y-4.7272
X6.895Y-3.9
X6.895Y-4.5
X6.995Y-3.9
X6.995Y-4.5
X7.095Y-3.9
X7.095Y-4.5
X7.195Y-3.9
X7.195Y-4.5
X7.295Y-3.9
X7.295Y-4.5
X7.395Y-3.9
X7.395Y-4.5
X7.495Y-3.9
X7.495Y-4.5
X7.595Y-3.9
X7.595Y-4.5
X7.695Y-3.9
X7.695Y-4.5
X7.795Y-3.9
X7.795Y-4.5
X7.895Y-3.9
X7.895Y-4.5
X7.995Y-3.9
X7.995Y-4.5
X8.095Y-3.9
X8.095Y-4.5
X8.195Y-3.9
X8.195Y-4.5
X8.295Y-3.9
X8.295Y-4.5
X8.395Y-3.9
X8.395Y-4.5
X8.495Y-3.9
X8.495Y-4.5
X8.595Y-3.9
X8.595Y-4.5
X8.695Y-3.9
X8.695Y-4.5
X8.795Y-3.9
X8.795Y-4.5
X3.0938Y-3.5625
X3.0938Y-3.8625
X1.6562Y-3.6875
X1.6562Y-3.9875
X4.2188Y-3.5625
X4.2188Y-3.8625
X1.5312Y-3.625
X1.5312Y-3.925
X14.7188Y-3.625
X14.7188Y-3.925
X10.5312Y-3.75
X10.5312Y-4.05
X10.6562Y-3.6875
X10.6562Y-3.9875
X10.7812Y-3.625
X10.7812Y-3.925
X5.5938Y-3.6875
X5.5938Y-3.9875
X8.0175Y-3.6862
X8.3175Y-3.6862
X11.4688Y-3.5625
X11.4688Y-3.8625
X7.7504Y-4.6587
X7.9425Y-4.6587
X4.9062Y-3.625
X4.9062Y-3.925
X11.7812Y-3.6875
X11.7812Y-3.9875
X10.2188Y-3.625
X10.2188Y-3.925
X3.4688Y-3.75
X3.4688Y-4.05
X14.5938Y-3.6875
X14.5938Y-3.9875
X3.7812Y-3.625
X3.7812Y-3.925
X5.0312Y-3.6875
X5.0312Y-3.9875
X2.3438Y-3.75
X2.3438Y-4.05
X12.3438Y-3.6875
X12.3438Y-3.9875
X4.4688Y-3.6875
X4.4688Y-3.9875
X11.3438Y-3.625
X11.3438Y-3.925
X7.5525Y-4.625
X7.5525Y-4.7234
X12.2188Y-3.75
X12.2188Y-4.05
X4.0312Y-3.75
X4.0312Y-4.05
X1.9688Y-3.5625
X1.9688Y-3.8625
X5.1562Y-3.75
X5.1562Y-4.05
X5.3438Y-3.5625
X5.3438Y-3.8625
X2.2188Y-3.6875
X2.2188Y-3.9875
X2.9062Y-3.75
X2.9062Y-4.05
X12.5938Y-3.5625
X12.5938Y-3.8625
X13.0312Y-3.625
X13.0312Y-3.925
X7.2406Y-4.5938
X7.4375Y-4.5938
X11.6562Y-3.75
X11.6562Y-4.05
X1.4062Y-3.5625
X1.4062Y-3.8625
X14.4688Y-3.75
X14.4688Y-4.05
X11.2188Y-3.6875
X11.2188Y-3.9875
X11.0938Y-3.75
X11.0938Y-4.05
X14.8438Y-3.5625
X14.8438Y-3.8625
X5.7188Y-3.75
X5.7188Y-4.05
X13.1562Y-3.5625
X13.1562Y-3.8625
X5.4688Y-3.625
X5.4688Y-3.925
X8.0175Y-3.7887
X8.3175Y-3.7887
X2.5312Y-3.5625
X2.5312Y-3.8625
X2.6562Y-3.625
X2.6562Y-3.925
X2.0938Y-3.625
X2.0938Y-3.925
X3.6562Y-3.5625
X3.6562Y-3.8625
X14.1562Y-3.625
X14.1562Y-3.925
X12.9062Y-3.6875
X12.9062Y-3.9875
X10.0938Y-3.6875
X10.0938Y-3.9875
X12.0312Y-3.5625
X12.0312Y-3.8625
X11.9062Y-3.625
X11.9062Y-3.925
X10.3438Y-3.5625
X10.3438Y-3.8625
X7.6031Y-3.8087
X7.8Y-3.8087
X12.7812Y-3.75
X12.7812Y-4.05
X14.785Y-4.69
X15.085Y-4.69
X3.2188Y-3.625
X3.2188Y-3.925
X13.9062Y-3.75
X13.9062Y-4.05
X9.9688Y-3.75
X9.9688Y-4.05
X4.5938Y-3.75
X4.5938Y-4.05
X14.2812Y-3.5625
X14.2812Y-3.8625
T5
X8.1813Y-3.3125
X8.2812Y-3.3125
T6
X14.6422Y-4.9311
X14.6422Y-5.0295
X14.6422Y-5.128
X15.2131Y-4.9311
X15.2131Y-5.128
X6.2737Y-3.2617
X6.2737Y-3.3617
X6.3738Y-3.2617
X6.3738Y-3.3617
X6.4737Y-3.2617
X6.4737Y-3.3617
T7
X9.1562Y-3.25
X9.1562Y-3.4272
X9.4122Y-3.25
X9.4122Y-3.4272
X8.7188Y-3.25
X8.7188Y-3.4272
X8.9747Y-3.25
X8.9747Y-3.4272
T8
X11.8187Y-5.3062
X12.0687Y-5.2062
X12.0062Y-4.5562
X12.2562Y-4.4562
X5.6917Y-4.7787
X5.957Y-4.7329
X4.4628Y-6.051
X4.7281Y-6.0052
X13.1312Y-4.5562
X13.3812Y-4.4562
X6.4253Y-4.9347
X6.6906Y-4.8888
X8.9748Y-4.916
X9.1986Y-4.7662
X10.3596Y-6.9219
X10.5834Y-6.7721
X12.1937Y-6.0562
X12.4437Y-5.9562
X3.3813Y-4.5562
X3.6313Y-4.4562
X2.6313Y-4.5562
X2.8813Y-4.4562
X9.1033Y-6.4222
X9.327Y-6.2724
X9.626Y-7.0778
X9.8498Y-6.928
X9.8369Y-6.2662
X10.0606Y-6.1164
X13.5062Y-5.3062
X13.7562Y-5.2062
X12.5687Y-5.3062
X12.8187Y-5.2062
X12.0062Y-6.8062
X12.2562Y-6.7062
X8.3697Y-6.5781
X8.5934Y-6.4283
X8.1588Y-7.3897
X8.3825Y-7.2399
X4.9581Y-4.6228
X5.2234Y-4.577
X3.5688Y-6.0562
X3.8188Y-5.9562
X11.0687Y-5.275
X11.3187Y-5.175
X5.4073Y-7.0185
X5.6726Y-6.9727
X3.5688Y-5.3062
X3.8188Y-5.2062
X8.2412Y-5.0719
X8.4649Y-4.9221
X4.4778Y-7.6574
X4.7431Y-7.6115
X2.5375Y-6.8062
X2.7875Y-6.7062
X4.1312Y-4.4625
X4.3812Y-4.3625
X5.93Y-6.3629
X6.1953Y-6.3171
X11.2562Y-6.8062
X11.5062Y-6.7062
X6.1409Y-7.1745
X6.4062Y-7.1286
X4.4353Y-5.2784
X4.7006Y-5.2326
X2.6313Y-5.3062
X2.8813Y-5.2062
X10.5512Y-7.7166
X10.775Y-7.5668
X7.1589Y-5.0906
X7.4242Y-5.0448
X13.0375Y-6.8062
X13.2875Y-6.7062
X2.5375Y-6.0562
X2.7875Y-5.9562
X15.0062Y-7.7437
X15.2562Y-7.6437
X6.6636Y-6.5188
X6.9289Y-6.473
X14.2562Y-6.9937
X14.5062Y-6.8937
X8.7639Y-5.7275
X8.9877Y-5.5778
X5.1689Y-5.4344
X5.4343Y-5.3885
X5.8891Y-7.886
X6.1544Y-7.8402
X7.0841Y-8.141
X7.3494Y-8.0952
X6.9937Y-8.1225
X7.259Y-8.0767
X8.0303Y-5.8835
X8.2541Y-5.7337
X12.3812Y-7.5562
X12.6312Y-7.4562
X13.5062Y-7.7437
X13.7562Y-7.6437
X10.2312Y-5.4157
X10.4549Y-5.2659
X14.2562Y-7.7437
X14.5062Y-7.6437
X4.6737Y-6.8626
X4.939Y-6.8168
X6.8745Y-7.3304
X7.1398Y-7.2846
X9.4975Y-5.5716
X9.7213Y-5.4218
X5.9025Y-5.5903
X6.1679Y-5.5445
X2.35Y-6.0562
X2.6Y-5.9562
X8.9566Y-7.9869
X9.1804Y-7.8371
X5.8015Y-7.8691
X6.0669Y-7.8233
X1.6937Y-4.4625
X1.9437Y-4.3625
X2.2563Y-7.5562
X2.5063Y-7.4562
X10.442Y-4.6041
X10.6658Y-4.4543
X5.1964Y-6.207
X5.4617Y-6.1611
X9.7084Y-4.76
X9.9322Y-4.6102
X11.4437Y-6.0562
X11.6937Y-5.9562
X8.8924Y-7.2338
X9.1161Y-7.084
X10.5705Y-6.1103
X10.7942Y-5.9605
X6.6361Y-5.7462
X6.9015Y-5.7004
X13.4125Y-6.0562
X13.6625Y-5.9562
X11.2562Y-4.4625
X11.5062Y-4.3625
X3.7563Y-6.8062
X4.0062Y-6.7062
X1.3187Y-5.9625
X1.5687Y-5.8625
X1.5062Y-5.2125
X1.7562Y-5.1125
T10
X7.8438Y-8.3438
X1.1875Y-4.0312
X15.0Y-7.4062
X5.0938Y-7.4062
X6.4688Y-4.0312
X1.625Y-7.4375
X9.2188Y-4.0312
X15.4375Y-4.0312
X15.4375Y-3.3125
X10.5938Y-7.4062
X1.1875Y-3.3125
T2
G00X7.6735Y-3.3343
M15
G01X7.6735Y-3.3028
M16
G05
G00X7.6735Y-3.4811
M15
G01X7.6735Y-3.422
M16
G05
G00X8.014Y-3.3343
M15
G01X8.014Y-3.3028
M16
G05
G00X8.014Y-3.4811
M15
G01X8.014Y-3.422
M16
G05
T9
G00X14.9119Y-4.8091
M15
G01X14.9631Y-4.8091
M16
G05
G00X14.9119Y-5.25
M15
G01X14.9631Y-5.25
M16
G05
T0
M30
